{
.formatVersion = 3;
axes = (
{
name = Weight;
tag = wght;
}
);
classes = (
{
code = "Elcyr Decyr zhecyr yucyr kacyr Efcyr efcyr decyr elcyr";
name = locl;
},
{
code = "Elcyr.loclBGR Decyr.loclBGR zhecyr.loclBGR yucyr.loclBGR kacyr.loclBGR Efcyr.loclBGR efcyr.loclBGR decyr.loclBGR elcyr.loclBGR";
name = locl2;
}
);
familyName = Ruzland;
customParameters = (
{
name = glyphOrder;
value = (
.notdef,
.null,
CR,
space,
exclam,
quotedbl,
numbersign,
dollar,
percent,
ampersand,
quotesingle,
parenleft,
parenright,
asterisk,
plus,
comma,
hyphen,
period,
slash,
zero,
one,
two,
three,
four,
five,
six,
seven,
eight,
nine,
colon,
semicolon,
less,
equal,
greater,
question,
at,
A,
B,
C,
D,
E,
F,
G,
H,
I,
J,
K,
L,
M,
N,
O,
P,
Q,
R,
S,
T,
U,
V,
W,
X,
Y,
Z,
bracketleft,
backslash,
bracketright,
asciicircum,
underscore,
grave,
a,
b,
c,
d,
e,
f,
g,
h,
i,
j,
k,
l,
m,
n,
o,
p,
q,
r,
s,
t,
u,
v,
w,
x,
y,
z,
braceleft,
bar,
braceright,
asciitilde,
exclamdown,
cent,
sterling,
currency,
yen,
brokenbar,
section,
dieresis,
copyright,
ordfeminine,
guillemotleft,
logicalnot,
registered,
macron,
degree,
plusminus,
twosuperior,
threesuperior,
acute,
mu,
paragraph,
periodcentered,
cedilla,
onesuperior,
ordmasculine,
guillemotright,
onequarter,
onehalf,
threequarters,
questiondown,
Agrave,
Aacute,
Acircumflex,
Atilde,
Adieresis,
Aring,
AE,
Ccedilla,
Egrave,
Eacute,
Ecircumflex,
Edieresis,
Igrave,
Iacute,
Icircumflex,
Idieresis,
Eth,
Ntilde,
Ograve,
Oacute,
Ocircumflex,
Otilde,
Odieresis,
multiply,
Oslash,
Ugrave,
Uacute,
Ucircumflex,
Udieresis,
Yacute,
Thorn,
germandbls,
agrave,
aacute,
acircumflex,
atilde,
adieresis,
aring,
ae,
ccedilla,
egrave,
eacute,
ecircumflex,
edieresis,
igrave,
iacute,
icircumflex,
idieresis,
eth,
ntilde,
ograve,
oacute,
ocircumflex,
otilde,
odieresis,
divide,
oslash,
ugrave,
uacute,
ucircumflex,
udieresis,
yacute,
thorn,
ydieresis,
Amacron,
amacron,
Abreve,
abreve,
Aogonek,
aogonek,
Cacute,
cacute,
Ccircumflex,
ccircumflex,
Ccaron,
ccaron,
Dcaron,
dcaron,
Dcroat,
dcroat,

glyphs = (
{
glyphname = .notdef;
layers = (
{
layerId = "FD1F61E9-2C7C-476B-BA00-6F7EA0BDC6A6";
shapes = (
{
closed = 1;
nodes = (
(280,0,l),
(281,1210,l),
(1239,1210,l),
(1237,0,l)
);
},
{
closed = 1;
nodes = (
(305,30,l),
(1213,30,l),
(1213,1180,l),
(305,1180,l)
);
}
);
width = 1593;
},
{
layerId = "FB2915BF-3A78-4B7A-831F-149E9877B6A1";
shapes = (
{
closed = 1;
nodes = (
(280,0,l),
(281,1210,l),
(1239,1210,l),
(1237,0,l)
);
},
{
closed = 1;
nodes = (
(305,30,l),
(1213,30,l),
(1213,1180,l),
(305,1180,l)
);
}
);
width = 1593;
},
{
layerId = "14E32880-54EF-4278-81AC-E5D4AB6F58D5";
shapes = (
{
closed = 1;
nodes = (
(280,0,l),
(281,1210,l),
(1239,1210,l),
(1237,0,l)
);
},
{
closed = 1;
nodes = (
(305,30,l),
(1213,30,l),
(1213,1180,l),
(305,1180,l)
);
}
);
width = 1593;
},
{
layerId = "204F9CB2-94FB-4069-BE45-7F82EA7D2F19";
shapes = (
{
closed = 1;
nodes = (
(280,0,l),
(281,1210,l),
(1239,1210,l),
(1237,0,l)
);
},
{
closed = 1;
nodes = (
(305,30,l),
(1213,30,l),
(1213,1180,l),
(305,1180,l)
);
}
);
width = 1593;
}
);
},
{
glyphname = exclam;
layers = (
{
layerId = "FD1F61E9-2C7C-476B-BA00-6F7EA0BDC6A6";
shapes = (
{
closed = 1;
nodes = (
(427,1356,l),
(770,1356,l),
(657,743,l),
(540,446,l),
(326,446,l),
(315,743,l)
);
},
{
closed = 1;
nodes = (
(170,262,o),
(250,328,o),
(363,328,cs),
(485,328,o),
(562,262,o),
(562,153,c),
(563,101,o),
(545,61,o),
(509,27,cs),
(473,-6,o),
(424,-21,o),
(363,-21,cs),
(308,-21,o),
(261,-6,o),
(225,28,c),
(188,61,o),
(170,101,o),
(170,153,cs)
);
}
);
width = 874;
},
{
layerId = "FB2915BF-3A78-4B7A-831F-149E9877B6A1";
shapes = (
{
closed = 1;
nodes = (
(434,1356,l),
(717,1356,l),
(593,722,l),
(479,410,l),
(304,410,l),
(310,722,l)
);
},
{
closed = 1;
nodes = (
(172,227,o),
(240,285,o),
(340,285,cs),
(444,285,o),
(511,227,o),
(511,131,c),
(512,86,o),
(496,50,o),
(465,21,cs),
(434,-8,o),
(392,-22,o),
(340,-22,cs),
(291,-22,o),
(250,-8,o),
(219,21,cs),
(188,50,o),
(172,86,o),
(172,131,cs)
);
}
);
width = 797;
},
{
layerId = "14E32880-54EF-4278-81AC-E5D4AB6F58D5";
shapes = (
{
closed = 1;
nodes = (
(444,1356,l),
(638,1356,l),
(497,691,l),
(387,356,l),
(271,356,l),
(303,691,l)
);
},
{
closed = 1;
nodes = (
(175,174,o),
(225,220,o),
(305,220,cs),
(382,220,o),
(435,174,o),
(435,98,cs),
(435,64,o),
(422,34,o),
(399,12,cs),
(376,-11,o),
(344,-24,o),
(305,-24,cs),
(265,-24,o),
(233,-11,o),
(210,11,cs),
(188,33,o),
(175,64,o),
(175,98,cs)
);
}
);
width = 682;
},
{
layerId = "204F9CB2-94FB-4069-BE45-7F82EA7D2F19";
shapes = (
{
closed = 1;
nodes = (
(449,1356,l),
(598,1356,l),
(449,675,l),
(341,329,l),
(254,329,l),
(299,675,l)
);
},
{
closed = 1;
nodes = (
(177,147,o),
(217,187,o),
(287,187,cs),
(351,187,o),
(397,147,o),
(397,81,c),
(396,53,o),
(385,26,o),
(366,7,cs),
(347,-13,o),
(320,-25,o),
(287,-25,cs),
(252,-25,o),
(224,-13,o),
(205,6,cs),
(188,24,o),
(177,53,o),
(177,81,cs)
);
}
);
width = 624;
}
);
unicode = 33;
},
{
glyphname = quotedbl;
layers = (
{
layerId = "FD1F61E9-2C7C-476B-BA00-6F7EA0BDC6A6";
shapes = (
{
closed = 1;
nodes = (
(341,907,l),
(423,1356,l),
(705,1356,l),
(545,907,l)
);
},
{
closed = 1;
nodes = (
(746,907,l),
(828,1356,l),
(1110,1356,l),
(950,907,l)
);
}
);
width = 1322;
},
{
layerId = "FB2915BF-3A78-4B7A-831F-149E9877B6A1";
shapes = (
{
closed = 1;
nodes = (
(342,933,l),
(424,1356,l),
(664,1356,l),
(508,933,l)
);
},
{
closed = 1;
nodes = (
(701,933,l),
(783,1356,l),
(1023,1356,l),
(867,933,l)
);
}
);
width = 1137;
},
{
layerId = "14E32880-54EF-4278-81AC-E5D4AB6F58D5";
shapes = (
{
closed = 1;
nodes = (
(343,972,l),
(425,1356,l),
(603,1356,l),
(453,972,l)
);
},
{
closed = 1;
nodes = (
(633,972,l),
(715,1356,l),
(893,1356,l),
(743,972,l)
);
}
);
width = 860;
},
{
layerId = "204F9CB2-94FB-4069-BE45-7F82EA7D2F19";
shapes = (
{
closed = 1;
nodes = (
(344,992,l),
(426,1356,l),
(572,1356,l),
(425,992,l)
);
},
{
closed = 1;
nodes = (
(599,992,l),
(681,1356,l),
(828,1356,l),
(681,992,l)
);
}
);
width = 721;
}
);
unicode = 34;
},
{
glyphname = numbersign;
layers = (
{
layerId = "FD1F61E9-2C7C-476B-BA00-6F7EA0BDC6A6";
shapes = (
{
closed = 1;
nodes = (
(571,370,l),
(405,370,l),
(334,86,l),
(77,86,l),
(148,370,l),
(50,370,l),
(106,604,l),
(209,604,l),
(251,771,l),
(154,771,l),
(208,1005,l),
(309,1005,l),
(377,1268,l),
(633,1268,l),
(568,1005,l),
(734,1005,l),
(802,1268,l),
(1059,1268,l),
(991,1005,l),
(1082,1005,l),
(1022,771,l),
(932,771,l),
(886,604,l),
(975,604,l),
(917,370,l),
(826,370,l),
(759,86,l),
(502,86,l)
);
},
{
closed = 1;
nodes = (
(464,604,l),
(633,604,l),
(675,771,l),
(506,771,l)
);
}
);
width = 1024;
},
{
layerId = "FB2915BF-3A78-4B7A-831F-149E9877B6A1";
shapes = (
{
closed = 1;
nodes = (
(589,393,l),
(402,393,l),
(327,96,l),
(110,96,l),
(185,393,l),
(60,393,l),
(107,589,l),
(236,589,l),
(286,786,l),
(165,786,l),
(211,982,l),
(336,982,l),
(408,1259,l),
(624,1259,l),
(554,982,l),
(741,982,l),
(813,1259,l),
(1030,1259,l),
(958,982,l),
(1077,982,l),
(1026,786,l),
(908,786,l),
(855,589,l),
(970,589,l),
(920,393,l),
(805,393,l),
(731,96,l),
(515,96,l)
);
},
{
closed = 1;
nodes = (
(452,589,l),
(641,589,l),
(691,786,l),
(502,786,l)
);
}
);
width = 1024;
},
{
layerId = "14E32880-54EF-4278-81AC-E5D4AB6F58D5";
shapes = (
{
closed = 1;
nodes = (
(616,428,l),
(397,428,l),
(316,111,l),
(159,111,l),
(240,428,l),
(75,428,l),
(108,567,l),
(277,567,l),
(339,808,l),
(182,808,l),
(215,947,l),
(376,947,l),
(454,1245,l),
(610,1245,l),
(533,947,l),
(751,947,l),
(829,1245,l),
(986,1245,l),
(908,947,l),
(1069,947,l),
(1032,808,l),
(872,808,l),
(809,567,l),
(962,567,l),
(925,428,l),
(773,428,l),
(689,111,l),
(535,111,l)
);
},
{
closed = 1;
nodes = (
(434,567,l),
(653,567,l),
(715,808,l),
(496,808,l)
);
}
);
width = 1024;
},
{
layerId = "204F9CB2-94FB-4069-BE45-7F82EA7D2F19";
shapes = (
{
closed = 1;
nodes = (
(630,446,l),
(394,446,l),
(310,119,l),
(184,119,l),
(268,446,l),
(83,446,l),
(109,556,l),
(298,556,l),
(366,819,l),
(191,819,l),
(217,929,l),
(396,929,l),
(477,1238,l),
(603,1238,l),
(522,929,l),
(756,929,l),
(837,1238,l),
(964,1238,l),
(883,929,l),
(1065,929,l),
(1035,819,l),
(854,819,l),
(786,556,l),
(958,556,l),
(928,446,l),
(757,446,l),
(668,119,l),
(545,119,l)
);
},
{
closed = 1;
nodes = (
(425,556,l),
(659,556,l),
(727,819,l),
(493,819,l)
);
}
);
width = 1024;
}
);
unicode = 35;
},
{
glyphname = dollar;
layers = (
{
layerId = "FD1F61E9-2C7C-476B-BA00-6F7EA0BDC6A6";
shapes = (
{
closed = 1;
nodes = (
(359,-26,l),
(204,-21,o),
(114,23,o),
(94,35,c),
(243,318,l),
(286,289,o),
(345,270,o),
(412,260,c),
(463,561,l),
(381,597,o),
(184,720,o),
(184,922,cs),
(184,1193,o),
(398,1328,o),
(613,1372,c),
(647,1549,l),
(909,1549,l),
(876,1379,l),
(954,1369,o),
(1039,1351,o),
(1108,1312,c),
(956,1038,l),
(919,1054,o),
(897,1073,o),
(823,1089,c),
(776,805,l),
(873,767,o),
(1044,646,o),
(1044,461,cs),
(1044,183,o),
(869,23,o),
(624,-12,c),
(591,-194,l),
(329,-194,l)
);
},
{
closed = 1;
nodes = (
(550,254,l),
(663,249,o),
(691,324,o),
(691,364,cs),
(691,468,o),
(628,500,o),
(593,515,c)
);
},
{
closed = 1;
nodes = (
(686,1103,l),
(548,1103,o),
(535,1023,o),
(535,992,cs),
(535,921,o),
(571,878,o),
(642,853,c)
);
}
);
width = 1024;
},
{
layerId = "FB2915BF-3A78-4B7A-831F-149E9877B6A1";
shapes = (
{
closed = 1;
nodes = (
(348,-26,l),
(193,-21,o),
(99,24,o),
(61,46,c),
(188,281,l),
(235,252,o),
(298,220,o),
(394,211,c),
(466,585,l),
(370,628,o),
(189,738,o),
(189,933,cs),
(189,1186,o),
(373,1333,o),
(620,1373,c),
(655,1549,l),
(873,1549,l),
(839,1379,l),
(943,1371,o),
(1017,1347,o),
(1086,1311,c),
(959,1083,l),
(918,1102,o),
(884,1127,o),
(793,1140,c),
(727,792,l),
(841,742,o),
(1004,637,o),
(1004,457,cs),
(1004,190,o),
(822,22,o),
(569,-13,c),
(534,-194,l),
(316,-194,l)
);
},
{
closed = 1;
nodes = (
(521,209,l),
(653,214,o),
(713,291,o),
(713,371,cs),
(713,471,o),
(643,512,o),
(584,539,c)
);
},
{
closed = 1;
nodes = (
(667,1148,l),
(530,1143,o),
(479,1070,o),
(479,997,cs),
(479,916,o),
(536,869,o),
(607,840,c)
);
}
);
width = 1024;
},
{
layerId = "14E32880-54EF-4278-81AC-E5D4AB6F58D5";
shapes = (
{
closed = 1;
nodes = (
(332,-26,l),
(176,-21,o),
(76,26,o),
(12,63,c),
(106,225,l),
(159,196,o),
(227,145,o),
(367,137,c),
(470,621,l),
(354,674,o),
(196,765,o),
(196,949,cs),
(196,1176,o),
(335,1340,o),
(630,1375,c),
(667,1549,l),
(819,1549,l),
(783,1379,l),
(926,1374,o),
(984,1341,o),
(1053,1309,c),
(963,1150,l),
(917,1174,o),
(864,1208,o),
(748,1216,c),
(654,773,l),
(793,704,o),
(944,624,o),
(944,451,cs),
(944,201,o),
(752,20,o),
(487,-15,c),
(449,-194,l),
(297,-194,l)
);
},
{
closed = 1;
nodes = (
(478,142,l),
(638,161,o),
(746,241,o),
(746,382,cs),
(746,475,o),
(666,530,o),
(570,575,c)
);
},
{
closed = 1;
nodes = (
(639,1216,l),
(503,1203,o),
(395,1141,o),
(395,1005,cs),
(395,909,o),
(484,855,o),
(555,821,c)
);
}
);
width = 1024;
},
{
layerId = "204F9CB2-94FB-4069-BE45-7F82EA7D2F19";
shapes = (
{
closed = 1;
nodes = (
(324,-26,l),
(167,-21,o),
(64,27,o),
(-13,72,c),
(65,197,l),
(121,168,o),
(191,107,o),
(353,100,c),
(472,639,l),
(346,697,o),
(200,779,o),
(200,957,cs),
(200,1171,o),
(316,1344,o),
(635,1376,c),
(673,1549,l),
(792,1549,l),
(755,1379,l),
(917,1376,o),
(967,1338,o),
(1036,1308,c),
(965,1184,l),
(916,1210,o),
(854,1249,o),
(725,1254,c),
(617,763,l),
(769,685,o),
(914,617,o),
(914,448,cs),
(914,207,o),
(717,19,o),
(446,-16,c),
(406,-194,l),
(287,-194,l)
);
},
{
closed = 1;
nodes = (
(456,108,l),
(630,134,o),
(763,216,o),
(763,388,cs),
(763,477,o),
(678,539,o),
(563,593,c)
);
},
{
closed = 1;
nodes = (
(625,1250,l),
(489,1233,o),
(353,1177,o),
(353,1009,cs),
(353,905,o),
(458,848,o),
(529,811,c)
);
}
);
width = 1024;
}
);
unicode = 36;
},
{
glyphname = percent;
layers = (
{
layerId = "FD1F61E9-2C7C-476B-BA00-6F7EA0BDC6A6";
shapes = (
{
closed = 1;
nodes = (
(143,1275,o),
(260,1379,o),
(458,1379,cs),
(647,1379,o),
(769,1290,o),
(769,1050,cs),
(769,808,o),
(653,721,o),
(458,721,cs),
(276,721,o),
(143,808,o),
(143,1050,cs)
);
},
{
closed = 1;
nodes = (
(363,976,o),
(389,918,o),
(458,918,cs),
(520,918,o),
(545,958,o),
(545,1050,cs),
(545,1142,o),
(514,1182,o),
(458,1182,cs),
(399,1182,o),
(363,1150,o),
(363,1050,cs)
);
},
{
closed = 1;
nodes = (
(1147,1378,l),
(1336,1256,l),
(617,-76,l),
(428,33,l)
);
},
{
closed = 1;
nodes = (
(1026,554,o),
(1142,658,o),
(1341,658,cs),
(1530,658,o),
(1651,569,o),
(1651,329,cs),
(1651,87,o),
(1536,0,o),
(1341,0,cs),
(1159,0,o),
(1026,87,o),
(1026,329,cs)
);
},
{
closed = 1;
nodes = (
(1246,255,o),
(1271,197,o),
(1341,197,cs),
(1403,197,o),
(1428,237,o),
(1428,329,cs),
(1428,421,o),
(1396,461,o),
(1341,461,cs),
(1281,461,o),
(1246,429,o),
(1246,329,cs)
);
}
);
width = 1706;
},
{
layerId = "FB2915BF-3A78-4B7A-831F-149E9877B6A1";
shapes = (
{
closed = 1;
nodes = (
(194,1280,o),
(313,1379,o),
(488,1379,cs),
(661,1379,o),
(782,1289,o),
(782,1050,cs),
(782,810,o),
(661,721,o),
(488,721,cs),
(313,721,o),
(194,810,o),
(194,1050,cs)
);
},
{
closed = 1;
nodes = (
(391,949,o),
(416,889,o),
(488,889,cs),
(555,889,o),
(583,934,o),
(583,1050,cs),
(583,1166,o),
(555,1211,o),
(488,1211,cs),
(420,1211,o),
(391,1166,o),
(391,1050,cs)
);
},
{
closed = 1;
nodes = (
(1245,1379,l),
(1403,1269,l),
(529,-56,l),
(371,48,l)
);
},
{
closed = 1;
nodes = (
(1024,559,o),
(1143,658,o),
(1318,658,cs),
(1491,658,o),
(1612,568,o),
(1612,329,cs),
(1612,89,o),
(1491,0,o),
(1318,0,cs),
(1143,0,o),
(1024,89,o),
(1024,329,cs)
);
},
{
closed = 1;
nodes = (
(1221,228,o),
(1246,168,o),
(1318,168,cs),
(1385,168,o),
(1413,213,o),
(1413,329,cs),
(1413,445,o),
(1385,490,o),
(1318,490,cs),
(1250,490,o),
(1221,445,o),
(1221,329,cs)
);
}
);
width = 1706;
},
{
layerId = "14E32880-54EF-4278-81AC-E5D4AB6F58D5";
shapes = (
{
closed = 1;
nodes = (
(270,1287,o),
(393,1379,o),
(533,1379,cs),
(682,1379,o),
(802,1287,o),
(802,1050,cs),
(802,813,o),
(673,721,o),
(533,721,cs),
(368,721,o),
(270,813,o),
(270,1050,cs)
);
},
{
closed = 1;
nodes = (
(433,909,o),
(457,845,o),
(533,845,cs),
(607,845,o),
(640,898,o),
(640,1050,cs),
(640,1202,o),
(617,1255,o),
(533,1255,cs),
(452,1255,o),
(433,1190,o),
(433,1050,cs)
);
},
{
closed = 1;
nodes = (
(1392,1381,l),
(1504,1288,l),
(397,-26,l),
(286,70,l)
);
},
{
closed = 1;
nodes = (
(1021,566,o),
(1144,658,o),
(1284,658,cs),
(1433,658,o),
(1553,566,o),
(1553,329,cs),
(1553,92,o),
(1424,0,o),
(1284,0,cs),
(1119,0,o),
(1021,92,o),
(1021,329,cs)
);
},
{
closed = 1;
nodes = (
(1184,188,o),
(1208,124,o),
(1284,124,cs),
(1358,124,o),
(1391,177,o),
(1391,329,cs),
(1391,481,o),
(1368,534,o),
(1284,534,cs),
(1203,534,o),
(1184,469,o),
(1184,329,cs)
);
}
);
width = 1706;
},
{
layerId = "204F9CB2-94FB-4069-BE45-7F82EA7D2F19";
shapes = (
{
closed = 1;
nodes = (
(308,1291,o),
(433,1379,o),
(556,1379,cs),
(693,1379,o),
(812,1286,o),
(812,1050,cs),
(812,815,o),
(679,721,o),
(556,721,cs),
(396,721,o),
(308,815,o),
(308,1050,cs)
);
},
{
closed = 1;
nodes = (
(454,889,o),
(478,823,o),
(556,823,cs),
(633,823,o),
(669,880,o),
(669,1050,cs),
(669,1220,o),
(648,1277,o),
(556,1277,cs),
(468,1277,o),
(454,1202,o),
(454,1050,cs)
);
},
{
closed = 1;
nodes = (
(1466,1382,l),
(1555,1298,l),
(331,-11,l),
(243,81,l)
);
},
{
closed = 1;
nodes = (
(1019,570,o),
(1145,658,o),
(1267,658,cs),
(1404,658,o),
(1523,565,o),
(1523,329,cs),
(1523,94,o),
(1390,0,o),
(1267,0,cs),
(1107,0,o),
(1019,94,o),
(1019,329,cs)
);
},
{
closed = 1;
nodes = (
(1165,168,o),
(1189,102,o),
(1267,102,cs),
(1344,102,o),
(1380,159,o),
(1380,329,cs),
(1380,499,o),
(1359,556,o),
(1267,556,cs),
(1179,556,o),
(1165,481,o),
(1165,329,cs)
);
}
);
width = 1706;
}
);
unicode = 37;
},
{
glyphname = ampersand;
layers = (
{
layerId = "FD1F61E9-2C7C-476B-BA00-6F7EA0BDC6A6";
shapes = (
{
closed = 1;
nodes = (
(107,552,o),
(266,713,o),
(561,815,c),
(508,872,o),
(483,962,o),
(483,1042,cs),
(483,1197,o),
(639,1383,o),
(956,1383,cs),
(1158,1383,o),
(1249,1300,o),
(1275,1203,c),
(1279,1183,o),
(1280,1161,o),
(1280,1141,cs),
(1280,927,o),
(1075,833,o),
(928,766,c),
(1002,643,o),
(1032,581,o),
(1097,516,c),
(1174,580,o),
(1214,640,o),
(1288,753,c),
(1501,614,l),
(1402,472,o),
(1351,418,o),
(1287,363,c),
(1334,311,o),
(1469,227,o),
(1482,212,c),
(1258,-28,l),
(1179,11,o),
(1062,99,o),
(1027,145,c),
(819,3,o),
(714,-16,o),
(564,-26,c),
(547,-28,o),
(531,-28,o),
(515,-29,cs),
(397,-33,o),
(309,-5,o),
(241,41,cs),
(140,108,o),
(107,205,o),
(107,334,cs)
);
},
{
closed = 1;
nodes = (
(770,425,o),
(699,519,o),
(646,619,c),
(577,599,o),
(516,571,o),
(485,532,c),
(472,507,o),
(449,473,o),
(449,412,cs),
(449,330,o),
(507,247,o),
(597,247,cs),
(683,247,o),
(734,246,o),
(854,331,c)
);
},
{
closed = 1;
nodes = (
(806,1013,o),
(810,977,o),
(857,911,c),
(983,948,o),
(1024,1036,o),
(1024,1078,cs),
(1024,1124,o),
(990,1150,o),
(933,1150,cs),
(880,1150,o),
(806,1112,o),
(806,1054,cs)
);
}
);
width = 1593;
},
{
layerId = "FB2915BF-3A78-4B7A-831F-149E9877B6A1";
shapes = (
{
closed = 1;
nodes = (
(104,549,o),
(276,714,o),
(564,826,c),
(517,889,o),
(490,975,o),
(490,1055,cs),
(490,1206,o),
(634,1382,o),
(929,1382,cs),
(1131,1382,o),
(1216,1293,o),
(1232,1195,cs),
(1234,1183,o),
(1235,1170,o),
(1235,1158,cs),
(1235,982,o),
(1064,863,o),
(869,783,c),
(945,639,o),
(1014,538,o),
(1101,457,c),
(1177,521,o),
(1245,613,o),
(1313,722,c),
(1490,610,l),
(1410,489,o),
(1326,391,o),
(1254,328,c),
(1313,269,o),
(1426,197,o),
(1479,170,c),
(1290,-27,l),
(1224,5,o),
(1110,79,o),
(1046,148,c),
(872,21,o),
(741,-20,o),
(561,-26,cs),
(544,-27,o),
(527,-27,o),
(510,-27,cs),
(404,-27,o),
(316,-2,o),
(249,42,cs),
(155,103,o),
(104,203,o),
(104,325,cs)
);
},
{
closed = 1;
nodes = (
(796,410,o),
(697,547,o),
(638,663,c),
(560,633,o),
(497,596,o),
(453,550,cs),
(410,504,o),
(386,450,o),
(386,384,cs),
(386,283,o),
(470,200,o),
(590,200,cs),
(696,200,o),
(789,215,o),
(903,300,c)
);
},
{
closed = 1;
nodes = (
(757,1017,o),
(767,972,o),
(808,909,c),
(955,968,o),
(1013,1048,o),
(1013,1104,cs),
(1013,1156,o),
(975,1187,o),
(906,1187,cs),
(825,1187,o),
(757,1136,o),
(757,1064,cs)
);
}
);
width = 1593;
},
{
layerId = "14E32880-54EF-4278-81AC-E5D4AB6F58D5";
shapes = (
{
closed = 1;
nodes = (
(100,544,o),
(291,715,o),
(569,843,c),
(530,915,o),
(501,994,o),
(501,1075,cs),
(501,1219,o),
(626,1381,o),
(888,1381,cs),
(1091,1381,o),
(1167,1282,o),
(1167,1183,c),
(1167,1183,o),
(1167,1183,o),
(1167,1183,c),
(1167,1064,o),
(1048,908,o),
(780,809,c),
(860,633,o),
(987,474,o),
(1107,368,c),
(1182,432,o),
(1292,572,o),
(1351,676,c),
(1474,604,l),
(1422,515,o),
(1289,351,o),
(1205,275,c),
(1281,206,o),
(1362,152,o),
(1475,107,c),
(1338,-26,l),
(1292,-4,o),
(1182,49,o),
(1075,153,c),
(951,48,o),
(781,-26,o),
(557,-26,cs),
(539,-26,o),
(521,-25,o),
(503,-24,cs),
(414,-18,o),
(327,3,o),
(261,44,cs),
(178,95,o),
(100,200,o),
(100,312,cs)
);
},
{
closed = 1;
nodes = (
(835,387,o),
(694,589,o),
(626,729,c),
(534,684,o),
(469,633,o),
(405,577,cs),
(317,500,o),
(291,416,o),
(291,342,cs),
(291,213,o),
(415,130,o),
(579,130,cs),
(716,130,o),
(872,169,o),
(976,254,c)
);
},
{
closed = 1;
nodes = (
(684,1023,o),
(703,965,o),
(734,906,c),
(913,998,o),
(996,1066,o),
(996,1143,cs),
(996,1204,o),
(953,1242,o),
(865,1242,cs),
(742,1242,o),
(684,1172,o),
(684,1079,cs)
);
}
);
width = 1593;
},
{
layerId = "204F9CB2-94FB-4069-BE45-7F82EA7D2F19";
shapes = (
{
closed = 1;
nodes = (
(98,541,o),
(299,716,o),
(572,852,c),
(537,928,o),
(507,1004,o),
(507,1085,cs),
(507,1226,o),
(622,1380,o),
(867,1380,cs),
(1071,1380,o),
(1142,1276,o),
(1134,1177,c),
(1133,1183,o),
(1133,1190,o),
(1133,1196,c),
(1133,1105,o),
(1040,931,o),
(735,822,c),
(817,630,o),
(973,442,o),
(1110,323,c),
(1185,387,o),
(1316,551,o),
(1370,653,c),
(1466,601,l),
(1428,528,o),
(1270,331,o),
(1180,248,c),
(1265,174,o),
(1330,129,o),
(1473,75,c),
(1362,-25,l),
(1326,-9,o),
(1218,34,o),
(1090,156,c),
(991,62,o),
(801,-29,o),
(555,-26,c),
(536,-25,o),
(518,-24,o),
(499,-22,cs),
(419,-13,o),
(333,6,o),
(267,45,cs),
(190,91,o),
(98,198,o),
(98,305,cs)
);
},
{
closed = 1;
nodes = (
(855,375,o),
(692,610,o),
(620,762,c),
(521,710,o),
(455,652,o),
(381,591,cs),
(270,498,o),
(243,399,o),
(243,321,cs),
(243,178,o),
(387,95,o),
(573,95,cs),
(726,95,o),
(914,146,o),
(1013,231,c)
);
},
{
closed = 1;
nodes = (
(647,1026,o),
(671,961,o),
(697,904,c),
(892,1013,o),
(987,1075,o),
(987,1163,cs),
(987,1228,o),
(942,1270,o),
(844,1270,cs),
(700,1270,o),
(647,1190,o),
(647,1087,cs)
);
}
);
width = 1593;
}
);
unicode = 38;
},
{
glyphname = quotesingle;
layers = (
{
layerId = "FD1F61E9-2C7C-476B-BA00-6F7EA0BDC6A6";
shapes = (
{
closed = 1;
nodes = (
(359,1356,l),
(641,1356,l),
(481,907,l),
(277,907,l)
);
}
);
width = 656;
},
{
layerId = "FB2915BF-3A78-4B7A-831F-149E9877B6A1";
shapes = (
{
closed = 1;
nodes = (
(356,1356,l),
(596,1356,l),
(440,933,l),
(274,933,l)
);
}
);
width = 569;
},
{
layerId = "14E32880-54EF-4278-81AC-E5D4AB6F58D5";
shapes = (
{
closed = 1;
nodes = (
(351,1356,l),
(528,1356,l),
(378,972,l),
(269,972,l)
);
}
);
width = 438;
},
{
layerId = "204F9CB2-94FB-4069-BE45-7F82EA7D2F19";
shapes = (
{
closed = 1;
nodes = (
(348,1356,l),
(494,1356,l),
(347,992,l),
(266,992,l)
);
}
);
width = 372;
}
);
unicode = 39;
},
{
glyphname = parenleft;
layers = (
{
layerId = "FD1F61E9-2C7C-476B-BA00-6F7EA0BDC6A6";
shapes = (
{
closed = 1;
nodes = (
(327,-426,l),
(249,-337,o),
(198,-224,o),
(166,-103,cs),
(133,18,o),
(118,145,o),
(118,258,cs),
(118,439,o),
(157,635,o),
(246,828,cs),
(335,1022,o),
(470,1214,o),
(664,1379,c),
(852,1237,l),
(708,1084,o),
(608,921,o),
(543,754,cs),
(478,588,o),
(451,423,o),
(451,276,cs),
(451,184,o),
(463,79,o),
(483,-20,cs),
(505,-116,o),
(537,-210,o),
(583,-284,c)
);
}
);
width = 682;
},
{
layerId = "FB2915BF-3A78-4B7A-831F-149E9877B6A1";
shapes = (
{
closed = 1;
nodes = (
(336,-426,l),
(261,-339,o),
(211,-227,o),
(179,-108,cs),
(147,11,o),
(133,136,o),
(133,247,cs),
(133,427,o),
(173,625,o),
(264,821,cs),
(355,1017,o),
(494,1211,o),
(694,1379,c),
(845,1260,l),
(677,1093,o),
(568,917,o),
(500,745,cs),
(432,573,o),
(407,407,o),
(407,266,cs),
(407,173,o),
(418,66,o),
(440,-35,cs),
(462,-135,o),
(496,-231,o),
(545,-306,c)
);
}
);
width = 682;
},
{
layerId = "14E32880-54EF-4278-81AC-E5D4AB6F58D5";
shapes = (
{
closed = 1;
nodes = (
(350,-426,l),
(279,-342,o),
(230,-231,o),
(199,-115,cs),
(168,1,o),
(155,122,o),
(155,230,cs),
(155,409,o),
(197,610,o),
(291,810,cs),
(385,1010,o),
(530,1207,o),
(739,1379,c),
(834,1295,l),
(631,1107,o),
(508,911,o),
(436,731,cs),
(363,550,o),
(341,383,o),
(341,251,cs),
(341,156,o),
(351,47,o),
(375,-58,cs),
(398,-163,o),
(435,-263,o),
(488,-339,c)
);
}
);
width = 682;
},
{
layerId = "204F9CB2-94FB-4069-BE45-7F82EA7D2F19";
shapes = (
{
closed = 1;
nodes = (
(357,-426,l),
(288,-344,o),
(240,-233,o),
(209,-119,cs),
(179,-4,o),
(166,115,o),
(166,221,cs),
(166,400,o),
(209,602,o),
(305,804,cs),
(400,1006,o),
(548,1205,o),
(762,1379,c),
(828,1313,l),
(608,1114,o),
(478,908,o),
(404,724,cs),
(328,538,o),
(308,371,o),
(308,243,cs),
(308,147,o),
(317,37,o),
(342,-70,c),
(366,-177,o),
(404,-279,o),
(459,-356,c)
);
}
);
width = 682;
}
);
unicode = 40;
},
{
glyphname = parenright;
layers = (
{
layerId = "FD1F61E9-2C7C-476B-BA00-6F7EA0BDC6A6";
shapes = (
{
closed = 1;
nodes = (
(-82,-284,l),
(184,-15,o),
(327,347,o),
(327,691,cs),
(327,873,o),
(293,1091,o),
(199,1237,c),
(442,1379,l),
(596,1183,o),
(654,900,o),
(654,671,cs),
(654,341,o),
(510,-115,o),
(120,-426,c)
);
}
);
width = 682;
},
{
layerId = "FB2915BF-3A78-4B7A-831F-149E9877B6A1";
shapes = (
{
closed = 1;
nodes = (
(-101,-306,l),
(186,-32,o),
(343,351,o),
(343,700,cs),
(343,882,o),
(306,1106,o),
(207,1260,c),
(405,1379,l),
(555,1189,o),
(611,908,o),
(611,685,cs),
(611,346,o),
(458,-110,o),
(61,-426,c)
);
}
);
width = 682;
},
{
layerId = "14E32880-54EF-4278-81AC-E5D4AB6F58D5";
shapes = (
{
closed = 1;
nodes = (
(-130,-339,l),
(189,-57,o),
(367,357,o),
(367,713,cs),
(367,896,o),
(326,1129,o),
(219,1295,c),
(349,1379,l),
(493,1198,o),
(547,920,o),
(547,706,cs),
(547,354,o),
(380,-103,o),
(-28,-426,c)
);
}
);
width = 682;
},
{
layerId = "204F9CB2-94FB-4069-BE45-7F82EA7D2F19";
shapes = (
{
closed = 1;
nodes = (
(-145,-356,l),
(191,-70,o),
(379,360,o),
(379,720,cs),
(379,903,o),
(336,1141,o),
(225,1313,c),
(321,1379,l),
(462,1203,o),
(515,926,o),
(515,717,cs),
(515,358,o),
(341,-99,o),
(-73,-426,c)
);
}
);
width = 682;
}
);
unicode = 41;
},
{
glyphname = asterisk;
layers = (
{
layerId = "FD1F61E9-2C7C-476B-BA00-6F7EA0BDC6A6";
shapes = (
{
closed = 1;
nodes = (
(581,1437,l),
(634,1354,l),
(657,1249,l),
(676,1344,l),
(730,1437,l),
(862,1365,l),
(804,1264,l),
(717,1199,l),
(826,1232,l),
(939,1232,l),
(939,1082,l),
(832,1082,l),
(728,1118,l),
(821,1039,l),
(869,959,l),
(733,883,l),
(684,970,l),
(655,1082,l),
(639,984,l),
(581,887,l),
(450,963,l),
(508,1062,l),
(589,1115,l),
(495,1082,l),
(381,1082,l),
(381,1235,l),
(498,1235,l),
(595,1199,l),
(499,1270,l),
(447,1358,l)
);
}
);
width = 1024;
},
{
layerId = "FB2915BF-3A78-4B7A-831F-149E9877B6A1";
shapes = (
{
closed = 1;
nodes = (
(559,1423,l),
(617,1332,l),
(648,1214,l),
(679,1325,l),
(737,1423,l),
(867,1352,l),
(805,1247,l),
(706,1162,l),
(841,1195,l),
(958,1195,l),
(958,1046,l),
(846,1046,l),
(719,1081,l),
(822,987,l),
(874,900,l),
(743,826,l),
(687,920,l),
(646,1046,l),
(619,931,l),
(559,831,l),
(427,906,l),
(490,1007,l),
(582,1079,l),
(466,1046,l),
(346,1046,l),
(346,1197,l),
(468,1197,l),
(590,1162,l),
(486,1249,l),
(427,1347,l)
);
}
);
width = 1024;
},
{
layerId = "14E32880-54EF-4278-81AC-E5D4AB6F58D5";
shapes = (
{
closed = 1;
nodes = (
(526,1402,l),
(591,1299,l),
(635,1162,l),
(684,1297,l),
(747,1402,l),
(874,1332,l),
(806,1222,l),
(689,1107,l),
(863,1140,l),
(986,1140,l),
(986,992,l),
(867,992,l),
(706,1025,l),
(823,909,l),
(881,812,l),
(758,740,l),
(691,845,l),
(633,992,l),
(589,852,l),
(526,747,l),
(392,820,l),
(463,925,l),
(571,1025,l),
(423,992,l),
(294,992,l),
(294,1140,l),
(423,1140,l),
(582,1107,l),
(466,1217,l),
(397,1330,l)
);
}
);
width = 1024;
},
{
layerId = "204F9CB2-94FB-4069-BE45-7F82EA7D2F19";
shapes = (
{
closed = 1;
nodes = (
(509,1391,l),
(578,1282,l),
(628,1136,l),
(687,1283,l),
(752,1391,l),
(878,1322,l),
(807,1209,l),
(680,1079,l),
(874,1112,l),
(1000,1112,l),
(1000,965,l),
(878,965,l),
(699,997,l),
(824,870,l),
(885,768,l),
(766,697,l),
(693,807,l),
(626,965,l),
(574,812,l),
(509,705,l),
(374,777,l),
(449,884,l),
(565,998,l),
(401,965,l),
(268,965,l),
(268,1111,l),
(400,1111,l),
(578,1079,l),
(456,1201,l),
(382,1321,l)
);
}
);
width = 1024;
}
);
unicode = 42;
},
{
glyphname = plus;
layers = (
{
layerId = "FD1F61E9-2C7C-476B-BA00-6F7EA0BDC6A6";
shapes = (
{
closed = 1;
nodes = (
(111,792,l),
(433,792,l),
(433,1129,l),
(722,1129,l),
(722,792,l),
(1043,792,l),
(1043,513,l),
(722,513,l),
(722,176,l),
(433,176,l),
(433,513,l),
(111,513,l)
);
}
);
width = 1024;
},
{
layerId = "FB2915BF-3A78-4B7A-831F-149E9877B6A1";
shapes = (
{
closed = 1;
nodes = (
(180,769,l),
(521,769,l),
(521,1118,l),
(761,1118,l),
(761,769,l),
(1102,769,l),
(1102,536,l),
(761,536,l),
(761,186,l),
(521,186,l),
(521,536,l),
(180,536,l)
);
}
);
width = 1167;
},
{
layerId = "14E32880-54EF-4278-81AC-E5D4AB6F58D5";
shapes = (
{
closed = 1;
nodes = (
(284,734,l),
(653,734,l),
(653,1102,l),
(820,1102,l),
(820,734,l),
(1190,734,l),
(1190,571,l),
(820,571,l),
(820,201,l),
(653,201,l),
(653,571,l),
(284,571,l)
);
}
);
width = 1382;
},
{
layerId = "204F9CB2-94FB-4069-BE45-7F82EA7D2F19";
shapes = (
{
closed = 1;
nodes = (
(336,716,l),
(719,716,l),
(719,1094,l),
(850,1094,l),
(850,716,l),
(1234,716,l),
(1234,589,l),
(850,589,l),
(850,209,l),
(719,209,l),
(719,589,l),
(336,589,l)
);
}
);
width = 1490;
}
);
unicode = 43;
},
{
glyphname = comma;
layers = (
{
layerId = "FD1F61E9-2C7C-476B-BA00-6F7EA0BDC6A6";
shapes = (
{
closed = 1;
nodes = (
(18,194,o),
(47,242,o),
(108,284,cs),
(147,311,o),
(189,322,o),
(240,322,cs),
(309,322,o),
(356,301,o),
(385,260,c),
(403,237,o),
(412,207,o),
(416,177,c),
(417,171,o),
(417,167,o),
(418,160,c),
(425,-147,o),
(161,-249,o),
(29,-285,c),
(-41,-156,l),
(-6,-146,o),
(30,-124,o),
(68,-86,c),
(77,-75,o),
(87,-66,o),
(96,-56,c),
(105,-42,o),
(114,-26,o),
(124,-7,c),
(96,-5,o),
(69,8,o),
(45,33,c),
(24,51,o),
(18,81,o),
(18,118,cs)
);
}
);
width = 512;
},
{
layerId = "FB2915BF-3A78-4B7A-831F-149E9877B6A1";
shapes = (
{
closed = 1;
nodes = (
(36,158,o),
(60,200,o),
(107,235,cs),
(142,262,o),
(184,275,o),
(231,275,cs),
(290,275,o),
(332,256,o),
(358,219,cs),
(374,197,o),
(383,168,o),
(385,136,c),
(386,130,o),
(386,124,o),
(386,117,cs),
(386,-148,o),
(158,-252,o),
(28,-287,c),
(-28,-174,l),
(9,-163,o),
(45,-142,o),
(79,-109,cs),
(88,-100,o),
(97,-91,o),
(105,-82,cs),
(124,-59,o),
(137,-34,o),
(146,-8,c),
(114,-11,o),
(86,-2,o),
(62,20,cs),
(43,36,o),
(36,64,o),
(36,97,cs)
);
}
);
width = 512;
},
{
layerId = "14E32880-54EF-4278-81AC-E5D4AB6F58D5";
shapes = (
{
closed = 1;
nodes = (
(63,104,o),
(79,137,o),
(105,161,cs),
(134,189,o),
(176,205,o),
(217,205,cs),
(262,205,o),
(296,188,o),
(317,158,cs),
(331,137,o),
(339,109,o),
(339,75,cs),
(339,68,o),
(339,60,o),
(338,53,c),
(327,-150,o),
(153,-256,o),
(27,-290,c),
(-9,-201,l),
(32,-188,o),
(67,-169,o),
(96,-144,cs),
(104,-137,o),
(112,-129,o),
(119,-121,cs),
(152,-84,o),
(172,-46,o),
(179,-9,c),
(141,-20,o),
(111,-17,o),
(88,1,cs),
(71,14,o),
(63,38,o),
(63,65,cs)
);
}
);
width = 512;
},
{
layerId = "204F9CB2-94FB-4069-BE45-7F82EA7D2F19";
shapes = (
{
closed = 1;
nodes = (
(77,77,o),
(89,105,o),
(104,124,c),
(130,152,o),
(172,170,o),
(210,170,cs),
(248,170,o),
(278,154,o),
(296,127,cs),
(309,107,o),
(317,79,o),
(316,44,c),
(315,37,o),
(315,28,o),
(314,21,c),
(297,-151,o),
(150,-258,o),
(26,-292,c),
(1,-215,l),
(44,-201,o),
(78,-183,o),
(105,-162,cs),
(112,-156,o),
(120,-148,o),
(126,-141,cs),
(166,-97,o),
(190,-52,o),
(196,-10,c),
(155,-25,o),
(124,-25,o),
(101,-9,cs),
(85,3,o),
(77,25,o),
(77,49,cs)
);
}
);
width = 512;
}
);
unicode = 44;
},
{
glyphname = hyphen;
layers = (
{
layerId = "FD1F61E9-2C7C-476B-BA00-6F7EA0BDC6A6";
shapes = (
{
closed = 1;
nodes = (
(160,668,l),
(579,668,l),
(579,445,l),
(160,445,l)
);
}
);
width = 682;
},
{
layerId = "FB2915BF-3A78-4B7A-831F-149E9877B6A1";
shapes = (
{
closed = 1;
nodes = (
(137,658,l),
(595,658,l),
(595,458,l),
(137,458,l)
);
}
);
width = 682;
},
{
layerId = "14E32880-54EF-4278-81AC-E5D4AB6F58D5";
shapes = (
{
closed = 1;
nodes = (
(103,643,l),
(619,643,l),
(619,477,l),
(103,477,l)
);
}
);
width = 682;
},
{
layerId = "204F9CB2-94FB-4069-BE45-7F82EA7D2F19";
shapes = (
{
closed = 1;
nodes = (
(86,635,l),
(631,635,l),
(631,487,l),
(86,487,l)
);
}
);
width = 682;
}
);
unicode = (45,173);
},
{
glyphname = period;
layers = (
{
layerId = "FD1F61E9-2C7C-476B-BA00-6F7EA0BDC6A6";
shapes = (
{
closed = 1;
nodes = (
(-6,262,o),
(74,328,o),
(188,328,cs),
(310,328,o),
(386,262,o),
(386,153,c),
(389,37,o),
(294,-21,o),
(188,-21,cs),
(83,-21,o),
(-6,43,o),
(-6,153,cs)
);
}
);
width = 512;
},
{
layerId = "FB2915BF-3A78-4B7A-831F-149E9877B6A1";
shapes = (
{
closed = 1;
nodes = (
(23,227,o),
(91,285,o),
(191,285,cs),
(295,285,o),
(362,227,o),
(362,131,c),
(364,32,o),
(283,-22,o),
(191,-22,cs),
(99,-22,o),
(23,35,o),
(23,131,cs)
);
}
);
width = 512;
},
{
layerId = "14E32880-54EF-4278-81AC-E5D4AB6F58D5";
shapes = (
{
closed = 1;
nodes = (
(66,174,o),
(116,220,o),
(196,220,cs),
(273,220,o),
(326,174,o),
(326,98,cs),
(326,25,o),
(267,-24,o),
(196,-24,cs),
(123,-24,o),
(66,23,o),
(66,98,cs)
);
}
);
width = 512;
},
{
layerId = "204F9CB2-94FB-4069-BE45-7F82EA7D2F19";
shapes = (
{
closed = 1;
nodes = (
(88,147,o),
(129,187,o),
(199,187,cs),
(262,187,o),
(308,147,o),
(308,81,c),
(307,21,o),
(259,-25,o),
(199,-25,cs),
(135,-25,o),
(88,17,o),
(88,81,cs)
);
}
);
width = 512;
}
);
unicode = 46;
},
{
glyphname = slash;
layers = (
{
layerId = "FD1F61E9-2C7C-476B-BA00-6F7EA0BDC6A6";
shapes = (
{
closed = 1;
nodes = (
(534,1376,l),
(808,1311,l),
(72,-383,l),
(-211,-319,l)
);
}
);
width = 569;
},
{
layerId = "FB2915BF-3A78-4B7A-831F-149E9877B6A1";
shapes = (
{
closed = 1;
nodes = (
(559,1377,l),
(781,1312,l),
(31,-338,l),
(-196,-272,l)
);
}
);
width = 569;
},
{
layerId = "14E32880-54EF-4278-81AC-E5D4AB6F58D5";
shapes = (
{
closed = 1;
nodes = (
(597,1379,l),
(741,1313,l),
(-31,-271,l),
(-173,-201,l)
);
}
);
width = 569;
},
{
layerId = "204F9CB2-94FB-4069-BE45-7F82EA7D2F19";
shapes = (
{
closed = 1;
nodes = (
(680,1380,l),
(784,1314,l),
(-123,-237,l),
(-222,-165,l)
);
}
);
width = 569;
}
);
unicode = 47;
},
{
glyphname = zero;
layers = (
{
layerId = "FD1F61E9-2C7C-476B-BA00-6F7EA0BDC6A6";
shapes = (
{
closed = 1;
nodes = (
(84,683,o),
(154,925,o),
(219,1050,c),
(325,1248,o),
(470,1383,o),
(687,1383,cs),
(887,1383,o),
(1022,1235,o),
(1022,892,cs),
(1022,663,o),
(973,440,o),
(867,250,c),
(770,88,o),
(620,-29,o),
(422,-29,cs),
(212,-29,o),
(84,123,o),
(84,457,cs)
);
},
{
closed = 1;
nodes = (
(402,294,o),
(436,243,o),
(476,243,cs),
(558,243,o),
(586,349,o),
(630,477,cs),
(668,589,o),
(700,729,o),
(700,936,cs),
(700,1054,o),
(676,1110,o),
(637,1110,cs),
(563,1110,o),
(512,1018,o),
(456,826,c),
(425,714,o),
(402,522,o),
(402,410,cs)
);
}
);
width = 1024;
},
{
layerId = "FB2915BF-3A78-4B7A-831F-149E9877B6A1";
shapes = (
{
closed = 1;
nodes = (
(103,672,o),
(169,926,o),
(254,1077,cs),
(353,1253,o),
(493,1382,o),
(694,1382,cs),
(900,1382,o),
(1021,1216,o),
(1021,916,cs),
(1021,676,o),
(970,452,o),
(878,280,cs),
(777,93,o),
(627,-28,o),
(430,-28,cs),
(224,-28,o),
(103,138,o),
(103,438,cs)
);
},
{
closed = 1;
nodes = (
(370,279,o),
(405,198,o),
(473,198,cs),
(550,198,o),
(609,272,o),
(672,444,cs),
(714,561,o),
(753,723,o),
(753,939,cs),
(753,1074,o),
(725,1156,o),
(650,1156,cs),
(566,1156,o),
(501,1068,o),
(440,881,cs),
(403,763,o),
(370,570,o),
(370,415,cs)
);
}
);
width = 1024;
},
{
layerId = "14E32880-54EF-4278-81AC-E5D4AB6F58D5";
shapes = (
{
closed = 1;
nodes = (
(132,656,o),
(192,927,o),
(307,1117,cs),
(395,1261,o),
(528,1381,o),
(704,1381,cs),
(920,1381,o),
(1020,1187,o),
(1020,952,cs),
(1020,696,o),
(965,470,o),
(895,325,cs),
(787,101,o),
(637,-26,o),
(442,-26,cs),
(242,-26,o),
(132,160,o),
(132,410,cs)
);
},
{
closed = 1;
nodes = (
(322,256,o),
(359,130,o),
(468,130,cs),
(538,130,o),
(644,157,o),
(735,394,cs),
(783,519,o),
(833,714,o),
(833,944,cs),
(833,1104,o),
(798,1225,o),
(669,1225,cs),
(570,1225,o),
(484,1143,o),
(416,963,cs),
(370,837,o),
(322,642,o),
(322,423,cs)
);
}
);
width = 1024;
},
{
layerId = "204F9CB2-94FB-4069-BE45-7F82EA7D2F19";
shapes = (
{
closed = 1;
nodes = (
(147,648,o),
(204,928,o),
(334,1137,c),
(416,1265,o),
(546,1380,o),
(709,1380,cs),
(930,1380,o),
(1019,1172,o),
(1019,970,cs),
(1019,706,o),
(962,479,o),
(904,348,c),
(792,105,o),
(642,-25,o),
(448,-25,cs),
(251,-25,o),
(147,171,o),
(147,396,cs)
);
},
{
closed = 1;
nodes = (
(298,244,o),
(336,96,o),
(465,96,cs),
(532,96,o),
(662,99,o),
(767,369,cs),
(818,498,o),
(873,709,o),
(873,947,cs),
(873,1119,o),
(835,1260,o),
(679,1260,cs),
(572,1260,o),
(475,1181,o),
(404,1004,c),
(353,874,o),
(298,678,o),
(298,427,cs)
);
}
);
width = 1024;
}
);
unicode = 48;
},
{
glyphname = one;
layers = (
{
layerId = "FD1F61E9-2C7C-476B-BA00-6F7EA0BDC6A6";
shapes = (
{
closed = 1;
nodes = (
(149,270,l),
(354,270,l),
(458,861,l),
(488,1004,l),
(380,905,l),
(304,863,l),
(216,1052,l),
(672,1379,l),
(871,1379,l),
(670,270,l),
(867,270,l),
(817,0,l),
(99,0,l)
);
}
);
width = 1024;
},
{
layerId = "FB2915BF-3A78-4B7A-831F-149E9877B6A1";
shapes = (
{
closed = 1;
nodes = (
(142,227,l),
(383,227,l),
(522,942,l),
(559,1075,l),
(452,977,l),
(301,890,l),
(225,1049,l),
(714,1379,l),
(868,1379,l),
(644,227,l),
(878,227,l),
(834,0,l),
(98,0,l)
);
}
);
width = 1024;
},
{
layerId = "14E32880-54EF-4278-81AC-E5D4AB6F58D5";
shapes = (
{
closed = 1;
nodes = (
(132,163,l),
(427,163,l),
(618,1063,l),
(665,1181,l),
(560,1085,l),
(297,930,l),
(239,1044,l),
(777,1379,l),
(863,1379,l),
(605,163,l),
(895,163,l),
(860,0,l),
(97,0,l)
);
}
);
width = 1024;
},
{
layerId = "204F9CB2-94FB-4069-BE45-7F82EA7D2F19";
shapes = (
{
closed = 1;
nodes = (
(127,131,l),
(449,131,l),
(666,1124,l),
(718,1234,l),
(614,1139,l),
(295,950,l),
(246,1041,l),
(809,1379,l),
(860,1379,l),
(585,131,l),
(904,131,l),
(873,0,l),
(96,0,l)
);
}
);
width = 1024;
}
);
unicode = 49;
},
{
glyphname = two;
layers = (
{
layerId = "FD1F61E9-2C7C-476B-BA00-6F7EA0BDC6A6";
shapes = (
{
closed = 1;
nodes = (
(987,759,o),
(709,472,o),
(546,320,c),
(421,241,l),
(419,234,l),
(581,270,l),
(842,270,l),
(792,0,l),
(-28,0,l),
(5,178,l),
(441,487,o),
(628,763,o),
(628,963,cs),
(628,1037,o),
(611,1091,o),
(525,1091,cs),
(443,1091,o),
(341,1023,o),
(313,995,c),
(296,1041,o),
(239,1187,o),
(222,1232,c),
(369,1328,o),
(496,1383,o),
(652,1383,cs),
(849,1383,o),
(987,1255,o),
(987,1060,cs)
);
}
);
width = 1024;
},
{
layerId = "FB2915BF-3A78-4B7A-831F-149E9877B6A1";
shapes = (
{
closed = 1;
nodes = (
(977,774,o),
(714,486,o),
(497,285,c),
(373,204,l),
(371,197,l),
(526,227,l),
(857,227,l),
(813,0,l),
(8,0,l),
(34,135,l),
(391,396,o),
(682,744,o),
(682,991,cs),
(682,1082,o),
(638,1142,o),
(543,1142,cs),
(450,1142,o),
(364,1082,o),
(313,1042,c),
(299,1079,o),
(252,1200,o),
(238,1236,c),
(372,1330,o),
(490,1382,o),
(649,1382,cs),
(838,1382,o),
(977,1262,o),
(977,1067,cs)
);
}
);
width = 1024;
},
{
layerId = "14E32880-54EF-4278-81AC-E5D4AB6F58D5";
shapes = (
{
closed = 1;
nodes = (
(962,797,o),
(721,507,o),
(423,233,c),
(301,149,l),
(299,142,l),
(443,163,l),
(880,163,l),
(845,0,l),
(62,0,l),
(77,70,l),
(316,259,o),
(763,716,o),
(763,1033,cs),
(763,1149,o),
(678,1218,o),
(570,1218,cs),
(461,1218,o),
(399,1171,o),
(313,1112,c),
(304,1136,o),
(271,1219,o),
(262,1242,c),
(377,1333,o),
(481,1381,o),
(645,1381,cs),
(821,1381,o),
(962,1272,o),
(962,1077,cs)
);
}
);
width = 1024;
},
{
layerId = "204F9CB2-94FB-4069-BE45-7F82EA7D2F19";
shapes = (
{
closed = 1;
nodes = (
(954,809,o),
(760,518,o),
(421,207,c),
(300,121,l),
(298,114,l),
(436,131,l),
(892,131,l),
(861,0,l),
(89,0,l),
(99,37,l),
(278,190,o),
(804,702,o),
(804,1054,cs),
(804,1183,o),
(698,1256,o),
(584,1256,cs),
(467,1256,o),
(417,1216,o),
(313,1147,c),
(307,1165,o),
(281,1229,o),
(274,1245,c),
(380,1335,o),
(476,1380,o),
(643,1380,cs),
(812,1380,o),
(954,1277,o),
(954,1082,cs)
);
}
);
width = 1024;
}
);
unicode = 50;
},
{
glyphname = three;
layers = (
{
layerId = "FD1F61E9-2C7C-476B-BA00-6F7EA0BDC6A6";
shapes = (
{
closed = 1;
nodes = (
(537,245,o),
(596,365,o),
(596,452,cs),
(596,538,o),
(561,587,o),
(396,587,cs),
(266,587,l),
(303,779,l),
(599,1072,l),
(666,1105,l),
(648,1095,l),
(581,1093,l),
(541,1086,l),
(284,1086,l),
(334,1356,l),
(1055,1356,l),
(1018,1163,l),
(730,858,l),
(637,822,l),
(624,814,l),
(742,823,l),
(690,816,l),
(804,800,o),
(930,695,o),
(930,504,cs),
(930,141,o),
(644,-28,o),
(369,-28,cs),
(252,-28,o),
(102,-6,o),
(4,39,c),
(145,306,l),
(154,295,o),
(234,245,o),
(343,245,cs)
);
}
);
width = 1024;
},
{
layerId = "FB2915BF-3A78-4B7A-831F-149E9877B6A1";
shapes = (
{
closed = 1;
nodes = (
(557,200,o),
(645,325,o),
(645,447,cs),
(645,548,o),
(592,612,o),
(421,612,cs),
(288,612,l),
(316,756,l),
(605,1057,l),
(677,1113,l),
(713,1141,l),
(614,1133,l),
(565,1129,l),
(284,1129,l),
(328,1356,l),
(1050,1356,l),
(1021,1210,l),
(721,884,l),
(633,827,l),
(589,798,l),
(659,801,l),
(659,801,l),
(787,785,o),
(922,685,o),
(922,497,cs),
(922,150,o),
(647,-27,o),
(354,-27,cs),
(234,-27,o),
(103,-5,o),
(15,35,c),
(133,259,l),
(163,240,o),
(243,200,o),
(354,200,cs)
);
}
);
width = 1024;
},
{
layerId = "14E32880-54EF-4278-81AC-E5D4AB6F58D5";
shapes = (
{
closed = 1;
nodes = (
(587,133,o),
(719,265,o),
(719,440,cs),
(719,563,o),
(638,649,o),
(458,649,cs),
(321,649,l),
(336,722,l),
(614,1035,l),
(693,1125,l),
(811,1210,l),
(664,1193,l),
(601,1193,l),
(284,1193,l),
(319,1356,l),
(1042,1356,l),
(1026,1280,l),
(707,923,l),
(627,834,l),
(536,774,l),
(535,768,l),
(612,778,l),
(761,762,o),
(910,670,o),
(910,486,cs),
(910,163,o),
(651,-26,o),
(332,-26,cs),
(207,-26,o),
(105,-4,o),
(32,29,c),
(115,188,l),
(176,157,o),
(257,133,o),
(370,133,cs)
);
}
);
width = 1024;
},
{
layerId = "204F9CB2-94FB-4069-BE45-7F82EA7D2F19";
shapes = (
{
closed = 1;
nodes = (
(602,99,o),
(756,235,o),
(756,436,cs),
(756,571,o),
(661,668,o),
(477,668,cs),
(338,668,l),
(346,705,l),
(619,1024,l),
(701,1131,l),
(860,1245,l),
(689,1223,l),
(619,1225,l),
(284,1225,l),
(314,1356,l),
(1038,1356,l),
(1029,1315,l),
(700,943,l),
(624,838,l),
(509,762,l),
(473,751,l),
(588,766,l),
(748,750,o),
(904,662,o),
(904,480,cs),
(904,170,o),
(653,-25,o),
(321,-25,cs),
(193,-25,o),
(106,-3,o),
(41,26,c),
(106,152,l),
(183,115,o),
(264,99,o),
(378,99,cs)
);
}
);
width = 1024;
}
);
unicode = 51;
},
{
glyphname = four;
layers = (
{
layerId = "FD1F61E9-2C7C-476B-BA00-6F7EA0BDC6A6";
shapes = (
{
closed = 1;
nodes = (
(993,351,l),
(845,351,l),
(781,0,l),
(475,0,l),
(538,351,l),
(35,351,l),
(72,548,l),
(741,1358,l),
(1029,1358,l),
(892,600,l),
(1040,600,l)
);
},
{
closed = 1;
nodes = (
(619,815,l),
(644,957,l),
(503,746,l),
(569,829,l),
(457,670,l),
(390,599,l),
(492,600,l),
(585,600,l)
);
}
);
width = 1024;
},
{
layerId = "FB2915BF-3A78-4B7A-831F-149E9877B6A1";
shapes = (
{
closed = 1;
nodes = (
(988,374,l),
(828,374,l),
(755,0,l),
(500,0,l),
(573,374,l),
(46,374,l),
(75,525,l),
(796,1365,l),
(1021,1365,l),
(869,584,l),
(1029,584,l)
);
},
{
closed = 1;
nodes = (
(668,863,l),
(703,1010,l),
(616,883,l),
(616,883,l),
(430,656,l),
(349,577,l),
(470,584,l),
(614,584,l)
);
}
);
width = 1024;
},
{
layerId = "14E32880-54EF-4278-81AC-E5D4AB6F58D5";
shapes = (
{
closed = 1;
nodes = (
(981,408,l),
(803,408,l),
(716,0,l),
(538,0,l),
(625,408,l),
(62,408,l),
(79,490,l),
(879,1375,l),
(1009,1375,l),
(835,560,l),
(1013,560,l)
);
},
{
closed = 1;
nodes = (
(741,935,l),
(792,1089,l),
(785,1089,l),
(687,964,l),
(390,635,l),
(288,544,l),
(437,560,l),
(657,560,l)
);
}
);
width = 1024;
},
{
layerId = "204F9CB2-94FB-4069-BE45-7F82EA7D2F19";
shapes = (
{
closed = 1;
nodes = (
(977,425,l),
(790,425,l),
(696,0,l),
(557,0,l),
(651,425,l),
(70,425,l),
(81,472,l),
(921,1380,l),
(1003,1380,l),
(818,548,l),
(1005,548,l)
);
},
{
closed = 1;
nodes = (
(778,971,l),
(837,1129,l),
(870,1193,l),
(723,1005,l),
(370,624,l),
(257,527,l),
(420,548,l),
(679,548,l)
);
}
);
width = 1024;
}
);
unicode = 52;
},
{
glyphname = five;
layers = (
{
layerId = "FD1F61E9-2C7C-476B-BA00-6F7EA0BDC6A6";
shapes = (
{
closed = 1;
nodes = (
(505,264,o),
(560,307,o),
(579,350,c),
(590,381,o),
(597,410,o),
(597,454,cs),
(597,572,o),
(506,606,o),
(458,619,c),
(436,621,o),
(414,621,o),
(389,620,c),
(376,618,o),
(364,617,o),
(349,617,c),
(311,616,o),
(272,614,o),
(232,611,c),
(369,1356,l),
(991,1356,l),
(934,1050,l),
(592,1050,l),
(563,882,l),
(583,882,l),
(592,882,o),
(602,885,o),
(613,887,c),
(783,903,o),
(935,742,o),
(932,511,cs),
(930,346,o),
(878,221,o),
(790,122,c),
(779,108,o),
(764,96,o),
(750,84,cs),
(659,6,o),
(529,-36,o),
(349,-29,cs),
(321,-28,o),
(295,-26,o),
(271,-23,c),
(186,-9,o),
(123,6,o),
(49,38,c),
(190,312,l),
(225,294,o),
(284,264,o),
(404,264,cs)
);
}
);
width = 1024;
},
{
layerId = "FB2915BF-3A78-4B7A-831F-149E9877B6A1";
shapes = (
{
closed = 1;
nodes = (
(468,213,o),
(545,248,o),
(591,304,cs),
(626,347,o),
(644,400,o),
(644,460,cs),
(644,588,o),
(561,637,o),
(455,645,c),
(433,646,o),
(411,646,o),
(388,645,cs),
(372,644,o),
(357,643,o),
(341,642,cs),
(310,641,o),
(279,639,o),
(248,637,c),
(388,1356,l),
(1002,1356,l),
(953,1104,l),
(575,1104,l),
(528,863,l),
(573,865,l),
(588,865,o),
(603,866,o),
(618,866,cs),
(790,866,o),
(921,728,o),
(921,520,cs),
(921,367,o),
(871,241,o),
(783,142,cs),
(771,128,o),
(757,115,o),
(743,103,cs),
(645,17,o),
(510,-27,o),
(342,-27,cs),
(316,-27,o),
(292,-26,o),
(269,-24,cs),
(177,-16,o),
(106,7,o),
(48,33,c),
(166,259,l),
(197,245,o),
(255,213,o),
(365,213,cs)
);
}
);
width = 1024;
},
{
layerId = "14E32880-54EF-4278-81AC-E5D4AB6F58D5";
shapes = (
{
closed = 1;
nodes = (
(413,137,o),
(523,160,o),
(609,235,cs),
(680,296,o),
(714,385,o),
(714,469,cs),
(714,612,o),
(643,684,o),
(450,684,cs),
(429,684,o),
(407,684,o),
(387,683,c),
(366,683,o),
(347,682,o),
(329,680,c),
(309,679,o),
(290,677,o),
(272,676,c),
(416,1356,l),
(1018,1356,l),
(982,1185,l),
(550,1185,l),
(475,835,l),
(558,839,l),
(582,839,o),
(605,837,o),
(626,834,cs),
(800,810,o),
(900,707,o),
(904,534,cs),
(908,398,o),
(860,271,o),
(772,172,cs),
(759,158,o),
(746,144,o),
(732,131,cs),
(624,33,o),
(482,-14,o),
(331,-24,cs),
(309,-25,o),
(288,-26,o),
(266,-26,cs),
(163,-26,o),
(80,8,o),
(47,25,c),
(130,180,l),
(155,172,o),
(212,137,o),
(306,137,cs)
);
}
);
width = 1024;
},
{
layerId = "204F9CB2-94FB-4069-BE45-7F82EA7D2F19";
shapes = (
{
closed = 1;
nodes = (
(385,99,o),
(512,116,o),
(618,200,cs),
(707,270,o),
(749,377,o),
(749,474,cs),
(749,624,o),
(684,708,o),
(447,704,c),
(427,703,o),
(405,703,o),
(386,702,c),
(363,703,o),
(342,702,o),
(323,699,c),
(308,698,o),
(296,696,o),
(284,696,c),
(430,1356,l),
(1026,1356,l),
(997,1226,l),
(537,1226,l),
(448,821,l),
(550,826,l),
(579,826,o),
(606,822,o),
(630,818,c),
(805,782,o),
(889,696,o),
(895,541,c),
(901,414,o),
(854,286,o),
(766,187,cs),
(753,173,o),
(740,159,o),
(726,145,c),
(613,41,o),
(468,-7,o),
(325,-22,cs),
(305,-24,o),
(286,-26,o),
(264,-27,cs),
(156,-31,o),
(67,9,o),
(46,21,c),
(112,140,l),
(134,135,o),
(190,99,o),
(276,99,cs)
);
}
);
width = 1024;
}
);
unicode = 53;
},
{
glyphname = six;
layers = (
{
layerId = "FD1F61E9-2C7C-476B-BA00-6F7EA0BDC6A6";
shapes = (
{
closed = 1;
nodes = (
(941,252,o),
(764,-28,o),
(409,-28,cs),
(232,-28,o),
(75,114,o),
(75,373,cs),
(75,932,o),
(505,1315,o),
(1001,1383,c),
(1022,1131,l),
(715,1065,o),
(548,960,o),
(449,752,c),
(488,786,o),
(594,861,o),
(679,861,cs),
(893,861,o),
(941,705,o),
(941,538,cs)
);
},
{
closed = 1;
nodes = (
(613,564,o),
(573,586,o),
(534,586,cs),
(472,586,o),
(393,495,o),
(412,509,c),
(404,485,o),
(385,412,o),
(385,386,cs),
(385,305,o),
(413,247,o),
(472,247,cs),
(570,247,o),
(613,375,o),
(613,463,cs)
);
}
);
width = 1024;
},
{
layerId = "FB2915BF-3A78-4B7A-831F-149E9877B6A1";
shapes = (
{
closed = 1;
nodes = (
(950,239,o),
(757,-27,o),
(430,-27,cs),
(239,-27,o),
(93,121,o),
(93,369,cs),
(93,903,o),
(505,1314,o),
(1000,1382,c),
(1015,1172,l),
(692,1108,o),
(507,947,o),
(416,721,c),
(459,766,o),
(566,841,o),
(666,841,cs),
(876,841,o),
(950,688,o),
(950,516,cs)
);
},
{
closed = 1;
nodes = (
(678,563,o),
(636,614,o),
(551,614,cs),
(470,614,o),
(396,540,o),
(379,510,c),
(369,482,o),
(352,417,o),
(352,379,cs),
(352,286,o),
(385,200,o),
(478,200,cs),
(609,200,o),
(678,345,o),
(678,462,cs)
);
}
);
width = 1024;
},
{
layerId = "14E32880-54EF-4278-81AC-E5D4AB6F58D5";
shapes = (
{
closed = 1;
nodes = (
(964,220,o),
(746,-26,o),
(462,-26,cs),
(250,-26,o),
(120,132,o),
(120,363,cs),
(120,860,o),
(505,1313,o),
(999,1381,c),
(1005,1234,l),
(658,1173,o),
(446,928,o),
(366,674,c),
(415,736,o),
(524,811,o),
(647,811,cs),
(850,811,o),
(964,663,o),
(964,483,cs)
);
},
{
closed = 1;
nodes = (
(775,561,o),
(730,656,o),
(577,656,cs),
(467,656,o),
(401,608,o),
(329,512,c),
(317,477,o),
(302,424,o),
(302,368,cs),
(302,257,o),
(343,130,o),
(487,130,cs),
(668,130,o),
(775,300,o),
(775,460,cs)
);
}
);
width = 1024;
},
{
layerId = "204F9CB2-94FB-4069-BE45-7F82EA7D2F19";
shapes = (
{
closed = 1;
nodes = (
(971,210,o),
(740,-25,o),
(478,-25,cs),
(256,-25,o),
(134,138,o),
(134,360,cs),
(134,838,o),
(505,1312,o),
(998,1380,c),
(1000,1265,l),
(641,1206,o),
(415,918,o),
(341,650,c),
(393,721,o),
(503,796,o),
(637,796,cs),
(837,796,o),
(971,650,o),
(971,466,cs)
);
},
{
closed = 1;
nodes = (
(824,560,o),
(777,677,o),
(590,677,cs),
(465,677,o),
(404,642,o),
(304,513,c),
(291,474,o),
(277,428,o),
(277,362,cs),
(277,242,o),
(322,95,o),
(492,95,cs),
(698,95,o),
(824,277,o),
(824,459,cs)
);
}
);
width = 1024;
}
);
unicode = 54;
},
{
glyphname = seven;
layers = (
{
layerId = "FD1F61E9-2C7C-476B-BA00-6F7EA0BDC6A6";
shapes = (
{
closed = 1;
nodes = (
(77,0,l),
(568,882,l),
(684,1047,l),
(521,1043,l),
(264,1043,l),
(324,1356,l),
(1128,1356,l),
(1111,1267,l),
(396,0,l)
);
}
);
width = 1024;
},
{
layerId = "FB2915BF-3A78-4B7A-831F-149E9877B6A1";
shapes = (
{
closed = 1;
nodes = (
(91,0,l),
(667,973,l),
(780,1110,l),
(630,1100,l),
(259,1100,l),
(309,1356,l),
(1131,1356,l),
(1116,1280,l),
(357,0,l)
);
}
);
width = 1024;
},
{
layerId = "14E32880-54EF-4278-81AC-E5D4AB6F58D5";
shapes = (
{
closed = 1;
nodes = (
(112,0,l),
(816,1110,l),
(924,1205,l),
(794,1185,l),
(251,1185,l),
(287,1356,l),
(1136,1356,l),
(1124,1299,l),
(298,0,l)
);
}
);
width = 1024;
},
{
layerId = "204F9CB2-94FB-4069-BE45-7F82EA7D2F19";
shapes = (
{
closed = 1;
nodes = (
(123,0,l),
(891,1179,l),
(996,1253,l),
(877,1228,l),
(247,1228,l),
(276,1356,l),
(1139,1356,l),
(1128,1309,l),
(268,0,l)
);
}
);
width = 1024;
}
);
unicode = 55;
},
{
glyphname = eight;
layers = (
{
layerId = "FD1F61E9-2C7C-476B-BA00-6F7EA0BDC6A6";
shapes = (
{
closed = 1;
nodes = (
(43,520,o),
(208,635,o),
(309,680,c),
(248,746,o),
(210,832,o),
(210,952,cs),
(210,1076,o),
(254,1196,o),
(352,1279,c),
(427,1341,o),
(537,1383,o),
(692,1383,cs),
(836,1383,o),
(929,1336,o),
(986,1261,c),
(1019,1211,o),
(1034,1150,o),
(1034,1084,cs),
(1034,915,o),
(989,805,o),
(824,726,c),
(944,633,o),
(957,539,o),
(957,432,cs),
(957,159,o),
(731,-28,o),
(414,-28,cs),
(276,-28,o),
(190,6,o),
(126,71,cs),
(71,125,o),
(43,206,o),
(43,302,cs)
);
},
{
closed = 1;
nodes = (
(635,490,o),
(574,535,o),
(484,582,c),
(422,555,o),
(358,464,o),
(358,364,cs),
(358,320,o),
(370,291,o),
(389,274,cs),
(410,254,o),
(442,247,o),
(477,247,cs),
(536,247,o),
(580,265,o),
(605,293,c),
(626,319,o),
(635,357,o),
(635,402,cs)
);
},
{
closed = 1;
nodes = (
(521,896,o),
(577,839,o),
(659,805,c),
(716,863,o),
(723,947,o),
(723,1001,cs),
(723,1067,o),
(704,1110,o),
(632,1110,cs),
(512,1110,o),
(521,1008,o),
(521,971,cs)
);
}
);
width = 1024;
},
{
layerId = "FB2915BF-3A78-4B7A-831F-149E9877B6A1";
shapes = (
{
closed = 1;
nodes = (
(56,502,o),
(207,632,o),
(359,691,c),
(290,750,o),
(229,841,o),
(229,966,cs),
(229,1085,o),
(275,1196,o),
(367,1274,cs),
(446,1340,o),
(558,1382,o),
(703,1382,cs),
(829,1382,o),
(919,1342,o),
(975,1278,cs),
(1019,1227,o),
(1041,1161,o),
(1041,1089,cs),
(1041,914,o),
(960,797,o),
(793,717,c),
(901,638,o),
(948,546,o),
(948,427,cs),
(948,166,o),
(743,-27,o),
(426,-27,cs),
(301,-27,o),
(208,9,o),
(147,68,cs),
(86,126,o),
(56,207,o),
(56,297,cs)
);
},
{
closed = 1;
nodes = (
(682,485,o),
(605,550,o),
(503,604,c),
(411,562,o),
(318,469,o),
(318,349,cs),
(318,301,o),
(333,263,o),
(360,238,cs),
(387,213,o),
(427,200,o),
(475,200,cs),
(541,200,o),
(593,218,o),
(628,250,cs),
(663,282,o),
(682,329,o),
(682,385,cs)
);
},
{
closed = 1;
nodes = (
(490,896,o),
(558,834,o),
(654,789,c),
(755,864,o),
(780,951,o),
(780,1026,cs),
(780,1106,o),
(740,1156,o),
(655,1156,cs),
(517,1156,o),
(490,1054,o),
(490,988,cs)
);
}
);
width = 1024;
},
{
layerId = "14E32880-54EF-4278-81AC-E5D4AB6F58D5";
shapes = (
{
closed = 1;
nodes = (
(75,475,o),
(206,627,o),
(434,707,c),
(353,756,o),
(258,854,o),
(258,987,cs),
(258,1099,o),
(307,1196,o),
(390,1267,cs),
(474,1339,o),
(590,1381,o),
(719,1381,cs),
(819,1381,o),
(904,1351,o),
(959,1304,cs),
(1019,1251,o),
(1051,1177,o),
(1051,1097,cs),
(1051,912,o),
(916,785,o),
(746,703,c),
(836,645,o),
(935,557,o),
(935,419,cs),
(935,176,o),
(761,-26,o),
(444,-26,cs),
(339,-26,o),
(235,13,o),
(179,64,cs),
(108,127,o),
(75,209,o),
(75,289,cs)
);
},
{
closed = 1;
nodes = (
(752,477,o),
(652,572,o),
(531,637,c),
(394,572,o),
(258,477,o),
(258,327,cs),
(258,272,o),
(277,221,o),
(317,184,cs),
(352,151,o),
(404,130,o),
(472,130,cs),
(549,130,o),
(613,148,o),
(663,185,cs),
(719,226,o),
(752,287,o),
(752,359,cs)
);
},
{
closed = 1;
nodes = (
(443,896,o),
(530,826,o),
(647,765,c),
(813,866,o),
(866,957,o),
(866,1064,cs),
(866,1164,o),
(794,1225,o),
(689,1225,cs),
(525,1225,o),
(443,1123,o),
(443,1014,cs)
);
}
);
width = 1024;
},
{
layerId = "204F9CB2-94FB-4069-BE45-7F82EA7D2F19";
shapes = (
{
closed = 1;
nodes = (
(85,461,o),
(205,624,o),
(472,715,c),
(385,759,o),
(273,861,o),
(273,998,cs),
(273,1106,o),
(323,1196,o),
(402,1263,cs),
(488,1338,o),
(606,1380,o),
(727,1380,cs),
(814,1380,o),
(896,1356,o),
(951,1317,c),
(1019,1263,o),
(1056,1185,o),
(1056,1101,cs),
(1056,911,o),
(894,779,o),
(722,696,c),
(803,649,o),
(928,563,o),
(928,415,cs),
(928,181,o),
(770,-25,o),
(453,-25,cs),
(358,-25,o),
(249,15,o),
(195,62,cs),
(119,128,o),
(85,210,o),
(85,285,cs)
);
},
{
closed = 1;
nodes = (
(787,473,o),
(676,583,o),
(545,654,c),
(385,577,o),
(228,481,o),
(228,316,cs),
(228,257,o),
(249,200,o),
(295,157,cs),
(334,120,o),
(392,95,o),
(470,95,cs),
(553,95,o),
(623,113,o),
(681,152,cs),
(747,198,o),
(787,266,o),
(787,346,cs)
);
},
{
closed = 1;
nodes = (
(419,896,o),
(516,822,o),
(643,753,c),
(842,867,o),
(909,960,o),
(909,1083,cs),
(909,1193,o),
(821,1260,o),
(706,1260,cs),
(529,1260,o),
(419,1158,o),
(419,1027,cs)
);
}
);
width = 1024;
}
);
unicode = 56;
},
{
glyphname = nine;
layers = (
{
layerId = "FD1F61E9-2C7C-476B-BA00-6F7EA0BDC6A6";
shapes = (
{
closed = 1;
nodes = (
(145,1134,o),
(350,1383,o),
(672,1383,cs),
(919,1383,o),
(1004,1206,o),
(1004,951,cs),
(1004,647,o),
(859,412,o),
(748,270,c),
(586,70,o),
(322,-9,o),
(101,-28,c),
(76,220,l),
(379,258,o),
(509,392,o),
(595,566,c),
(554,523,o),
(470,492,o),
(411,492,cs),
(296,492,o),
(145,583,o),
(145,821,cs)
);
},
{
closed = 1;
nodes = (
(465,780,o),
(509,751,o),
(550,751,cs),
(614,751,o),
(657,811,o),
(664,821,c),
(675,856,o),
(685,901,o),
(691,937,c),
(693,944,o),
(693,950,o),
(694,956,c),
(698,1055,o),
(681,1137,o),
(592,1126,c),
(587,1125,o),
(582,1122,o),
(579,1121,cs),
(523,1099,o),
(465,1030,o),
(465,866,cs)
);
}
);
width = 1024;
},
{
layerId = "FB2915BF-3A78-4B7A-831F-149E9877B6A1";
shapes = (
{
closed = 1;
nodes = (
(166,1133,o),
(366,1382,o),
(679,1382,cs),
(918,1382,o),
(1021,1218,o),
(1021,975,cs),
(1021,675,o),
(894,435,o),
(761,278,cs),
(598,86,o),
(349,-6,o),
(115,-27,c),
(97,180,l),
(411,220,o),
(584,387,o),
(672,600,c),
(609,540,o),
(524,512,o),
(445,512,cs),
(309,512,o),
(166,621,o),
(166,845,cs)
);
},
{
closed = 1;
nodes = (
(435,781,o),
(486,728,o),
(557,728,cs),
(650,728,o),
(709,791,o),
(730,815,c),
(741,849,o),
(756,903,o),
(760,954,cs),
(761,963,o),
(761,971,o),
(761,979,cs),
(761,1080,o),
(736,1166,o),
(637,1166,cs),
(629,1166,o),
(621,1165,o),
(613,1164,cs),
(506,1151,o),
(435,1041,o),
(435,885,cs)
);
}
);
width = 1024;
},
{
layerId = "14E32880-54EF-4278-81AC-E5D4AB6F58D5";
shapes = (
{
closed = 1;
nodes = (
(198,1132,o),
(390,1381,o),
(690,1381,cs),
(916,1381,o),
(1047,1236,o),
(1047,1011,cs),
(1047,717,o),
(946,470,o),
(781,290,cs),
(616,110,o),
(389,-2,o),
(136,-26,c),
(129,120,l),
(459,163,o),
(697,380,o),
(787,651,c),
(691,566,o),
(605,542,o),
(496,542,cs),
(328,542,o),
(198,678,o),
(198,881,cs)
);
},
{
closed = 1;
nodes = (
(390,782,o),
(452,693,o),
(568,693,cs),
(704,693,o),
(787,761,o),
(829,806,c),
(840,838,o),
(863,906,o),
(863,979,cs),
(863,991,o),
(863,1003,o),
(862,1014,cs),
(856,1118,o),
(818,1209,o),
(705,1226,cs),
(692,1228,o),
(679,1229,o),
(664,1229,cs),
(480,1229,o),
(390,1058,o),
(390,914,cs)
);
}
);
width = 1024;
},
{
layerId = "204F9CB2-94FB-4069-BE45-7F82EA7D2F19";
shapes = (
{
closed = 1;
nodes = (
(214,1131,o),
(402,1380,o),
(696,1380,cs),
(915,1380,o),
(1060,1245,o),
(1060,1029,cs),
(1060,738,o),
(972,488,o),
(791,296,cs),
(625,122,o),
(409,0,o),
(147,-25,c),
(145,90,l),
(483,134,o),
(754,376,o),
(845,677,c),
(732,579,o),
(646,557,o),
(522,557,cs),
(338,557,o),
(214,707,o),
(214,899,cs)
);
},
{
closed = 1;
nodes = (
(367,783,o),
(435,675,o),
(574,675,cs),
(731,675,o),
(826,746,o),
(879,801,c),
(890,832,o),
(917,908,o),
(915,992,c),
(914,1005,o),
(914,1019,o),
(913,1032,cs),
(904,1137,o),
(859,1231,o),
(739,1256,cs),
(724,1259,o),
(708,1261,o),
(690,1262,cs),
(467,1268,o),
(367,1067,o),
(367,929,cs)
);
}
);
width = 1024;
}
);
unicode = 57;
},
{
glyphname = colon;
layers = (
{
layerId = "FD1F61E9-2C7C-476B-BA00-6F7EA0BDC6A6";
shapes = (
{
closed = 1;
nodes = (
(100,262,o),
(180,328,o),
(294,328,cs),
(416,328,o),
(492,262,o),
(492,153,c),
(495,37,o),
(400,-21,o),
(294,-21,cs),
(189,-21,o),
(100,43,o),
(100,153,cs)
);
},
{
closed = 1;
nodes = (
(204,907,o),
(284,973,o),
(398,973,cs),
(520,973,o),
(596,907,o),
(596,798,c),
(599,682,o),
(504,624,o),
(398,624,cs),
(293,624,o),
(204,688,o),
(204,798,cs)
);
}
);
width = 682;
},
{
layerId = "FB2915BF-3A78-4B7A-831F-149E9877B6A1";
shapes = (
{
alignment = -1;
pos = (100,0);
ref = period;
},
{
alignment = -1;
pos = (226,692);
ref = period;
}
);
width = 682;
},
{
layerId = "14E32880-54EF-4278-81AC-E5D4AB6F58D5";
shapes = (
{
alignment = -1;
pos = (91,0);
ref = period;
},
{
alignment = -1;
pos = (250,763);
ref = period;
}
);
width = 682;
},
{
layerId = "204F9CB2-94FB-4069-BE45-7F82EA7D2F19";
shapes = (
{
closed = 1;
nodes = (
(174,147,o),
(215,187,o),
(285,187,cs),
(348,187,o),
(394,147,o),
(394,81,c),
(393,21,o),
(345,-25,o),
(285,-25,cs),
(221,-25,o),
(174,17,o),
(174,81,cs)
);
},
{
closed = 1;
nodes = (
(350,946,o),
(391,986,o),
(461,986,cs),
(524,986,o),
(570,946,o),
(570,880,c),
(569,820,o),
(521,774,o),
(461,774,cs),
(397,774,o),
(350,816,o),
(350,880,cs)
);
}
);
width = 682;
}
);
unicode = 58;
},
{
glyphname = semicolon;
layers = (
{
layerId = "FD1F61E9-2C7C-476B-BA00-6F7EA0BDC6A6";
shapes = (
{
closed = 1;
nodes = (
(44,-156,l),
(71,-149,o),
(102,-132,o),
(137,-101,cs),
(170,-71,o),
(187,-59,o),
(209,-7,c),
(134,-7,o),
(103,54,o),
(103,118,cs),
(103,242,o),
(207,322,o),
(325,322,cs),
(442,322,o),
(502,254,o),
(502,145,cs),
(502,-152,o),
(243,-250,o),
(114,-285,c)
);
},
{
closed = 1;
nodes = (
(198,904,o),
(278,970,o),
(392,970,cs),
(514,970,o),
(590,904,o),
(590,794,c),
(593,675,o),
(494,621,o),
(392,621,cs),
(292,621,o),
(198,680,o),
(198,794,cs)
);
}
);
width = 682;
},
{
layerId = "FB2915BF-3A78-4B7A-831F-149E9877B6A1";
shapes = (
{
closed = 1;
nodes = (
(55,-174,l),
(92,-163,o),
(128,-142,o),
(162,-109,cs),
(195,-76,o),
(213,-54,o),
(229,-8,c),
(159,-15,o),
(119,30,o),
(119,97,cs),
(119,205,o),
(212,275,o),
(314,275,cs),
(415,275,o),
(469,215,o),
(469,117,cs),
(469,-148,o),
(241,-252,o),
(111,-287,c)
);
},
{
closed = 1;
nodes = (
(247,917,o),
(315,975,o),
(415,975,cs),
(519,975,o),
(586,917,o),
(586,821,c),
(588,722,o),
(507,668,o),
(415,668,cs),
(323,668,o),
(247,725,o),
(247,821,cs)
);
}
);
width = 682;
},
{
layerId = "14E32880-54EF-4278-81AC-E5D4AB6F58D5";
shapes = (
{
closed = 1;
nodes = (
(71,-201,l),
(124,-184,o),
(167,-157,o),
(199,-121,cs),
(232,-84,o),
(252,-46,o),
(259,-9,c),
(196,-27,o),
(143,-6,o),
(143,65,cs),
(143,149,o),
(220,205,o),
(297,205,cs),
(374,205,o),
(419,156,o),
(419,75,cs),
(419,-142,o),
(238,-255,o),
(107,-290,c)
);
},
{
closed = 1;
nodes = (
(320,937,o),
(370,983,o),
(450,983,cs),
(527,983,o),
(580,937,o),
(580,861,cs),
(580,793,o),
(527,739,o),
(450,739,cs),
(370,739,o),
(320,792,o),
(320,861,cs)
);
}
);
width = 682;
},
{
layerId = "204F9CB2-94FB-4069-BE45-7F82EA7D2F19";
shapes = (
{
closed = 1;
nodes = (
(79,-215,l),
(140,-195,o),
(187,-165,o),
(218,-127,cs),
(251,-88,o),
(272,-42,o),
(274,-10,c),
(215,-33,o),
(155,-24,o),
(155,49,cs),
(155,121,o),
(224,170,o),
(288,170,cs),
(353,170,o),
(394,126,o),
(394,54,cs),
(394,-139,o),
(236,-257,o),
(105,-292,c)
);
},
{
closed = 1;
nodes = (
(357,947,o),
(398,987,o),
(468,987,cs),
(531,987,o),
(577,947,o),
(577,881,c),
(576,829,o),
(537,775,o),
(468,775,cs),
(394,775,o),
(357,826,o),
(357,881,cs)
);
}
);
width = 682;
}
);
unicode = (59,894);
},
{
glyphname = less;
layers = (
{
layerId = "FD1F61E9-2C7C-476B-BA00-6F7EA0BDC6A6";
shapes = (
{
closed = 1;
nodes = (
(75,526,l),
(75,716,l),
(902,1172,l),
(1037,950,l),
(590,690,l),
(399,624,l),
(588,567,l),
(1045,311,l),
(914,86,l)
);
}
);
width = 1024;
},
{
layerId = "FB2915BF-3A78-4B7A-831F-149E9877B6A1";
shapes = (
{
closed = 1;
nodes = (
(160,548,l),
(160,691,l),
(981,1148,l),
(1094,959,l),
(628,691,l),
(436,623,l),
(626,564,l),
(1103,300,l),
(993,111,l)
);
}
);
width = 1167;
},
{
layerId = "14E32880-54EF-4278-81AC-E5D4AB6F58D5";
shapes = (
{
closed = 1;
nodes = (
(288,581,l),
(288,654,l),
(1099,1112,l),
(1180,972,l),
(685,693,l),
(491,621,l),
(683,560,l),
(1190,283,l),
(1111,148,l)
);
}
);
width = 1382;
},
{
layerId = "204F9CB2-94FB-4069-BE45-7F82EA7D2F19";
shapes = (
{
closed = 1;
nodes = (
(352,598,l),
(352,635,l),
(1158,1094,l),
(1223,979,l),
(714,694,l),
(519,620,l),
(712,558,l),
(1234,274,l),
(1170,167,l)
);
}
);
width = 1490;
}
);
unicode = 60;
},
{
glyphname = equal;
layers = (
{
layerId = "FD1F61E9-2C7C-476B-BA00-6F7EA0BDC6A6";
shapes = (
{
closed = 1;
nodes = (
(81,995,l),
(1017,995,l),
(1017,715,l),
(81,715,l)
);
},
{
closed = 1;
nodes = (
(81,590,l),
(1017,590,l),
(1017,312,l),
(81,312,l)
);
}
);
width = 1024;
},
{
layerId = "FB2915BF-3A78-4B7A-831F-149E9877B6A1";
shapes = (
{
closed = 1;
nodes = (
(160,957,l),
(1084,957,l),
(1084,724,l),
(160,724,l)
);
},
{
closed = 1;
nodes = (
(160,581,l),
(1084,581,l),
(1084,349,l),
(160,349,l)
);
}
);
width = 1167;
},
{
layerId = "14E32880-54EF-4278-81AC-E5D4AB6F58D5";
shapes = (
{
closed = 1;
nodes = (
(278,900,l),
(1184,900,l),
(1184,738,l),
(278,738,l)
);
},
{
closed = 1;
nodes = (
(278,567,l),
(1184,567,l),
(1184,405,l),
(278,405,l)
);
}
);
width = 1382;
},
{
layerId = "204F9CB2-94FB-4069-BE45-7F82EA7D2F19";
shapes = (
{
closed = 1;
nodes = (
(337,871,l),
(1234,871,l),
(1234,745,l),
(337,745,l)
);
},
{
closed = 1;
nodes = (
(337,560,l),
(1234,560,l),
(1234,433,l),
(337,433,l)
);
}
);
width = 1490;
}
);
unicode = 61;
},
{
glyphname = greater;
layers = (
{
layerId = "FD1F61E9-2C7C-476B-BA00-6F7EA0BDC6A6";
shapes = (
{
closed = 1;
nodes = (
(1096,736,l),
(1096,545,l),
(266,84,l),
(137,313,l),
(584,569,l),
(776,638,l),
(586,694,l),
(126,952,l),
(250,1177,l)
);
}
);
width = 1024;
},
{
layerId = "FB2915BF-3A78-4B7A-831F-149E9877B6A1";
shapes = (
{
closed = 1;
nodes = (
(1123,711,l),
(1123,567,l),
(299,109,l),
(190,302,l),
(657,567,l),
(849,637,l),
(659,695,l),
(180,961,l),
(289,1151,l)
);
}
);
width = 1167;
},
{
layerId = "14E32880-54EF-4278-81AC-E5D4AB6F58D5";
shapes = (
{
closed = 1;
nodes = (
(1163,674,l),
(1163,600,l),
(349,146,l),
(270,285,l),
(766,564,l),
(959,635,l),
(768,697,l),
(261,974,l),
(348,1112,l)
);
}
);
width = 1382;
},
{
layerId = "204F9CB2-94FB-4069-BE45-7F82EA7D2F19";
shapes = (
{
closed = 1;
nodes = (
(1183,655,l),
(1183,617,l),
(374,165,l),
(310,276,l),
(821,562,l),
(1014,634,l),
(823,698,l),
(302,981,l),
(378,1092,l)
);
}
);
width = 1490;
}
);
unicode = 62;
},
{
glyphname = question;
layers = (
{
layerId = "FD1F61E9-2C7C-476B-BA00-6F7EA0BDC6A6";
shapes = (
{
closed = 1;
nodes = (
(309,446,l),
(326,693,o),
(427,791,o),
(524,851,c),
(628,912,o),
(716,943,o),
(703,1056,c),
(702,1047,o),
(701,1037,o),
(701,1027,c),
(701,1059,o),
(681,1110,o),
(581,1110,cs),
(509,1110,o),
(374,1061,o),
(312,1008,c),
(223,1250,l),
(386,1355,o),
(513,1383,o),
(679,1383,cs),
(824,1383,o),
(1056,1332,o),
(1056,1085,cs),
(1056,859,o),
(913,803,o),
(810,743,c),
(799,738,o),
(787,730,o),
(776,725,c),
(687,672,o),
(631,615,o),
(601,446,c)
);
},
{
closed = 1;
nodes = (
(211,262,o),
(291,328,o),
(404,328,cs),
(526,328,o),
(603,262,o),
(603,153,c),
(604,101,o),
(586,61,o),
(550,27,cs),
(514,-6,o),
(465,-21,o),
(404,-21,cs),
(349,-21,o),
(302,-6,o),
(266,28,c),
(229,61,o),
(211,101,o),
(211,153,cs)
);
}
);
width = 1024;
},
{
layerId = "FB2915BF-3A78-4B7A-831F-149E9877B6A1";
shapes = (
{
closed = 1;
nodes = (
(309,410,l),
(330,642,o),
(439,743,o),
(543,815,c),
(647,884,o),
(739,930,o),
(739,1046,c),
(739,1046,o),
(739,1046,o),
(739,1046,c),
(739,1110,o),
(692,1156,o),
(589,1156,cs),
(503,1156,o),
(391,1110,o),
(314,1059,c),
(248,1260,l),
(403,1353,o),
(522,1382,o),
(678,1382,cs),
(851,1382,o),
(1033,1304,o),
(1033,1096,cs),
(1033,885,o),
(904,809,o),
(791,734,cs),
(780,727,o),
(768,719,o),
(757,712,cs),
(658,645,o),
(578,578,o),
(546,410,c)
);
},
{
closed = 1;
nodes = (
(223,227,o),
(291,285,o),
(391,285,cs),
(495,285,o),
(562,227,o),
(562,131,c),
(563,86,o),
(547,50,o),
(516,21,cs),
(485,-8,o),
(443,-22,o),
(391,-22,cs),
(342,-22,o),
(301,-8,o),
(270,21,cs),
(239,50,o),
(223,86,o),
(223,131,cs)
);
}
);
width = 1024;
},
{
layerId = "14E32880-54EF-4278-81AC-E5D4AB6F58D5";
shapes = (
{
closed = 1;
nodes = (
(309,356,l),
(336,566,o),
(457,671,o),
(572,761,cs),
(676,842,o),
(774,910,o),
(793,1031,cs),
(795,1045,o),
(796,1059,o),
(796,1074,cs),
(796,1186,o),
(709,1225,o),
(601,1225,cs),
(494,1225,o),
(416,1183,o),
(317,1135,c),
(286,1275,l),
(428,1350,o),
(535,1381,o),
(676,1381,cs),
(892,1381,o),
(998,1262,o),
(998,1113,cs),
(998,924,o),
(890,818,o),
(763,720,cs),
(751,711,o),
(740,702,o),
(728,693,cs),
(614,605,o),
(498,523,o),
(464,356,c)
);
},
{
closed = 1;
nodes = (
(241,174,o),
(291,220,o),
(371,220,cs),
(448,220,o),
(501,174,o),
(501,98,cs),
(501,64,o),
(488,34,o),
(465,12,cs),
(442,-11,o),
(410,-24,o),
(371,-24,cs),
(331,-24,o),
(299,-11,o),
(276,11,cs),
(254,33,o),
(241,64,o),
(241,98,cs)
);
}
);
width = 1024;
},
{
layerId = "204F9CB2-94FB-4069-BE45-7F82EA7D2F19";
shapes = (
{
closed = 1;
nodes = (
(309,329,l),
(339,528,o),
(466,635,o),
(587,734,cs),
(691,821,o),
(792,900,o),
(820,1023,c),
(823,1044,o),
(825,1066,o),
(825,1088,cs),
(825,1224,o),
(718,1260,o),
(607,1260,cs),
(489,1260,o),
(429,1220,o),
(319,1173,c),
(305,1283,l),
(441,1348,o),
(542,1380,o),
(675,1380,cs),
(913,1380,o),
(980,1241,o),
(980,1122,cs),
(980,944,o),
(883,823,o),
(749,713,cs),
(736,703,o),
(726,693,o),
(713,683,cs),
(592,585,o),
(458,495,o),
(423,329,c)
);
},
{
closed = 1;
nodes = (
(250,147,o),
(291,187,o),
(361,187,cs),
(424,187,o),
(470,147,o),
(470,81,c),
(470,53,o),
(458,26,o),
(439,7,cs),
(420,-13,o),
(393,-25,o),
(361,-25,cs),
(325,-25,o),
(298,-13,o),
(279,6,cs),
(262,24,o),
(250,53,o),
(250,81,cs)
);
}
);
width = 1024;
}
);
unicode = 63;
},
{
glyphname = at;
layers = (
{
layerId = "FD1F61E9-2C7C-476B-BA00-6F7EA0BDC6A6";
shapes = (
{
closed = 1;
nodes = (
(1118,864,l),
(1296,864,l),
(1203,396,l),
(1200,375,o),
(1198,362,o),
(1198,351,cs),
(1198,304,o),
(1223,293,o),
(1256,293,cs),
(1274,293,o),
(1316,341,o),
(1337,411,c),
(1355,464,o),
(1364,541,o),
(1364,621,cs),
(1364,774,o),
(1330,874,o),
(1268,941,c),
(1260,951,o),
(1249,959,o),
(1239,968,cs),
(1162,1038,o),
(1059,1068,o),
(908,1068,cs),
(746,1068,o),
(583,999,o),
(472,874,c),
(334,722,o),
(294,554,o),
(294,401,cs),
(294,247,o),
(348,108,o),
(462,-6,cs),
(547,-92,o),
(677,-143,o),
(858,-143,cs),
(956,-143,o),
(1057,-122,o),
(1134,-92,c),
(1207,-315,l),
(1102,-368,o),
(959,-385,o),
(834,-385,cs),
(615,-385,o),
(425,-333,o),
(291,-206,cs),
(143,-67,o),
(35,125,o),
(35,399,cs),
(35,620,o),
(116,828,o),
(272,1005,c),
(281,1017,o),
(291,1028,o),
(301,1038,cs),
(361,1102,o),
(440,1160,o),
(522,1205,cs),
(643,1271,o),
(779,1310,o),
(905,1310,cs),
(1121,1310,o),
(1282,1258,o),
(1400,1161,cs),
(1413,1151,o),
(1423,1141,o),
(1434,1130,cs),
(1564,1008,o),
(1632,840,o),
(1624,604,c),
(1624,589,o),
(1621,574,o),
(1620,561,c),
(1603,431,o),
(1555,302,o),
(1491,224,cs),
(1481,211,o),
(1470,200,o),
(1459,188,c),
(1372,102,o),
(1263,59,o),
(1158,59,cs),
(1074,59,o),
(966,91,o),
(946,198,c),
(943,212,o),
(941,229,o),
(943,247,c),
(935,247,l),
(855,134,o),
(789,59,o),
(626,59,cs),
(502,59,o),
(414,160,o),
(414,316,c),
(417,601,o),
(596,875,o),
(856,875,cs),
(916,875,o),
(961,865,o),
(1001,846,cs),
(1024,836,o),
(1042,822,o),
(1061,806,c)
);
},
{
closed = 1;
nodes = (
(988,612,l),
(959,631,o),
(931,640,o),
(880,640,cs),
(750,640,o),
(697,504,o),
(697,408,cs),
(697,373,o),
(694,342,o),
(705,324,c),
(714,306,o),
(731,293,o),
(769,293,cs),
(838,293,o),
(910,361,o),
(959,448,c),
(957,455,o),
(957,463,o),
(955,470,c)
);
}
);
width = 1584;
},
{
layerId = "FB2915BF-3A78-4B7A-831F-149E9877B6A1";
shapes = (
{
closed = 1;
nodes = (
(1191,860,l),
(1327,860,l),
(1232,383,ls),
(1227,356,o),
(1223,325,o),
(1223,306,cs),
(1223,253,o),
(1246,235,o),
(1287,235,cs),
(1336,235,o),
(1397,284,o),
(1436,363,cs),
(1464,419,o),
(1485,509,o),
(1485,601,cs),
(1485,763,o),
(1437,875,o),
(1357,954,cs),
(1347,964,o),
(1336,973,o),
(1325,982,cs),
(1233,1058,o),
(1112,1094,o),
(948,1094,cs),
(765,1094,o),
(594,1021,o),
(473,888,cs),
(343,747,o),
(289,569,o),
(289,400,cs),
(289,232,o),
(346,87,o),
(459,-25,cs),
(560,-125,o),
(712,-182,o),
(915,-182,cs),
(1003,-182,o),
(1104,-162,o),
(1181,-131,c),
(1240,-317,l),
(1133,-368,o),
(1011,-383,o),
(890,-383,cs),
(666,-383,o),
(470,-326,o),
(330,-201,cs),
(177,-64,o),
(73,131,o),
(73,400,cs),
(73,629,o),
(162,843,o),
(308,1004,cs),
(318,1016,o),
(329,1027,o),
(340,1038,cs),
(406,1104,o),
(487,1161,o),
(575,1204,cs),
(692,1262,o),
(822,1295,o),
(950,1295,cs),
(1171,1295,o),
(1347,1236,o),
(1475,1129,cs),
(1487,1119,o),
(1498,1109,o),
(1509,1098,cs),
(1631,981,o),
(1699,821,o),
(1699,611,cs),
(1699,595,o),
(1698,579,o),
(1697,564,cs),
(1687,436,o),
(1638,303,o),
(1567,215,cs),
(1557,202,o),
(1546,191,o),
(1535,179,cs),
(1446,89,o),
(1331,40,o),
(1213,40,cs),
(1119,40,o),
(1027,74,o),
(1014,185,cs),
(1012,203,o),
(1012,224,o),
(1015,247,c),
(1008,247,l),
(928,135,o),
(843,40,o),
(683,40,cs),
(560,40,o),
(467,144,o),
(467,301,cs),
(467,583,o),
(668,871,o),
(929,871,cs),
(984,871,o),
(1026,862,o),
(1062,845,cs),
(1087,834,o),
(1109,819,o),
(1131,802,c)
);
},
{
closed = 1;
nodes = (
(1069,634,l),
(1034,663,o),
(1003,675,o),
(947,675,cs),
(791,675,o),
(701,499,o),
(701,367,cs),
(701,329,o),
(703,296,o),
(717,273,c),
(730,249,o),
(754,235,o),
(798,235,cs),
(875,235,o),
(962,322,o),
(1021,424,c),
(1023,434,o),
(1026,444,o),
(1028,454,cs)
);
}
);
width = 1704;
},
{
layerId = "14E32880-54EF-4278-81AC-E5D4AB6F58D5";
shapes = (
{
closed = 1;
nodes = (
(1301,854,l),
(1374,854,l),
(1276,363,l),
(1268,327,o),
(1261,270,o),
(1261,238,cs),
(1261,177,o),
(1281,148,o),
(1333,148,cs),
(1429,148,o),
(1518,198,o),
(1585,291,c),
(1627,352,o),
(1666,461,o),
(1666,571,cs),
(1666,746,o),
(1597,877,o),
(1490,973,cs),
(1478,984,o),
(1466,994,o),
(1454,1003,cs),
(1340,1088,o),
(1191,1133,o),
(1008,1133,cs),
(793,1133,o),
(611,1054,o),
(474,909,cs),
(357,784,o),
(282,591,o),
(282,398,cs),
(282,209,o),
(343,55,o),
(455,-54,cs),
(579,-175,o),
(764,-241,o),
(1000,-241,cs),
(1073,-241,o),
(1174,-222,o),
(1251,-190,c),
(1290,-320,l),
(1179,-368,o),
(1089,-380,o),
(974,-380,cs),
(742,-380,o),
(538,-315,o),
(389,-193,cs),
(228,-60,o),
(130,140,o),
(130,401,cs),
(130,643,o),
(231,866,o),
(362,1002,cs),
(374,1014,o),
(386,1026,o),
(398,1038,cs),
(473,1107,o),
(558,1162,o),
(654,1202,cs),
(766,1249,o),
(887,1273,o),
(1017,1273,cs),
(1246,1273,o),
(1444,1203,o),
(1587,1081,cs),
(1598,1071,o),
(1610,1061,o),
(1621,1050,cs),
(1731,940,o),
(1800,792,o),
(1811,621,cs),
(1812,604,o),
(1813,587,o),
(1813,569,cs),
(1813,443,o),
(1763,304,o),
(1681,202,cs),
(1671,189,o),
(1660,177,o),
(1649,165,cs),
(1557,70,o),
(1433,12,o),
(1296,12,cs),
(1187,12,o),
(1119,49,o),
(1116,165,c),
(1116,189,o),
(1118,216,o),
(1123,247,c),
(1117,247,l),
(1038,136,o),
(924,12,o),
(768,12,cs),
(647,12,o),
(546,120,o),
(546,279,c),
(542,556,o),
(776,865,o),
(1039,865,cs),
(1086,865,o),
(1124,858,o),
(1153,844,cs),
(1182,831,o),
(1209,815,o),
(1236,796,c)
);
},
{
closed = 1;
nodes = (
(1190,667,l),
(1147,711,o),
(1111,728,o),
(1047,728,cs),
(853,728,o),
(707,491,o),
(707,306,cs),
(707,263,o),
(716,227,o),
(735,196,cs),
(754,164,o),
(789,148,o),
(842,148,cs),
(930,148,o),
(1040,263,o),
(1114,388,cs),
(1122,402,o),
(1130,416,o),
(1137,430,c)
);
}
);
width = 1884;
},
{
layerId = "204F9CB2-94FB-4069-BE45-7F82EA7D2F19";
shapes = (
{
closed = 1;
nodes = (
(1356,851,l),
(1398,851,l),
(1298,353,l),
(1289,312,o),
(1280,242,o),
(1280,204,cs),
(1280,139,o),
(1299,104,o),
(1356,104,cs),
(1476,104,o),
(1579,155,o),
(1660,255,c),
(1709,318,o),
(1757,437,o),
(1757,556,cs),
(1757,737,o),
(1678,878,o),
(1557,983,cs),
(1544,994,o),
(1531,1005,o),
(1519,1014,cs),
(1394,1103,o),
(1231,1153,o),
(1038,1153,cs),
(807,1153,o),
(620,1071,o),
(475,920,c),
(364,803,o),
(278,602,o),
(278,397,cs),
(278,197,o),
(341,39,o),
(453,-69,cs),
(589,-200,o),
(790,-271,o),
(1043,-271,cs),
(1108,-271,o),
(1209,-252,o),
(1286,-220,c),
(1315,-322,l),
(1202,-368,o),
(1128,-378,o),
(1016,-378,cs),
(780,-378,o),
(572,-309,o),
(419,-189,cs),
(254,-58,o),
(159,145,o),
(159,402,cs),
(159,650,o),
(266,878,o),
(389,1001,cs),
(402,1013,o),
(415,1025,o),
(427,1038,c),
(507,1109,o),
(594,1163,o),
(694,1201,cs),
(803,1242,o),
(920,1262,o),
(1051,1262,cs),
(1284,1262,o),
(1493,1186,o),
(1643,1057,cs),
(1654,1047,o),
(1666,1037,o),
(1677,1026,cs),
(1781,919,o),
(1851,777,o),
(1867,626,cs),
(1869,609,o),
(1871,591,o),
(1871,572,c),
(1876,447,o),
(1826,305,o),
(1738,195,cs),
(1728,182,o),
(1717,170,o),
(1706,158,cs),
(1613,60,o),
(1484,-2,o),
(1338,-2,cs),
(1221,-2,o),
(1165,36,o),
(1167,155,cs),
(1168,182,o),
(1171,212,o),
(1177,247,c),
(1172,247,l),
(1093,137,o),
(965,-2,o),
(811,-2,cs),
(691,-2,o),
(586,108,o),
(586,268,c),
(580,542,o),
(830,862,o),
(1094,862,cs),
(1137,862,o),
(1173,856,o),
(1199,843,c),
(1230,829,o),
(1259,813,o),
(1289,793,c)
);
},
{
closed = 1;
nodes = (
(1251,684,l),
(1204,735,o),
(1165,755,o),
(1097,755,cs),
(884,755,o),
(710,487,o),
(710,275,cs),
(710,230,o),
(723,192,o),
(744,157,cs),
(766,121,o),
(807,104,o),
(864,104,cs),
(958,104,o),
(1079,233,o),
(1161,370,c),
(1172,386,o),
(1182,402,o),
(1192,418,c)
);
}
);
width = 1975;
}
);
unicode = 64;
},
{
glyphname = A;
layers = (
{
layerId = "FD1F61E9-2C7C-476B-BA00-6F7EA0BDC6A6";
shapes = (
{
closed = 1;
nodes = (
(-137,0,l),
(719,1358,l),
(1004,1358,l),
(1397,0,l),
(1030,0,l),
(958,243,l),
(382,243,l),
(230,0,l)
);
},
{
closed = 1;
nodes = (
(546,514,l),
(889,514,l),
(826,709,l),
(789,898,l),
(778,898,l),
(667,704,l)
);
}
);
width = 1443;
},
{
layerId = "FB2915BF-3A78-4B7A-831F-149E9877B6A1";
shapes = (
{
closed = 1;
nodes = (
(-60,0,l),
(778,1365,l),
(989,1365,l),
(1316,0,l),
(1024,0,l),
(959,288,l),
(411,288,l),
(239,0,l)
);
},
{
closed = 1;
nodes = (
(546,515,l),
(908,515,l),
(845,798,l),
(818,973,l),
(810,973,l),
(714,796,l)
);
}
);
width = 1366;
},
{
layerId = "14E32880-54EF-4278-81AC-E5D4AB6F58D5";
shapes = (
{
closed = 1;
nodes = (
(56,0,l),
(866,1375,l),
(967,1375,l),
(1195,0,l),
(1015,0,l),
(961,355,l),
(454,355,l),
(252,0,l)
);
},
{
closed = 1;
nodes = (
(546,517,l),
(937,517,l),
(874,932,l),
(862,1085,l),
(858,1085,l),
(784,934,l)
);
}
);
width = 1251;
},
{
layerId = "204F9CB2-94FB-4069-BE45-7F82EA7D2F19";
shapes = (
{
closed = 1;
nodes = (
(114,0,l),
(910,1380,l),
(956,1380,l),
(1134,0,l),
(1010,0,l),
(962,389,l),
(476,389,l),
(259,0,l)
);
},
{
closed = 1;
nodes = (
(546,518,l),
(952,518,l),
(889,999,l),
(884,1141,l),
(882,1141,l),
(819,1003,l)
);
}
);
width = 1193;
}
);
unicode = 65;
},
{
glyphname = B;
layers = (
{
layerId = "FD1F61E9-2C7C-476B-BA00-6F7EA0BDC6A6";
shapes = (
{
closed = 1;
nodes = (
(1402,957,o),
(1305,758,o),
(1058,732,c),
(1056,718,l),
(1201,709,o),
(1311,628,o),
(1320,486,cs),
(1333,261,o),
(1197,-20,o),
(590,-20,cs),
(504,-20,o),
(264,-25,o),
(102,9,c),
(346,1347,l),
(461,1361,o),
(708,1376,o),
(841,1376,cs),
(1146,1376,o),
(1402,1332,o),
(1402,1072,cs)
);
},
{
closed = 1;
nodes = (
(484,269,l),
(501,256,o),
(650,258,o),
(700,258,cs),
(884,258,o),
(956,347,o),
(956,431,cs),
(956,542,o),
(840,554,o),
(728,554,c),
(534,554,l)
);
},
{
closed = 1;
nodes = (
(716,810,ls),
(757,810,o),
(828,809,o),
(839,811,c),
(949,825,o),
(1030,878,o),
(1030,950,cs),
(1030,1088,o),
(924,1097,o),
(853,1097,cs),
(799,1097,o),
(666,1096,o),
(632,1091,c),
(582,810,l)
);
}
);
width = 1443;
},
{
layerId = "FB2915BF-3A78-4B7A-831F-149E9877B6A1";
shapes = (
{
closed = 1;
nodes = (
(1331,946,o),
(1234,766,o),
(999,726,c),
(997,715,l),
(1140,702,o),
(1244,622,o),
(1249,471,cs),
(1257,207,o),
(1045,-19,o),
(551,-19,cs),
(441,-19,o),
(245,-21,o),
(105,9,c),
(365,1346,l),
(477,1362,o),
(681,1375,o),
(826,1375,cs),
(1089,1375,o),
(1331,1319,o),
(1331,1076,cs)
);
},
{
closed = 1;
nodes = (
(423,225,l),
(446,212,o),
(579,213,o),
(636,213,cs),
(825,213,o),
(947,300,o),
(947,429,cs),
(947,562,o),
(807,577,o),
(676,577,c),
(491,577,l)
);
},
{
closed = 1;
nodes = (
(656,791,ls),
(696,791,o),
(756,791,o),
(793,796,c),
(920,820,o),
(1026,884,o),
(1026,988,cs),
(1026,1122,o),
(907,1142,o),
(793,1142,cs),
(721,1142,o),
(637,1140,o),
(600,1135,c),
(533,791,l)
);
}
);
width = 1366;
},
{
layerId = "14E32880-54EF-4278-81AC-E5D4AB6F58D5";
shapes = (
{
closed = 1;
nodes = (
(1224,930,o),
(1127,778,o),
(911,717,c),
(909,710,l),
(1049,691,o),
(1143,613,o),
(1143,448,cs),
(1143,126,o),
(817,-17,o),
(492,-17,cs),
(347,-17,o),
(217,-15,o),
(109,9,c),
(393,1344,l),
(501,1363,o),
(640,1373,o),
(804,1373,cs),
(1004,1373,o),
(1224,1300,o),
(1224,1082,cs)
);
},
{
closed = 1;
nodes = (
(331,159,l),
(363,146,o),
(472,146,o),
(540,146,cs),
(736,146,o),
(933,230,o),
(933,426,cs),
(933,592,o),
(758,612,o),
(598,612,cs),
(427,612,l)
);
},
{
closed = 1;
nodes = (
(566,763,ls),
(605,763,o),
(648,764,o),
(724,773,c),
(877,813,o),
(1020,893,o),
(1020,1045,cs),
(1020,1173,o),
(882,1210,o),
(703,1210,cs),
(604,1210,o),
(593,1206,o),
(552,1201,c),
(459,763,l)
);
}
);
width = 1251;
},
{
layerId = "204F9CB2-94FB-4069-BE45-7F82EA7D2F19";
shapes = (
{
closed = 1;
nodes = (
(1170,922,o),
(1073,784,o),
(867,712,c),
(865,707,l),
(1003,685,o),
(1092,608,o),
(1090,436,cs),
(1086,85,o),
(702,-16,o),
(462,-16,cs),
(300,-16,o),
(203,-12,o),
(111,9,c),
(407,1343,l),
(513,1364,o),
(619,1372,o),
(793,1372,cs),
(961,1372,o),
(1170,1290,o),
(1170,1085,cs)
);
},
{
closed = 1;
nodes = (
(285,126,l),
(321,113,o),
(418,112,o),
(492,112,cs),
(691,112,o),
(926,195,o),
(926,424,cs),
(926,607,o),
(733,630,o),
(559,630,cs),
(395,630,l)
);
},
{
closed = 1;
nodes = (
(521,749,ls),
(559,749,o),
(594,750,o),
(689,761,c),
(855,809,o),
(1017,898,o),
(1017,1074,cs),
(1017,1199,o),
(869,1244,o),
(658,1244,cs),
(545,1244,o),
(571,1239,o),
(528,1234,c),
(422,749,l)
);
}
);
width = 1193;
}
);
unicode = 66;
},
{
glyphname = C;
layers = (
{
layerId = "FD1F61E9-2C7C-476B-BA00-6F7EA0BDC6A6";
shapes = (
{
closed = 1;
nodes = (
(1257,95,l),
(1103,3,o),
(945,-14,o),
(836,-26,c),
(807,-28,o),
(781,-28,o),
(754,-28,cs),
(379,-28,o),
(150,159,o),
(150,563,cs),
(150,752,o),
(239,961,o),
(381,1116,cs),
(528,1277,o),
(725,1383,o),
(1049,1383,cs),
(1166,1383,o),
(1308,1363,o),
(1471,1269,c),
(1330,977,l),
(1183,1056,o),
(1091,1078,o),
(1000,1078,cs),
(800,1078,o),
(707,1015,o),
(634,914,c),
(591,848,o),
(527,717,o),
(527,601,cs),
(527,382,o),
(611,278,o),
(845,278,cs),
(956,278,o),
(1098,336,o),
(1180,375,c)
);
}
);
width = 1366;
},
{
layerId = "FB2915BF-3A78-4B7A-831F-149E9877B6A1";
shapes = (
{
closed = 1;
nodes = (
(1260,99,l),
(1127,18,o),
(958,-19,o),
(823,-26,cs),
(806,-27,o),
(790,-27,o),
(774,-27,cs),
(381,-27,o),
(144,182,o),
(144,558,cs),
(144,782,o),
(238,988,o),
(382,1135,cs),
(535,1291,o),
(741,1382,o),
(1016,1382,cs),
(1185,1382,o),
(1337,1339,o),
(1460,1260,c),
(1334,1028,l),
(1221,1095,o),
(1110,1131,o),
(978,1131,cs),
(791,1131,o),
(662,1060,o),
(571,939,c),
(513,859,o),
(454,728,o),
(454,596,cs),
(454,352,o),
(586,225,o),
(830,225,cs),
(957,225,o),
(1093,271,o),
(1191,328,c)
);
}
);
width = 1366;
},
{
layerId = "14E32880-54EF-4278-81AC-E5D4AB6F58D5";
shapes = (
{
closed = 1;
nodes = (
(1264,105,l),
(1163,41,o),
(977,-26,o),
(804,-26,c),
(804,-26,o),
(804,-26,o),
(804,-26,c),
(384,-26,o),
(135,216,o),
(135,551,cs),
(135,827,o),
(236,1028,o),
(384,1163,cs),
(546,1312,o),
(765,1381,o),
(966,1381,cs),
(1213,1381,o),
(1380,1303,o),
(1444,1247,c),
(1340,1105,l),
(1278,1153,o),
(1139,1210,o),
(945,1210,cs),
(778,1210,o),
(595,1127,o),
(476,976,cs),
(396,876,o),
(345,745,o),
(345,588,cs),
(345,307,o),
(548,146,o),
(807,146,cs),
(958,146,o),
(1086,173,o),
(1207,258,c)
);
}
);
width = 1366;
},
{
layerId = "204F9CB2-94FB-4069-BE45-7F82EA7D2F19";
shapes = (
{
closed = 1;
nodes = (
(1266,108,l),
(1181,53,o),
(987,-30,o),
(794,-26,c),
(803,-25,o),
(811,-25,o),
(819,-25,c),
(386,-25,o),
(130,233,o),
(130,547,cs),
(130,850,o),
(235,1048,o),
(385,1177,c),
(552,1323,o),
(777,1380,o),
(941,1380,cs),
(1227,1380,o),
(1402,1285,o),
(1436,1240,c),
(1343,1144,l),
(1307,1182,o),
(1154,1250,o),
(928,1250,cs),
(771,1250,o),
(561,1161,o),
(428,995,c),
(337,885,o),
(290,754,o),
(290,584,cs),
(290,284,o),
(529,106,o),
(795,106,cs),
(959,106,o),
(1082,124,o),
(1215,223,c)
);
}
);
width = 1366;
}
);
unicode = 67;
},
{
glyphname = D;
layers = (
{
layerId = "FD1F61E9-2C7C-476B-BA00-6F7EA0BDC6A6";
shapes = (
{
closed = 1;
nodes = (
(343,1356,l),
(462,1372,o),
(650,1376,o),
(801,1376,cs),
(1267,1376,o),
(1504,1184,o),
(1504,796,cs),
(1504,344,o),
(1263,-24,o),
(536,-24,cs),
(378,-24,o),
(174,-10,o),
(96,-2,c)
);
},
{
closed = 1;
nodes = (
(715,1070,o),
(672,1071,o),
(637,1068,c),
(499,291,l),
(520,286,o),
(656,284,o),
(672,284,cs),
(955,284,o),
(1126,434,o),
(1126,752,cs),
(1126,967,o),
(1020,1070,o),
(772,1070,cs)
);
}
);
width = 1479;
},
{
layerId = "FB2915BF-3A78-4B7A-831F-149E9877B6A1";
shapes = (
{
closed = 1;
nodes = (
(370,1356,l),
(484,1372,o),
(659,1375,o),
(801,1375,cs),
(1266,1375,o),
(1482,1171,o),
(1482,814,cs),
(1482,344,o),
(1194,-22,o),
(526,-22,cs),
(379,-22,o),
(174,-10,o),
(106,-2,c)
);
},
{
closed = 1;
nodes = (
(713,1123,o),
(645,1122,o),
(610,1118,c),
(439,238,l),
(462,233,o),
(579,231,o),
(625,231,cs),
(961,231,o),
(1171,439,o),
(1171,785,cs),
(1171,999,o),
(1054,1123,o),
(790,1123,cs)
);
}
);
width = 1479;
},
{
layerId = "14E32880-54EF-4278-81AC-E5D4AB6F58D5";
shapes = (
{
closed = 1;
nodes = (
(410,1356,l),
(517,1372,o),
(672,1373,o),
(801,1373,cs),
(1265,1373,o),
(1449,1151,o),
(1449,841,cs),
(1449,344,o),
(1091,-19,o),
(511,-19,cs),
(381,-19,o),
(174,-10,o),
(121,-2,c)
);
},
{
closed = 1;
nodes = (
(710,1203,o),
(604,1198,o),
(569,1193,c),
(349,159,l),
(375,154,o),
(464,151,o),
(554,151,cs),
(970,151,o),
(1239,447,o),
(1239,835,cs),
(1239,1047,o),
(1105,1203,o),
(817,1203,cs)
);
}
);
width = 1479;
},
{
layerId = "204F9CB2-94FB-4069-BE45-7F82EA7D2F19";
shapes = (
{
closed = 1;
nodes = (
(430,1356,l),
(534,1372,o),
(679,1372,o),
(801,1372,cs),
(1264,1372,o),
(1432,1141,o),
(1432,855,cs),
(1432,344,o),
(1039,-17,o),
(503,-17,cs),
(382,-17,o),
(174,-10,o),
(129,-2,c)
);
},
{
closed = 1;
nodes = (
(708,1243,o),
(583,1236,o),
(548,1231,c),
(304,119,l),
(331,114,o),
(406,111,o),
(518,111,cs),
(975,111,o),
(1273,451,o),
(1273,860,cs),
(1273,1071,o),
(1131,1243,o),
(831,1243,cs)
);
}
);
width = 1479;
}
);
unicode = 68;
},
{
glyphname = E;
layers = (
{
layerId = "FD1F61E9-2C7C-476B-BA00-6F7EA0BDC6A6";
shapes = (
{
closed = 1;
nodes = (
(373,1356,l),
(1478,1356,l),
(1420,1047,l),
(664,1047,l),
(626,831,l),
(1310,831,l),
(1252,523,l),
(568,523,l),
(533,309,l),
(1298,309,l),
(1239,0,l),
(125,0,l)
);
}
);
width = 1443;
},
{
layerId = "FB2915BF-3A78-4B7A-831F-149E9877B6A1";
shapes = (
{
closed = 1;
nodes = (
(392,1356,l),
(1405,1356,l),
(1356,1104,l),
(630,1104,l),
(572,809,l),
(1233,809,l),
(1184,558,l),
(523,558,l),
(464,252,l),
(1199,252,l),
(1150,0,l),
(128,0,l)
);
}
);
width = 1366;
},
{
layerId = "14E32880-54EF-4278-81AC-E5D4AB6F58D5";
shapes = (
{
closed = 1;
nodes = (
(420,1356,l),
(1295,1356,l),
(1260,1189,l),
(579,1189,l),
(491,776,l),
(1117,776,l),
(1082,610,l),
(456,610,l),
(361,166,l),
(1051,166,l),
(1016,0,l),
(132,0,l)
);
}
);
width = 1251;
},
{
layerId = "204F9CB2-94FB-4069-BE45-7F82EA7D2F19";
shapes = (
{
closed = 1;
nodes = (
(434,1356,l),
(1240,1356,l),
(1212,1232,l),
(553,1232,l),
(450,759,l),
(1059,759,l),
(1031,636,l),
(422,636,l),
(309,123,l),
(977,123,l),
(949,0,l),
(134,0,l)
);
}
);
width = 1193;
}
);
unicode = 69;
},
{
glyphname = F;
layers = (
{
layerId = "FD1F61E9-2C7C-476B-BA00-6F7EA0BDC6A6";
shapes = (
{
closed = 1;
nodes = (
(376,1356,l),
(1540,1356,l),
(1482,1047,l),
(667,1047,l),
(625,810,l),
(1360,810,l),
(1302,499,l),
(567,499,l),
(478,0,l),
(128,0,l)
);
}
);
width = 1443;
},
{
layerId = "FB2915BF-3A78-4B7A-831F-149E9877B6A1";
shapes = (
{
closed = 1;
nodes = (
(384,1356,l),
(1415,1356,l),
(1366,1104,l),
(622,1104,l),
(560,789,l),
(1238,789,l),
(1189,536,l),
(511,536,l),
(407,0,l),
(120,0,l)
);
}
);
width = 1366;
},
{
layerId = "14E32880-54EF-4278-81AC-E5D4AB6F58D5";
shapes = (
{
closed = 1;
nodes = (
(396,1356,l),
(1227,1356,l),
(1192,1189,l),
(554,1189,l),
(462,757,l),
(1055,757,l),
(1020,591,l),
(427,591,l),
(301,0,l),
(108,0,l)
);
}
);
width = 1251;
},
{
layerId = "204F9CB2-94FB-4069-BE45-7F82EA7D2F19";
shapes = (
{
closed = 1;
nodes = (
(402,1356,l),
(1132,1356,l),
(1104,1232,l),
(520,1232,l),
(413,741,l),
(963,741,l),
(935,619,l),
(385,619,l),
(248,0,l),
(102,0,l)
);
}
);
width = 1193;
}
);
unicode = 70;
},
{
glyphname = G;
layers = (
{
layerId = "FD1F61E9-2C7C-476B-BA00-6F7EA0BDC6A6";
shapes = (
{
closed = 1;
nodes = (
(909,732,l),
(1438,732,l),
(1321,89,l),
(1077,-29,o),
(968,-28,o),
(792,-28,cs),
(401,-28,o),
(133,155,o),
(133,560,cs),
(133,962,o),
(374,1383,o),
(1039,1383,cs),
(1206,1383,o),
(1383,1363,o),
(1539,1269,c),
(1413,993,l),
(1283,1050,o),
(1161,1078,o),
(1030,1078,cs),
(689,1078,o),
(508,890,o),
(508,619,cs),
(508,354,o),
(636,278,o),
(909,278,cs),
(950,278,o),
(1021,295,o),
(1092,328,c),
(1118,490,l),
(862,492,l)
);
}
);
width = 1479;
},
{
layerId = "FB2915BF-3A78-4B7A-831F-149E9877B6A1";
shapes = (
{
closed = 1;
nodes = (
(892,713,l),
(1436,713,l),
(1318,105,l),
(1138,10,o),
(997,-27,o),
(797,-27,cs),
(394,-27,o),
(134,179,o),
(134,561,cs),
(134,1029,o),
(457,1382,o),
(1010,1382,cs),
(1209,1382,o),
(1382,1339,o),
(1501,1260,c),
(1384,1038,l),
(1281,1091,o),
(1152,1131,o),
(996,1131,cs),
(680,1131,o),
(443,926,o),
(443,611,cs),
(443,335,o),
(601,225,o),
(868,225,cs),
(964,225,o),
(1041,250,o),
(1122,291,c),
(1163,508,l),
(851,509,l)
);
}
);
width = 1479;
},
{
layerId = "14E32880-54EF-4278-81AC-E5D4AB6F58D5";
shapes = (
{
closed = 1;
nodes = (
(866,684,l),
(1433,684,l),
(1314,129,l),
(1230,68,o),
(1040,-26,o),
(804,-26,c),
(384,-26,o),
(135,215,o),
(135,563,cs),
(135,1130,o),
(582,1381,o),
(966,1381,cs),
(1213,1381,o),
(1380,1303,o),
(1444,1247,c),
(1340,1105,l),
(1278,1153,o),
(1139,1210,o),
(945,1210,cs),
(666,1210,o),
(345,980,o),
(345,599,cs),
(345,307,o),
(548,146,o),
(807,146,cs),
(985,146,o),
(1071,183,o),
(1167,236,c),
(1230,535,l),
(834,535,l)
);
}
);
width = 1479;
},
{
layerId = "204F9CB2-94FB-4069-BE45-7F82EA7D2F19";
shapes = (
{
closed = 1;
nodes = (
(853,669,l),
(1431,669,l),
(1312,141,l),
(1276,97,o),
(1062,-25,o),
(808,-25,cs),
(379,-25,o),
(136,233,o),
(136,564,cs),
(136,1181,o),
(645,1380,o),
(944,1380,cs),
(1215,1380,o),
(1379,1285,o),
(1415,1240,c),
(1318,1139,l),
(1276,1184,o),
(1132,1250,o),
(919,1250,cs),
(659,1250,o),
(296,1007,o),
(296,593,cs),
(296,293,o),
(521,106,o),
(776,106,cs),
(996,106,o),
(1086,149,o),
(1190,208,c),
(1264,549,l),
(825,548,l)
);
}
);
width = 1479;
}
);
unicode = 71;
},
{
glyphname = H;
layers = (
{
layerId = "FD1F61E9-2C7C-476B-BA00-6F7EA0BDC6A6";
shapes = (
{
closed = 1;
nodes = (
(1160,529,l),
(535,529,l),
(439,0,l),
(92,0,l),
(340,1356,l),
(687,1356,l),
(593,834,l),
(1218,834,l),
(1313,1356,l),
(1662,1356,l),
(1414,0,l),
(1065,0,l)
);
}
);
width = 1669;
},
{
layerId = "FB2915BF-3A78-4B7A-831F-149E9877B6A1";
shapes = (
{
closed = 1;
nodes = (
(1145,560,l),
(495,560,l),
(386,0,l),
(100,0,l),
(364,1356,l),
(650,1356,l),
(544,811,l),
(1194,811,l),
(1300,1356,l),
(1587,1356,l),
(1323,0,l),
(1036,0,l)
);
}
);
width = 1593;
},
{
layerId = "14E32880-54EF-4278-81AC-E5D4AB6F58D5";
shapes = (
{
closed = 1;
nodes = (
(1122,606,l),
(435,606,l),
(306,0,l),
(112,0,l),
(400,1356,l),
(594,1356,l),
(471,776,l),
(1158,776,l),
(1281,1356,l),
(1475,1356,l),
(1187,0,l),
(993,0,l)
);
}
);
width = 1479;
},
{
layerId = "204F9CB2-94FB-4069-BE45-7F82EA7D2F19";
shapes = (
{
closed = 1;
nodes = (
(1110,629,l),
(405,629,l),
(266,0,l),
(118,0,l),
(418,1356,l),
(566,1356,l),
(434,758,l),
(1140,758,l),
(1271,1356,l),
(1419,1356,l),
(1119,0,l),
(971,0,l)
);
}
);
width = 1422;
}
);
unicode = 72;
},
{
glyphname = I;
layers = (
{
layerId = "FD1F61E9-2C7C-476B-BA00-6F7EA0BDC6A6";
shapes = (
{
closed = 1;
nodes = (
(454,1356,l),
(796,1356,l),
(553,0,l),
(211,0,l)
);
}
);
width = 874;
},
{
layerId = "FB2915BF-3A78-4B7A-831F-149E9877B6A1";
shapes = (
{
closed = 1;
nodes = (
(441,1356,l),
(724,1356,l),
(463,0,l),
(180,0,l)
);
}
);
width = 797;
},
{
layerId = "14E32880-54EF-4278-81AC-E5D4AB6F58D5";
shapes = (
{
closed = 1;
nodes = (
(422,1356,l),
(616,1356,l),
(328,0,l),
(134,0,l)
);
}
);
width = 682;
},
{
layerId = "204F9CB2-94FB-4069-BE45-7F82EA7D2F19";
shapes = (
{
closed = 1;
nodes = (
(412,1356,l),
(562,1356,l),
(260,0,l),
(111,0,l)
);
}
);
width = 624;
}
);
unicode = 73;
},
{
glyphname = J;
layers = (
{
layerId = "FD1F61E9-2C7C-476B-BA00-6F7EA0BDC6A6";
shapes = (
{
closed = 1;
nodes = (
(754,1356,l),
(1102,1356,l),
(937,440,l),
(879,148,o),
(716,-31,o),
(370,-31,cs),
(286,-31,o),
(167,-40,o),
(10,60,c),
(148,346,l),
(212,297,o),
(294,278,o),
(356,278,cs),
(525,278,o),
(573,361,o),
(595,479,cs)
);
}
);
width = 1101;
},
{
layerId = "FB2915BF-3A78-4B7A-831F-149E9877B6A1";
shapes = (
{
closed = 1;
nodes = (
(727,1356,l),
(1013,1356,l),
(825,388,ls),
(771,123,o),
(621,-26,o),
(320,-26,cs),
(219,-26,o),
(114,-11,o),
(4,72,c),
(132,294,l),
(180,255,o),
(251,227,o),
(322,227,cs),
(468,227,o),
(523,311,o),
(547,432,cs)
);
}
);
width = 1024;
},
{
layerId = "14E32880-54EF-4278-81AC-E5D4AB6F58D5";
shapes = (
{
closed = 1;
nodes = (
(686,1356,l),
(879,1356,l),
(657,310,ls),
(609,86,o),
(478,-19,o),
(245,-19,cs),
(119,-19,o),
(35,32,o),
(-5,90,c),
(108,216,l),
(132,192,o),
(186,151,o),
(271,151,cs),
(383,151,o),
(448,236,o),
(475,362,cs)
);
}
);
width = 909;
},
{
layerId = "204F9CB2-94FB-4069-BE45-7F82EA7D2F19";
shapes = (
{
closed = 1;
nodes = (
(665,1356,l),
(812,1356,l),
(572,271,ls),
(527,67,o),
(406,-15,o),
(207,-15,cs),
(69,-15,o),
(-5,54,o),
(-10,99,c),
(96,177,l),
(108,160,o),
(153,113,o),
(245,113,cs),
(340,113,o),
(410,198,o),
(439,327,cs)
);
}
);
width = 851;
}
);
unicode = 74;
},
{
glyphname = K;
layers = (
{
layerId = "FD1F61E9-2C7C-476B-BA00-6F7EA0BDC6A6";
shapes = (
{
closed = 1;
nodes = (
(731,544,l),
(534,544,l),
(437,0,l),
(89,0,l),
(337,1356,l),
(685,1356,l),
(579,777,l),
(718,809,l),
(1119,1356,l),
(1579,1356,l),
(1108,774,l),
(998,691,l),
(1084,616,l),
(1358,0,l),
(946,0,l)
);
}
);
width = 1366;
},
{
layerId = "FB2915BF-3A78-4B7A-831F-149E9877B6A1";
shapes = (
{
closed = 1;
nodes = (
(653,573,l),
(497,573,l),
(386,0,l),
(100,0,l),
(364,1356,l),
(650,1356,l),
(534,759,l),
(655,789,l),
(1167,1356,l),
(1546,1356,l),
(988,767,l),
(885,691,l),
(963,615,l),
(1329,0,l),
(983,0,l)
);
}
);
width = 1366;
},
{
layerId = "14E32880-54EF-4278-81AC-E5D4AB6F58D5";
shapes = (
{
closed = 1;
nodes = (
(536,616,l),
(441,616,l),
(310,0,l),
(116,0,l),
(404,1356,l),
(598,1356,l),
(466,732,l),
(560,759,l),
(1239,1356,l),
(1496,1356,l),
(808,756,l),
(716,691,l),
(782,614,l),
(1286,0,l),
(1038,0,l)
);
}
);
width = 1366;
},
{
layerId = "204F9CB2-94FB-4069-BE45-7F82EA7D2F19";
shapes = (
{
closed = 1;
nodes = (
(477,638,l),
(413,638,l),
(272,0,l),
(124,0,l),
(424,1356,l),
(572,1356,l),
(432,718,l),
(512,744,l),
(1275,1356,l),
(1471,1356,l),
(717,750,l),
(631,691,l),
(691,613,l),
(1264,0,l),
(1066,0,l)
);
}
);
width = 1366;
}
);
unicode = 75;
},
{
glyphname = L;
layers = (
{
layerId = "FD1F61E9-2C7C-476B-BA00-6F7EA0BDC6A6";
shapes = (
{
closed = 1;
nodes = (
(1212,0,l),
(93,0,l),
(341,1356,l),
(689,1356,l),
(499,307,l),
(1270,307,l)
);
}
);
width = 1326;
},
{
layerId = "FB2915BF-3A78-4B7A-831F-149E9877B6A1";
shapes = (
{
closed = 1;
nodes = (
(1166,0,l),
(104,0,l),
(368,1356,l),
(654,1356,l),
(439,252,l),
(1215,252,l)
);
}
);
width = 1251;
},
{
layerId = "14E32880-54EF-4278-81AC-E5D4AB6F58D5";
shapes = (
{
closed = 1;
nodes = (
(1097,0,l),
(120,0,l),
(408,1356,l),
(601,1356,l),
(349,170,l),
(1133,170,l)
);
}
);
width = 1139;
},
{
layerId = "204F9CB2-94FB-4069-BE45-7F82EA7D2F19";
shapes = (
{
closed = 1;
nodes = (
(1062,0,l),
(128,0,l),
(428,1356,l),
(574,1356,l),
(304,129,l),
(1092,129,l)
);
}
);
width = 1083;
}
);
unicode = 76;
},
{
glyphname = M;
layers = (
{
layerId = "FD1F61E9-2C7C-476B-BA00-6F7EA0BDC6A6";
shapes = (
{
closed = 1;
nodes = (
(1440,567,l),
(1512,855,l),
(1506,855,l),
(1371,679,l),
(938,155,l),
(829,155,l),
(596,681,l),
(533,853,l),
(529,853,l),
(497,569,l),
(396,0,l),
(66,0,l),
(314,1356,l),
(633,1356,l),
(917,727,l),
(970,600,l),
(982,600,l),
(1069,731,l),
(1593,1356,l),
(1938,1356,l),
(1690,0,l),
(1340,0,l)
);
}
);
width = 1898;
},
{
layerId = "FB2915BF-3A78-4B7A-831F-149E9877B6A1";
shapes = (
{
closed = 1;
nodes = (
(1425,690,l),
(1483,921,l),
(1476,921,l),
(1358,768,l),
(909,242,l),
(820,242,l),
(576,770,l),
(522,919,l),
(516,919,l),
(491,692,l),
(356,0,l),
(85,0,l),
(349,1356,l),
(594,1356,l),
(884,730,l),
(935,611,l),
(944,611,l),
(1033,734,l),
(1569,1356,l),
(1842,1356,l),
(1578,0,l),
(1291,0,l)
);
}
);
width = 1821;
},
{
layerId = "14E32880-54EF-4278-81AC-E5D4AB6F58D5";
shapes = (
{
closed = 1;
nodes = (
(1403,874,l),
(1439,1020,l),
(1431,1020,l),
(1339,902,l),
(866,372,l),
(807,372,l),
(546,904,l),
(506,1018,l),
(496,1018,l),
(482,876,l),
(296,0,l),
(114,0,l),
(402,1356,l),
(535,1356,l),
(834,734,l),
(883,627,l),
(887,627,l),
(979,739,l),
(1533,1356,l),
(1698,1356,l),
(1410,0,l),
(1217,0,l)
);
}
);
width = 1706;
},
{
layerId = "204F9CB2-94FB-4069-BE45-7F82EA7D2F19";
shapes = (
{
closed = 1;
nodes = (
(1392,967,l),
(1417,1070,l),
(1408,1070,l),
(1329,969,l),
(844,437,l),
(800,437,l),
(531,971,l),
(498,1068,l),
(486,1068,l),
(477,969,l),
(266,0,l),
(129,0,l),
(429,1356,l),
(505,1356,l),
(809,736,l),
(857,635,l),
(858,635,l),
(952,742,l),
(1515,1356,l),
(1626,1356,l),
(1325,0,l),
(1180,0,l)
);
}
);
width = 1648;
}
);
unicode = 77;
},
{
glyphname = N;
layers = (
{
layerId = "FD1F61E9-2C7C-476B-BA00-6F7EA0BDC6A6";
shapes = (
{
closed = 1;
nodes = (
(643,637,l),
(550,816,l),
(542,816,l),
(522,612,l),
(412,0,l),
(80,0,l),
(327,1358,l),
(599,1358,l),
(976,710,l),
(1078,499,l),
(1086,499,l),
(1105,733,l),
(1217,1356,l),
(1547,1356,l),
(1298,-2,l),
(1026,-2,l)
);
}
);
width = 1554;
},
{
layerId = "FB2915BF-3A78-4B7A-831F-149E9877B6A1";
shapes = (
{
closed = 1;
nodes = (
(608,723,l),
(523,895,l),
(515,895,l),
(495,708,l),
(357,0,l),
(85,0,l),
(350,1365,l),
(557,1365,l),
(962,627,l),
(1049,441,l),
(1058,441,l),
(1078,641,l),
(1217,1356,l),
(1488,1356,l),
(1222,-9,l),
(1015,-9,l)
);
}
);
width = 1479;
},
{
layerId = "14E32880-54EF-4278-81AC-E5D4AB6F58D5";
shapes = (
{
closed = 1;
nodes = (
(555,852,l),
(482,1013,l),
(475,1013,l),
(454,852,l),
(275,0,l),
(93,0,l),
(385,1375,l),
(494,1375,l),
(941,503,l),
(1006,354,l),
(1016,354,l),
(1037,503,l),
(1217,1356,l),
(1400,1356,l),
(1108,-19,l),
(999,-19,l)
);
}
);
width = 1366;
},
{
layerId = "204F9CB2-94FB-4069-BE45-7F82EA7D2F19";
shapes = (
{
closed = 1;
nodes = (
(528,917,l),
(461,1072,l),
(455,1072,l),
(433,924,l),
(234,0,l),
(97,0,l),
(403,1380,l),
(462,1380,l),
(930,441,l),
(984,310,l),
(995,310,l),
(1016,434,l),
(1217,1356,l),
(1356,1356,l),
(1051,-24,l),
(991,-24,l)
);
}
);
width = 1309;
}
);
unicode = 78;
},
{
glyphname = O;
layers = (
{
layerId = "FD1F61E9-2C7C-476B-BA00-6F7EA0BDC6A6";
shapes = (
{
closed = 1;
nodes = (
(91,949,o),
(370,1376,o),
(877,1383,c),
(1261,1383,o),
(1465,1146,o),
(1465,810,cs),
(1465,315,o),
(1153,-29,o),
(740,-29,cs),
(338,-29,o),
(116,186,o),
(105,519,c)
);
},
{
closed = 1;
nodes = (
(486,400,o),
(575,277,o),
(740,277,cs),
(983,277,o),
(1090,553,o),
(1090,758,cs),
(1090,925,o),
(1021,1076,o),
(816,1076,cs),
(585,1076,o),
(464,809,o),
(478,556,cs)
);
}
);
width = 1479;
},
{
layerId = "FB2915BF-3A78-4B7A-831F-149E9877B6A1";
shapes = (
{
closed = 1;
nodes = (
(110,942,o),
(385,1378,o),
(899,1382,c),
(1260,1382,o),
(1459,1156,o),
(1459,823,cs),
(1459,339,o),
(1157,-28,o),
(714,-28,cs),
(354,-28,o),
(126,176,o),
(118,516,cs)
);
},
{
closed = 1;
nodes = (
(430,358,o),
(540,223,o),
(721,223,cs),
(984,223,o),
(1150,498,o),
(1150,789,cs),
(1150,984,o),
(1055,1131,o),
(852,1131,cs),
(561,1131,o),
(417,813,o),
(425,545,cs)
);
}
);
width = 1479;
},
{
layerId = "14E32880-54EF-4278-81AC-E5D4AB6F58D5";
shapes = (
{
closed = 1;
nodes = (
(138,932,o),
(408,1381,o),
(932,1381,cs),
(1258,1381,o),
(1450,1171,o),
(1450,843,cs),
(1450,375,o),
(1163,-26,o),
(675,-26,cs),
(378,-26,o),
(141,161,o),
(138,511,c)
);
},
{
closed = 1;
nodes = (
(346,295,o),
(488,142,o),
(693,142,cs),
(985,142,o),
(1240,415,o),
(1240,835,cs),
(1240,1072,o),
(1106,1214,o),
(906,1214,cs),
(525,1214,o),
(346,819,o),
(346,528,cs)
);
}
);
width = 1479;
},
{
layerId = "204F9CB2-94FB-4069-BE45-7F82EA7D2F19";
shapes = (
{
closed = 1;
nodes = (
(152,927,o),
(420,1383,o),
(949,1380,c),
(1257,1380,o),
(1445,1179,o),
(1445,853,cs),
(1445,393,o),
(1166,-25,o),
(655,-25,cs),
(390,-25,o),
(149,153,o),
(148,508,c)
);
},
{
closed = 1;
nodes = (
(304,263,o),
(462,101,o),
(679,101,cs),
(986,101,o),
(1285,373,o),
(1285,858,cs),
(1285,1116,o),
(1132,1256,o),
(933,1256,cs),
(507,1256,o),
(310,822,o),
(306,519,cs)
);
}
);
width = 1479;
}
);
unicode = 79;
},
{
glyphname = P;
layers = (
{
layerId = "FD1F61E9-2C7C-476B-BA00-6F7EA0BDC6A6";
shapes = (
{
closed = 1;
nodes = (
(341,1342,l),
(467,1361,o),
(595,1376,o),
(775,1376,cs),
(1010,1376,o),
(1305,1312,o),
(1305,1018,cs),
(1305,569,o),
(983,417,o),
(612,417,cs),
(589,417,o),
(548,418,o),
(522,423,c),
(445,0,l),
(96,0,l)
);
},
{
closed = 1;
nodes = (
(697,1067,o),
(665,1061,o),
(638,1060,c),
(580,736,l),
(597,729,o),
(623,726,o),
(642,726,cs),
(757,726,o),
(925,719,o),
(925,943,cs),
(925,1059,o),
(821,1067,o),
(741,1067,cs)
);
}
);
width = 1251;
},
{
layerId = "FB2915BF-3A78-4B7A-831F-149E9877B6A1";
shapes = (
{
closed = 1;
nodes = (
(368,1342,l),
(489,1363,o),
(632,1375,o),
(773,1375,cs),
(1037,1375,o),
(1282,1288,o),
(1282,1005,cs),
(1282,614,o),
(970,449,o),
(617,449,cs),
(591,449,o),
(512,452,o),
(483,457,c),
(394,0,l),
(107,0,l)
);
},
{
closed = 1;
nodes = (
(686,1123,o),
(643,1119,o),
(611,1114,c),
(532,711,l),
(552,705,o),
(621,701,o),
(644,701,cs),
(817,701,o),
(970,755,o),
(970,958,cs),
(970,1082,o),
(872,1123,o),
(742,1123,cs)
);
}
);
width = 1251;
},
{
layerId = "14E32880-54EF-4278-81AC-E5D4AB6F58D5";
shapes = (
{
closed = 1;
nodes = (
(408,1342,l),
(522,1366,o),
(687,1373,o),
(770,1373,cs),
(1077,1373,o),
(1248,1252,o),
(1248,985,cs),
(1248,681,o),
(950,497,o),
(625,497,cs),
(594,497,o),
(458,503,o),
(425,508,c),
(317,0,l),
(123,0,l)
);
},
{
closed = 1;
nodes = (
(669,1207,o),
(610,1206,o),
(571,1195,c),
(460,674,l),
(485,669,o),
(618,664,o),
(647,664,cs),
(907,664,o),
(1038,809,o),
(1038,980,cs),
(1038,1116,o),
(949,1207,o),
(744,1207,cs)
);
}
);
width = 1251;
},
{
layerId = "204F9CB2-94FB-4069-BE45-7F82EA7D2F19";
shapes = (
{
closed = 1;
nodes = (
(428,1342,l),
(539,1368,o),
(715,1372,o),
(768,1372,cs),
(1097,1372,o),
(1231,1234,o),
(1231,975,cs),
(1231,715,o),
(940,521,o),
(629,521,cs),
(596,521,o),
(431,529,o),
(396,534,c),
(278,0,l),
(131,0,l)
);
},
{
closed = 1;
nodes = (
(660,1249,o),
(593,1250,o),
(551,1236,c),
(424,655,l),
(451,651,o),
(616,645,o),
(649,645,cs),
(952,645,o),
(1072,836,o),
(1072,991,cs),
(1072,1133,o),
(988,1249,o),
(745,1249,cs)
);
}
);
width = 1251;
}
);
unicode = 80;
},
{
glyphname = Q;
layers = (
{
layerId = "FD1F61E9-2C7C-476B-BA00-6F7EA0BDC6A6";
shapes = (
{
closed = 1;
nodes = (
(91,949,o),
(370,1376,o),
(877,1383,c),
(1261,1383,o),
(1465,1146,o),
(1465,810,cs),
(1465,396,o),
(1248,90,o),
(939,1,c),
(883,-16,o),
(826,-26,o),
(767,-28,c),
(763,-46,o),
(763,-68,o),
(764,-92,c),
(766,-76,o),
(766,-62,o),
(766,-54,c),
(766,-140,o),
(802,-160,o),
(918,-160,cs),
(936,-160,o),
(996,-139,o),
(1056,-106,c),
(1157,-351,l),
(1070,-413,o),
(894,-454,o),
(827,-454,cs),
(642,-454,o),
(477,-386,o),
(433,-221,cs),
(427,-197,o),
(425,-170,o),
(425,-141,c),
(424,-127,o),
(423,-112,o),
(423,-98,c),
(425,-62,o),
(429,-22,o),
(436,20,c),
(415,29,o),
(396,37,o),
(378,46,cs),
(201,140,o),
(112,306,o),
(105,519,cs)
);
},
{
closed = 1;
nodes = (
(585,1076,o),
(464,809,o),
(478,556,cs),
(486,400,o),
(575,277,o),
(740,277,cs),
(983,277,o),
(1090,553,o),
(1090,758,cs),
(1090,925,o),
(1021,1076,o),
(816,1076,cs)
);
}
);
width = 1479;
},
{
layerId = "FB2915BF-3A78-4B7A-831F-149E9877B6A1";
shapes = (
{
closed = 1;
nodes = (
(110,942,o),
(385,1378,o),
(899,1382,c),
(1260,1382,o),
(1459,1156,o),
(1459,823,cs),
(1459,418,o),
(1249,99,o),
(924,3,cs),
(866,-15,o),
(805,-25,o),
(741,-27,c),
(738,-42,o),
(737,-59,o),
(737,-77,c),
(737,-77,o),
(737,-77,o),
(737,-77,c),
(737,-153,o),
(773,-190,o),
(886,-190,cs),
(951,-190,o),
(1011,-170,o),
(1068,-139,c),
(1127,-347,l),
(1044,-400,o),
(909,-434,o),
(818,-434,cs),
(635,-434,o),
(490,-350,o),
(462,-186,c),
(458,-166,o),
(457,-144,o),
(457,-121,cs),
(457,-107,o),
(457,-93,o),
(458,-79,cs),
(460,-51,o),
(464,-21,o),
(470,9,c),
(450,16,o),
(431,23,o),
(413,31,cs),
(230,115,o),
(123,283,o),
(118,516,cs)
);
},
{
closed = 1;
nodes = (
(561,1131,o),
(417,813,o),
(425,545,cs),
(430,358,o),
(540,223,o),
(721,223,cs),
(984,223,o),
(1150,498,o),
(1150,789,cs),
(1150,984,o),
(1055,1131,o),
(852,1131,cs)
);
}
);
width = 1479;
},
{
layerId = "14E32880-54EF-4278-81AC-E5D4AB6F58D5";
shapes = (
{
closed = 1;
nodes = (
(138,932,o),
(408,1381,o),
(932,1381,cs),
(1258,1381,o),
(1450,1171,o),
(1450,843,cs),
(1450,451,o),
(1250,112,o),
(902,6,cs),
(840,-13,o),
(773,-23,o),
(702,-25,c),
(700,-36,o),
(698,-46,o),
(697,-55,cs),
(694,-79,o),
(693,-100,o),
(693,-111,cs),
(693,-173,o),
(730,-235,o),
(838,-235,cs),
(973,-235,o),
(1034,-217,o),
(1086,-188,c),
(1082,-341,l),
(1005,-381,o),
(932,-404,o),
(805,-404,cs),
(624,-404,o),
(510,-296,o),
(505,-133,c),
(505,-119,o),
(505,-105,o),
(505,-91,c),
(506,-77,o),
(508,-64,o),
(510,-50,cs),
(513,-34,o),
(517,-20,o),
(521,-8,c),
(502,-3,o),
(484,2,o),
(466,8,cs),
(274,77,o),
(140,249,o),
(138,511,c)
);
},
{
closed = 1;
nodes = (
(525,1214,o),
(346,819,o),
(346,528,cs),
(346,295,o),
(488,142,o),
(693,142,cs),
(985,142,o),
(1240,415,o),
(1240,835,cs),
(1240,1072,o),
(1106,1214,o),
(906,1214,cs)
);
}
);
width = 1479;
},
{
layerId = "204F9CB2-94FB-4069-BE45-7F82EA7D2F19";
shapes = (
{
closed = 1;
nodes = (
(152,927,o),
(420,1383,o),
(949,1380,c),
(1257,1380,o),
(1445,1179,o),
(1445,853,cs),
(1445,468,o),
(1251,119,o),
(891,8,cs),
(827,-12,o),
(757,-22,o),
(682,-24,c),
(681,-33,o),
(678,-39,o),
(677,-44,c),
(672,-80,o),
(671,-112,o),
(671,-128,cs),
(671,-183,o),
(708,-258,o),
(814,-258,cs),
(984,-258,o),
(1046,-241,o),
(1095,-213,c),
(1059,-338,l),
(985,-371,o),
(944,-389,o),
(798,-389,cs),
(618,-389,o),
(520,-269,o),
(527,-106,c),
(529,-95,o),
(529,-85,o),
(529,-76,c),
(531,-62,o),
(534,-49,o),
(536,-35,c),
(540,-25,o),
(544,-19,o),
(547,-17,c),
(528,-13,o),
(511,-9,o),
(493,-4,c),
(296,58,o),
(149,232,o),
(148,508,c)
);
},
{
closed = 1;
nodes = (
(507,1256,o),
(310,822,o),
(306,519,cs),
(304,263,o),
(462,101,o),
(679,101,cs),
(986,101,o),
(1285,373,o),
(1285,858,cs),
(1285,1116,o),
(1132,1256,o),
(933,1256,cs)
);
}
);
width = 1479;
}
);
unicode = 81;
},
{
glyphname = R;
layers = (
{
layerId = "FD1F61E9-2C7C-476B-BA00-6F7EA0BDC6A6";
shapes = (
{
closed = 1;
nodes = (
(334,1342,l),
(471,1364,o),
(753,1376,o),
(843,1376,cs),
(1250,1376,o),
(1446,1255,o),
(1446,1016,cs),
(1446,757,o),
(1253,610,o),
(1069,569,c),
(1124,502,l),
(1407,0,l),
(984,0,l),
(733,494,l),
(530,514,l),
(436,0,l),
(89,0,l)
);
},
{
closed = 1;
nodes = (
(767,1067,o),
(662,1066,o),
(628,1063,c),
(573,751,l),
(754,751,ls),
(848,751,o),
(1065,742,o),
(1065,933,cs),
(1065,1079,o),
(899,1067,o),
(819,1067,cs)
);
}
);
width = 1443;
},
{
layerId = "FB2915BF-3A78-4B7A-831F-149E9877B6A1";
shapes = (
{
closed = 1;
nodes = (
(361,1342,l),
(490,1363,o),
(707,1375,o),
(808,1375,cs),
(1144,1375,o),
(1341,1269,o),
(1341,1037,cs),
(1341,784,o),
(1157,628,o),
(954,583,c),
(1011,513,l),
(1313,0,l),
(969,0,l),
(674,525,l),
(493,548,l),
(386,0,l),
(100,0,l)
);
},
{
closed = 1;
nodes = (
(722,1123,o),
(639,1122,o),
(603,1116,c),
(530,741,l),
(686,741,ls),
(827,741,o),
(1027,787,o),
(1027,970,cs),
(1027,1103,o),
(894,1123,o),
(782,1123,cs)
);
}
);
width = 1366;
},
{
layerId = "14E32880-54EF-4278-81AC-E5D4AB6F58D5";
shapes = (
{
closed = 1;
nodes = (
(402,1342,l),
(519,1361,o),
(638,1373,o),
(755,1373,cs),
(985,1373,o),
(1183,1290,o),
(1183,1069,cs),
(1183,824,o),
(1013,655,o),
(781,604,c),
(841,530,l),
(1172,0,l),
(947,0,l),
(585,571,l),
(438,599,l),
(311,0,l),
(117,0,l)
);
},
{
closed = 1;
nodes = (
(655,1207,o),
(605,1206,o),
(565,1195,c),
(465,726,l),
(584,726,ls),
(796,726,o),
(970,855,o),
(970,1026,cs),
(970,1139,o),
(887,1207,o),
(726,1207,cs)
);
}
);
width = 1251;
},
{
layerId = "204F9CB2-94FB-4069-BE45-7F82EA7D2F19";
shapes = (
{
closed = 1;
nodes = (
(423,1342,l),
(534,1360,o),
(603,1372,o),
(728,1372,cs),
(905,1372,o),
(1103,1301,o),
(1103,1085,cs),
(1103,844,o),
(941,669,o),
(694,615,c),
(755,539,l),
(1101,0,l),
(936,0,l),
(540,594,l),
(410,625,l),
(273,0,l),
(126,0,l)
);
},
{
closed = 1;
nodes = (
(621,1249,o),
(588,1248,o),
(546,1235,c),
(432,718,l),
(533,718,ls),
(780,718,o),
(941,889,o),
(941,1054,cs),
(941,1157,o),
(883,1249,o),
(698,1249,cs)
);
}
);
width = 1193;
}
);
unicode = 82;
},
{
glyphname = S;
layers = (
{
layerId = "FD1F61E9-2C7C-476B-BA00-6F7EA0BDC6A6";
shapes = (
{
closed = 1;
nodes = (
(757,581,o),
(178,520,o),
(178,937,cs),
(178,1216,o),
(389,1383,o),
(771,1383,cs),
(904,1383,o),
(1079,1349,o),
(1250,1251,c),
(1080,972,l),
(1052,997,o),
(907,1082,o),
(731,1082,cs),
(579,1082,o),
(538,1034,o),
(538,969,cs),
(538,837,o),
(1119,828,o),
(1119,418,cs),
(1119,120,o),
(851,-28,o),
(531,-28,cs),
(237,-28,o),
(67,77,o),
(9,118,c),
(175,387,l),
(190,350,o),
(329,272,o),
(541,272,cs),
(667,272,o),
(757,311,o),
(757,375,cs)
);
}
);
width = 1216;
},
{
layerId = "FB2915BF-3A78-4B7A-831F-149E9877B6A1";
shapes = (
{
closed = 1;
nodes = (
(765,593,o),
(200,570,o),
(200,964,cs),
(200,1221,o),
(420,1382,o),
(756,1382,cs),
(919,1382,o),
(1062,1344,o),
(1186,1271,c),
(1055,1041,l),
(999,1078,o),
(876,1135,o),
(728,1135,cs),
(583,1135,o),
(497,1079,o),
(497,988,cs),
(497,804,o),
(1063,791,o),
(1063,403,cs),
(1063,139,o),
(839,-27,o),
(490,-27,cs),
(229,-27,o),
(78,59,o),
(12,107,c),
(148,331,l),
(199,280,o),
(329,220,o),
(508,220,cs),
(665,220,o),
(765,278,o),
(765,374,cs)
);
}
);
width = 1139;
},
{
layerId = "14E32880-54EF-4278-81AC-E5D4AB6F58D5";
shapes = (
{
closed = 1;
nodes = (
(777,611,o),
(233,645,o),
(233,1005,cs),
(233,1228,o),
(466,1381,o),
(733,1381,cs),
(942,1381,o),
(1037,1336,o),
(1090,1301,c),
(1017,1145,l),
(919,1200,o),
(829,1214,o),
(723,1214,cs),
(589,1214,o),
(435,1146,o),
(435,1017,cs),
(435,755,o),
(979,736,o),
(979,381,cs),
(979,168,o),
(821,-26,o),
(429,-26,cs),
(217,-26,o),
(95,32,o),
(16,90,c),
(108,247,l),
(213,175,o),
(329,142,o),
(458,142,cs),
(662,142,o),
(777,229,o),
(777,372,cs)
);
}
);
width = 1024;
},
{
layerId = "204F9CB2-94FB-4069-BE45-7F82EA7D2F19";
shapes = (
{
closed = 1;
nodes = (
(783,620,o),
(250,683,o),
(250,1026,cs),
(250,1232,o),
(489,1380,o),
(721,1380,cs),
(954,1380,o),
(1024,1332,o),
(1042,1316,c),
(998,1197,l),
(879,1261,o),
(805,1254,o),
(720,1254,cs),
(592,1254,o),
(404,1180,o),
(404,1032,cs),
(404,730,o),
(937,708,o),
(937,370,cs),
(937,183,o),
(812,-25,o),
(398,-25,cs),
(211,-25,o),
(104,18,o),
(18,81,c),
(88,205,l),
(220,122,o),
(329,103,o),
(433,103,cs),
(660,103,o),
(783,204,o),
(783,371,cs)
);
}
);
width = 966;
}
);
unicode = 83;
},
{
glyphname = T;
layers = (
{
layerId = "FD1F61E9-2C7C-476B-BA00-6F7EA0BDC6A6";
shapes = (
{
closed = 1;
nodes = (
(1340,1050,l),
(915,1050,l),
(724,0,l),
(375,0,l),
(565,1050,l),
(141,1050,l),
(199,1356,l),
(1398,1356,l)
);
}
);
width = 1326;
},
{
layerId = "FB2915BF-3A78-4B7A-831F-149E9877B6A1";
shapes = (
{
closed = 1;
nodes = (
(1338,1104,l),
(892,1104,l),
(677,0,l),
(390,0,l),
(605,1104,l),
(160,1104,l),
(209,1356,l),
(1387,1356,l)
);
}
);
width = 1251;
},
{
layerId = "14E32880-54EF-4278-81AC-E5D4AB6F58D5";
shapes = (
{
closed = 1;
nodes = (
(1335,1185,l),
(858,1185,l),
(606,0,l),
(413,0,l),
(665,1185,l),
(188,1185,l),
(224,1356,l),
(1371,1356,l)
);
}
);
width = 1139;
},
{
layerId = "204F9CB2-94FB-4069-BE45-7F82EA7D2F19";
shapes = (
{
closed = 1;
nodes = (
(1333,1226,l),
(841,1226,l),
(570,0,l),
(425,0,l),
(695,1226,l),
(202,1226,l),
(232,1356,l),
(1363,1356,l)
);
}
);
width = 1083;
}
);
unicode = 84;
},
{
glyphname = U;
layers = (
{
layerId = "FD1F61E9-2C7C-476B-BA00-6F7EA0BDC6A6";
shapes = (
{
closed = 1;
nodes = (
(1109,1356,l),
(1441,1356,l),
(1285,496,ls),
(1222,152,o),
(1014,-29,o),
(639,-29,cs),
(341,-29,o),
(164,103,o),
(133,314,c),
(124,393,o),
(142,457,o),
(150,506,c),
(305,1356,l),
(650,1356,l),
(496,506,ls),
(492,481,o),
(489,456,o),
(490,434,c),
(493,333,o),
(551,280,o),
(691,280,cs),
(831,280,o),
(921,325,o),
(964,552,c)
);
}
);
width = 1479;
},
{
layerId = "FB2915BF-3A78-4B7A-831F-149E9877B6A1";
shapes = (
{
closed = 1;
nodes = (
(1194,1356,l),
(1466,1356,l),
(1297,486,ls),
(1228,134,o),
(1005,-24,o),
(663,-24,cs),
(362,-24,o),
(191,102,o),
(172,319,cs),
(167,380,o),
(181,453,o),
(194,521,cs),
(356,1356,l),
(641,1356,l),
(476,506,ls),
(469,472,o),
(466,441,o),
(467,413,cs),
(470,288,o),
(544,229,o),
(708,229,cs),
(878,229,o),
(990,310,o),
(1035,536,cs)
);
}
);
width = 1479;
},
{
layerId = "14E32880-54EF-4278-81AC-E5D4AB6F58D5";
shapes = (
{
closed = 1;
nodes = (
(1321,1356,l),
(1503,1356,l),
(1315,471,ls),
(1237,107,o),
(992,-17,o),
(699,-17,cs),
(394,-17,o),
(231,101,o),
(231,326,cs),
(231,361,o),
(240,447,o),
(260,543,cs),
(432,1356,l),
(627,1356,l),
(446,506,l),
(435,459,o),
(432,419,o),
(432,382,c),
(435,221,o),
(534,153,o),
(733,153,cs),
(949,153,o),
(1094,288,o),
(1142,512,cs)
);
}
);
width = 1479;
},
{
layerId = "204F9CB2-94FB-4069-BE45-7F82EA7D2F19";
shapes = (
{
closed = 1;
nodes = (
(1385,1356,l),
(1522,1356,l),
(1324,463,ls),
(1242,93,o),
(985,-13,o),
(717,-13,cs),
(410,-13,o),
(251,100,o),
(261,330,c),
(263,351,o),
(270,444,o),
(293,554,c),
(470,1356,l),
(620,1356,l),
(431,506,l),
(418,452,o),
(415,408,o),
(414,366,c),
(417,187,o),
(529,115,o),
(746,115,cs),
(985,115,o),
(1146,277,o),
(1196,500,cs)
);
}
);
width = 1479;
}
);
unicode = 85;
},
{
glyphname = V;
layers = (
{
layerId = "FD1F61E9-2C7C-476B-BA00-6F7EA0BDC6A6";
shapes = (
{
closed = 1;
nodes = (
(685,677,l),
(713,476,l),
(725,476,l),
(821,678,l),
(1203,1356,l),
(1589,1356,l),
(774,-2,l),
(497,-2,l),
(158,1356,l),
(544,1356,l)
);
}
);
width = 1443;
},
{
layerId = "FB2915BF-3A78-4B7A-831F-149E9877B6A1";
shapes = (
{
closed = 1;
nodes = (
(647,573,l),
(671,392,l),
(680,392,l),
(772,575,l),
(1228,1356,l),
(1544,1356,l),
(706,-9,l),
(501,-9,l),
(179,1356,l),
(488,1356,l)
);
}
);
width = 1366;
},
{
layerId = "14E32880-54EF-4278-81AC-E5D4AB6F58D5";
shapes = (
{
closed = 1;
nodes = (
(590,417,l),
(608,266,l),
(613,266,l),
(698,421,l),
(1265,1356,l),
(1477,1356,l),
(604,-19,l),
(507,-19,l),
(210,1356,l),
(404,1356,l)
);
}
);
width = 1251;
},
{
layerId = "204F9CB2-94FB-4069-BE45-7F82EA7D2F19";
shapes = (
{
closed = 1;
nodes = (
(561,338,l),
(576,203,l),
(579,203,l),
(661,343,l),
(1284,1356,l),
(1443,1356,l),
(553,-24,l),
(510,-24,l),
(226,1356,l),
(362,1356,l)
);
}
);
width = 1193;
}
);
unicode = 86;
},
{
glyphname = W;
layers = (
{
layerId = "FD1F61E9-2C7C-476B-BA00-6F7EA0BDC6A6";
shapes = (
{
closed = 1;
nodes = (
(548,702,l),
(558,533,l),
(567,533,l),
(651,717,l),
(971,1356,l),
(1215,1356,l),
(1297,712,l),
(1323,533,l),
(1334,533,l),
(1378,715,l),
(1677,1356,l),
(2033,1356,l),
(1363,-2,l),
(1115,-2,l),
(1008,639,l),
(983,769,l),
(969,769,l),
(895,637,l),
(562,-2,l),
(298,-2,l),
(115,1356,l),
(459,1356,l)
);
}
);
width = 1898;
},
{
layerId = "FB2915BF-3A78-4B7A-831F-149E9877B6A1";
shapes = (
{
closed = 1;
nodes = (
(537,610,l),
(540,440,l),
(547,440,l),
(625,614,l),
(1021,1356,l),
(1206,1356,l),
(1308,610,l),
(1324,440,l),
(1332,440,l),
(1383,614,l),
(1726,1356,l),
(2020,1356,l),
(1348,-9,l),
(1155,-9,l),
(1039,728,l),
(1021,868,l),
(1009,868,l),
(936,726,l),
(535,-9,l),
(331,-9,l),
(182,1356,l),
(466,1356,l)
);
}
);
width = 1821;
},
{
layerId = "14E32880-54EF-4278-81AC-E5D4AB6F58D5";
shapes = (
{
closed = 1;
nodes = (
(521,472,l),
(513,300,l),
(517,300,l),
(586,460,l),
(1096,1356,l),
(1192,1356,l),
(1324,457,l),
(1326,300,l),
(1329,300,l),
(1390,463,l),
(1800,1356,l),
(2000,1356,l),
(1325,-19,l),
(1215,-19,l),
(1086,861,l),
(1078,1017,l),
(1069,1017,l),
(997,860,l),
(494,-19,l),
(381,-19,l),
(282,1356,l),
(476,1356,l)
);
}
);
width = 1706;
},
{
layerId = "204F9CB2-94FB-4069-BE45-7F82EA7D2F19";
shapes = (
{
closed = 1;
nodes = (
(513,403,l),
(499,230,l),
(502,230,l),
(566,382,l),
(1134,1356,l),
(1185,1356,l),
(1332,380,l),
(1327,230,l),
(1327,230,l),
(1394,387,l),
(1837,1356,l),
(1990,1356,l),
(1313,-24,l),
(1245,-24,l),
(1110,928,l),
(1107,1092,l),
(1099,1092,l),
(1028,927,l),
(473,-24,l),
(406,-24,l),
(332,1356,l),
(481,1356,l)
);
}
);
width = 1648;
}
);
unicode = 87;
},
{
glyphname = X;
layers = (
{
layerId = "FD1F61E9-2C7C-476B-BA00-6F7EA0BDC6A6";
shapes = (
{
closed = 1;
nodes = (
(511,689,l),
(179,1356,l),
(570,1356,l),
(748,1023,l),
(796,906,l),
(889,1018,l),
(1176,1356,l),
(1573,1356,l),
(984,708,l),
(1364,0,l),
(976,0,l),
(771,366,l),
(716,473,l),
(620,366,l),
(307,0,l),
(-96,0,l)
);
}
);
width = 1443;
},
{
layerId = "FB2915BF-3A78-4B7A-831F-149E9877B6A1";
shapes = (
{
closed = 1;
nodes = (
(553,689,l),
(232,1356,l),
(551,1356,l),
(735,970,l),
(778,867,l),
(862,970,l),
(1195,1356,l),
(1526,1356,l),
(933,706,l),
(1294,0,l),
(978,0,l),
(768,417,l),
(719,517,l),
(631,417,l),
(269,0,l),
(-65,0,l)
);
}
);
width = 1366;
},
{
layerId = "14E32880-54EF-4278-81AC-E5D4AB6F58D5";
shapes = (
{
closed = 1;
nodes = (
(616,689,l),
(311,1356,l),
(522,1356,l),
(715,891,l),
(751,808,l),
(821,898,l),
(1223,1356,l),
(1456,1356,l),
(856,703,l),
(1189,0,l),
(981,0,l),
(763,493,l),
(723,583,l),
(648,493,l),
(212,0,l),
(-19,0,l)
);
}
);
width = 1251;
},
{
layerId = "204F9CB2-94FB-4069-BE45-7F82EA7D2F19";
shapes = (
{
closed = 1;
nodes = (
(648,689,l),
(351,1356,l),
(507,1356,l),
(705,851,l),
(737,778,l),
(800,862,l),
(1237,1356,l),
(1421,1356,l),
(817,701,l),
(1136,0,l),
(983,0,l),
(760,531,l),
(725,616,l),
(657,531,l),
(183,0,l),
(4,0,l)
);
}
);
width = 1193;
}
);
unicode = 88;
},
{
glyphname = Y;
layers = (
{
layerId = "FD1F61E9-2C7C-476B-BA00-6F7EA0BDC6A6";
shapes = (
{
closed = 1;
nodes = (
(472,478,l),
(94,1356,l),
(490,1356,l),
(649,943,l),
(696,801,l),
(705,801,l),
(797,938,l),
(1090,1356,l),
(1518,1356,l),
(822,480,l),
(734,0,l),
(385,0,l)
);
}
);
width = 1326;
},
{
layerId = "FB2915BF-3A78-4B7A-831F-149E9877B6A1";
shapes = (
{
closed = 1;
nodes = (
(507,499,l),
(150,1356,l),
(471,1356,l),
(654,866,l),
(689,751,l),
(696,751,l),
(772,869,l),
(1129,1356,l),
(1475,1356,l),
(795,501,l),
(697,0,l),
(410,0,l)
);
}
);
width = 1251;
},
{
layerId = "14E32880-54EF-4278-81AC-E5D4AB6F58D5";
shapes = (
{
closed = 1;
nodes = (
(560,530,l),
(234,1356,l),
(442,1356,l),
(661,750,l),
(678,676,l),
(682,676,l),
(735,765,l),
(1187,1356,l),
(1411,1356,l),
(754,532,l),
(641,0,l),
(448,0,l)
);
}
);
width = 1139;
},
{
layerId = "204F9CB2-94FB-4069-BE45-7F82EA7D2F19";
shapes = (
{
closed = 1;
nodes = (
(587,546,l),
(276,1356,l),
(427,1356,l),
(665,692,l),
(672,638,l),
(675,638,l),
(716,713,l),
(1216,1356,l),
(1379,1356,l),
(733,548,l),
(613,0,l),
(467,0,l)
);
}
);
width = 1083;
}
);
unicode = 89;
},
{
glyphname = Z;
layers = (
{
layerId = "FD1F61E9-2C7C-476B-BA00-6F7EA0BDC6A6";
shapes = (
{
closed = 1;
nodes = (
(52,307,l),
(796,969,l),
(909,1050,l),
(235,1050,l),
(293,1356,l),
(1399,1356,l),
(1341,1050,l),
(560,380,l),
(455,307,l),
(1237,307,l),
(1179,0,l),
(-5,0,l)
);
}
);
width = 1326;
},
{
layerId = "FB2915BF-3A78-4B7A-831F-149E9877B6A1";
shapes = (
{
closed = 1;
nodes = (
(53,252,l),
(851,1024,l),
(955,1104,l),
(249,1104,l),
(298,1356,l),
(1351,1356,l),
(1302,1104,l),
(478,325,l),
(381,252,l),
(1153,252,l),
(1104,0,l),
(4,0,l)
);
}
);
width = 1251;
},
{
layerId = "14E32880-54EF-4278-81AC-E5D4AB6F58D5";
shapes = (
{
closed = 1;
nodes = (
(54,170,l),
(933,1107,l),
(1024,1185,l),
(270,1185,l),
(306,1356,l),
(1279,1356,l),
(1243,1185,l),
(355,242,l),
(270,170,l),
(1027,170,l),
(991,0,l),
(18,0,l)
);
}
);
width = 1139;
},
{
layerId = "204F9CB2-94FB-4069-BE45-7F82EA7D2F19";
shapes = (
{
closed = 1;
nodes = (
(55,129,l),
(974,1149,l),
(1059,1226,l),
(281,1226,l),
(310,1356,l),
(1243,1356,l),
(1213,1226,l),
(293,200,l),
(214,129,l),
(964,129,l),
(934,0,l),
(25,0,l)
);
}
);
width = 1083;
}
);
unicode = 90;
},
{
glyphname = bracketleft;
layers = (
{
layerId = "FD1F61E9-2C7C-476B-BA00-6F7EA0BDC6A6";
shapes = (
{
closed = 1;
nodes = (
(238,1356,l),
(790,1356,l),
(739,1081,l),
(501,1081,l),
(275,-170,l),
(514,-170,l),
(462,-445,l),
(-90,-445,l)
);
}
);
width = 605;
},
{
layerId = "FB2915BF-3A78-4B7A-831F-149E9877B6A1";
shapes = (
{
closed = 1;
nodes = (
(334,1356,l),
(825,1356,l),
(781,1129,l),
(550,1129,l),
(288,-218,l),
(519,-218,l),
(475,-445,l),
(-16,-445,l)
);
}
);
width = 682;
},
{
layerId = "14E32880-54EF-4278-81AC-E5D4AB6F58D5";
shapes = (
{
closed = 1;
nodes = (
(478,1356,l),
(877,1356,l),
(844,1201,l),
(624,1201,l),
(307,-290,l),
(527,-290,l),
(494,-445,l),
(95,-445,l)
);
}
);
width = 797;
},
{
layerId = "204F9CB2-94FB-4069-BE45-7F82EA7D2F19";
shapes = (
{
closed = 1;
nodes = (
(550,1356,l),
(903,1356,l),
(876,1237,l),
(661,1237,l),
(317,-326,l),
(531,-326,l),
(504,-445,l),
(151,-445,l)
);
}
);
width = 855;
}
);
unicode = 91;
},
{
glyphname = backslash;
layers = (
{
layerId = "FD1F61E9-2C7C-476B-BA00-6F7EA0BDC6A6";
shapes = (
{
closed = 1;
nodes = (
(737,-320,l),
(457,-383,l),
(136,1314,l),
(407,1376,l)
);
}
);
width = 569;
},
{
layerId = "FB2915BF-3A78-4B7A-831F-149E9877B6A1";
shapes = (
{
closed = 1;
nodes = (
(741,-272,l),
(514,-338,l),
(10,1312,l),
(232,1377,l)
);
}
);
width = 569;
},
{
layerId = "14E32880-54EF-4278-81AC-E5D4AB6F58D5";
shapes = (
{
closed = 1;
nodes = (
(747,-200,l),
(600,-271,l),
(-179,1309,l),
(-31,1379,l)
);
}
);
width = 569;
},
{
layerId = "204F9CB2-94FB-4069-BE45-7F82EA7D2F19";
shapes = (
{
closed = 1;
nodes = (
(750,-164,l),
(643,-237,l),
(-274,1307,l),
(-163,1380,l)
);
}
);
width = 569;
}
);
unicode = 92;
},
{
glyphname = bracketright;
layers = (
{
layerId = "FD1F61E9-2C7C-476B-BA00-6F7EA0BDC6A6";
shapes = (
{
closed = 1;
nodes = (
(426,-445,l),
(-128,-445,l),
(-77,-170,l),
(163,-170,l),
(388,1081,l),
(148,1081,l),
(200,1356,l),
(754,1356,l)
);
}
);
width = 605;
},
{
layerId = "FB2915BF-3A78-4B7A-831F-149E9877B6A1";
shapes = (
{
closed = 1;
nodes = (
(409,-445,l),
(-83,-445,l),
(-39,-218,l),
(193,-218,l),
(455,1129,l),
(223,1129,l),
(267,1356,l),
(759,1356,l)
);
}
);
width = 682;
},
{
layerId = "14E32880-54EF-4278-81AC-E5D4AB6F58D5";
shapes = (
{
closed = 1;
nodes = (
(384,-445,l),
(-15,-445,l),
(18,-290,l),
(238,-290,l),
(555,1201,l),
(335,1201,l),
(368,1356,l),
(767,1356,l)
);
}
);
width = 797;
},
{
layerId = "204F9CB2-94FB-4069-BE45-7F82EA7D2F19";
shapes = (
{
closed = 1;
nodes = (
(371,-445,l),
(19,-445,l),
(47,-326,l),
(261,-326,l),
(605,1237,l),
(391,1237,l),
(419,1356,l),
(771,1356,l)
);
}
);
width = 855;
}
);
unicode = 93;
},
{
glyphname = asciicircum;
layers = (
{
layerId = "FD1F61E9-2C7C-476B-BA00-6F7EA0BDC6A6";
shapes = (
{
closed = 1;
nodes = (
(699,1358,l),
(893,1358,l),
(1299,771,l),
(967,771,l),
(846,968,l),
(784,1089,l),
(719,966,l),
(598,771,l),
(277,771,l)
);
}
);
width = 1369;
},
{
layerId = "FB2915BF-3A78-4B7A-831F-149E9877B6A1";
shapes = (
{
closed = 1;
nodes = (
(620,1365,l),
(766,1365,l),
(1155,796,l),
(880,796,l),
(741,1016,l),
(684,1142,l),
(620,1014,l),
(470,796,l),
(208,796,l)
);
}
);
width = 1167;
},
{
layerId = "14E32880-54EF-4278-81AC-E5D4AB6F58D5";
shapes = (
{
closed = 1;
nodes = (
(501,1375,l),
(575,1375,l),
(939,833,l),
(749,833,l),
(584,1088,l),
(534,1222,l),
(472,1086,l),
(278,833,l),
(104,833,l)
);
}
);
width = 864;
},
{
layerId = "204F9CB2-94FB-4069-BE45-7F82EA7D2F19";
shapes = (
{
closed = 1;
nodes = (
(441,1380,l),
(479,1380,l),
(830,852,l),
(683,852,l),
(505,1124,l),
(459,1262,l),
(398,1122,l),
(181,852,l),
(52,852,l)
);
}
);
width = 711;
}
);
unicode = 94;
},
{
glyphname = underscore;
layers = (
{
layerId = "FD1F61E9-2C7C-476B-BA00-6F7EA0BDC6A6";
shapes = (
{
closed = 1;
nodes = (
(-126,-195,l),
(948,-195,l),
(948,-460,l),
(-126,-460,l)
);
}
);
width = 1024;
},
{
layerId = "FB2915BF-3A78-4B7A-831F-149E9877B6A1";
shapes = (
{
closed = 1;
nodes = (
(-70,-218,l),
(925,-218,l),
(925,-438,l),
(-70,-438,l)
);
}
);
width = 1024;
},
{
layerId = "14E32880-54EF-4278-81AC-E5D4AB6F58D5";
shapes = (
{
closed = 1;
nodes = (
(14,-253,l),
(890,-253,l),
(890,-405,l),
(14,-405,l)
);
}
);
width = 1024;
},
{
layerId = "204F9CB2-94FB-4069-BE45-7F82EA7D2F19";
shapes = (
{
closed = 1;
nodes = (
(56,-271,l),
(872,-271,l),
(872,-388,l),
(56,-388,l)
);
}
);
width = 1024;
}
);
unicode = 95;
},
{
glyphname = grave;
layers = (
{
layerId = "FD1F61E9-2C7C-476B-BA00-6F7EA0BDC6A6";
shapes = (
{
closed = 1;
nodes = (
(505,1100,l),
(360,1100,l),
(158,1305,l),
(169,1371,l),
(448,1371,l)
);
}
);
width = 682;
},
{
layerId = "FB2915BF-3A78-4B7A-831F-149E9877B6A1";
shapes = (
{
closed = 1;
nodes = (
(597,1088,l),
(468,1088,l),
(269,1307,l),
(280,1365,l),
(532,1365,l)
);
}
);
width = 682;
},
{
layerId = "14E32880-54EF-4278-81AC-E5D4AB6F58D5";
shapes = (
{
closed = 1;
nodes = (
(735,1070,l),
(630,1070,l),
(436,1310,l),
(446,1356,l),
(658,1356,l)
);
}
);
width = 682;
},
{
layerId = "204F9CB2-94FB-4069-BE45-7F82EA7D2F19";
shapes = (
{
closed = 1;
nodes = (
(804,1061,l),
(712,1061,l),
(520,1312,l),
(530,1351,l),
(721,1351,l)
);
}
);
width = 682;
}
);
unicode = 96;
},
{
glyphname = a;
layers = (
{
layerId = "FD1F61E9-2C7C-476B-BA00-6F7EA0BDC6A6";
shapes = (
{
closed = 1;
nodes = (
(890,382,l),
(879,334,o),
(842,231,o),
(936,231,cs),
(946,231,o),
(957,232,o),
(969,233,c),
(994,-10,l),
(931,-19,o),
(853,-26,o),
(808,-27,c),
(679,-27,o),
(600,11,o),
(558,77,c),
(497,17,o),
(405,-26,o),
(319,-26,cs),
(135,-26,o),
(30,89,o),
(30,276,cs),
(30,575,o),
(216,939,o),
(671,939,cs),
(755,939,o),
(885,921,o),
(998,899,c)
);
},
{
closed = 1;
nodes = (
(525,232,o),
(549,281,o),
(581,318,c),
(659,668,l),
(632,677,o),
(601,679,o),
(576,679,cs),
(420,679,o),
(331,518,o),
(331,379,cs),
(331,284,o),
(356,232,o),
(431,232,cs)
);
}
);
width = 1024;
},
{
layerId = "FB2915BF-3A78-4B7A-831F-149E9877B6A1";
shapes = (
{
closed = 1;
nodes = (
(863,359,l),
(841,268,o),
(823,187,o),
(894,187,cs),
(919,187,o),
(935,196,o),
(951,202,c),
(980,22,l),
(919,-1,o),
(843,-21,o),
(785,-21,c),
(680,-21,o),
(612,17,o),
(592,108,c),
(528,40,o),
(427,-24,o),
(321,-24,cs),
(145,-24,o),
(50,94,o),
(50,278,cs),
(50,588,o),
(250,925,o),
(666,925,cs),
(758,925,o),
(876,907,o),
(981,883,c)
);
},
{
closed = 1;
nodes = (
(509,184,o),
(570,259,o),
(608,311,c),
(698,701,l),
(667,712,o),
(630,716,o),
(593,716,cs),
(405,716,o),
(301,513,o),
(301,342,cs),
(301,243,o),
(335,184,o),
(411,184,cs)
);
}
);
width = 1024;
},
{
layerId = "14E32880-54EF-4278-81AC-E5D4AB6F58D5";
shapes = (
{
closed = 1;
nodes = (
(822,324,ls),
(785,169,o),
(794,121,o),
(831,121,cs),
(879,121,o),
(902,141,o),
(925,156,c),
(959,70,l),
(902,26,o),
(828,-13,o),
(751,-12,cs),
(682,-12,o),
(630,26,o),
(643,154,c),
(574,74,o),
(460,-21,o),
(324,-21,cs),
(160,-21,o),
(80,102,o),
(80,281,cs),
(80,608,o),
(301,904,o),
(659,904,cs),
(763,904,o),
(862,886,o),
(955,859,c)
);
},
{
closed = 1;
nodes = (
(485,112,o),
(602,226,o),
(649,300,c),
(757,750,l),
(719,764,o),
(673,771,o),
(619,771,cs),
(383,771,o),
(256,506,o),
(256,287,cs),
(256,182,o),
(304,112,o),
(381,112,cs)
);
}
);
width = 1024;
},
{
layerId = "204F9CB2-94FB-4069-BE45-7F82EA7D2F19";
shapes = (
{
closed = 1;
nodes = (
(801,306,l),
(751,98,o),
(785,88,o),
(799,88,cs),
(852,88,o),
(868,112,o),
(885,128,c),
(923,89,l),
(862,37,o),
(813,-9,o),
(734,-7,c),
(683,-7,o),
(639,31,o),
(669,177,c),
(597,91,o),
(477,-19,o),
(326,-19,cs),
(168,-19,o),
(95,106,o),
(95,283,cs),
(95,618,o),
(327,893,o),
(655,893,cs),
(766,893,o),
(855,875,o),
(942,847,c)
);
},
{
closed = 1;
nodes = (
(473,76,o),
(618,209,o),
(670,294,c),
(787,775,l),
(745,790,o),
(695,799,o),
(632,799,cs),
(372,799,o),
(233,502,o),
(233,259,cs),
(233,151,o),
(288,76,o),
(366,76,cs)
);
}
);
width = 1024;
}
);
unicode = 97;
},
{
glyphname = b;
layers = (
{
layerId = "FD1F61E9-2C7C-476B-BA00-6F7EA0BDC6A6";
shapes = (
{
closed = 1;
nodes = (
(277,1377,l),
(574,1377,l),
(445,752,l),
(451,752,l),
(530,861,o),
(600,934,o),
(748,934,cs),
(882,934,o),
(984,836,o),
(984,658,cs),
(984,179,o),
(669,-25,o),
(366,-25,cs),
(216,-25,o),
(75,6,o),
(-2,48,c)
);
},
{
closed = 1;
nodes = (
(355,234,o),
(391,233,o),
(441,233,cs),
(536,233,o),
(683,339,o),
(683,594,cs),
(683,661,o),
(645,676,o),
(602,676,cs),
(498,676,o),
(426,586,o),
(398,524,c),
(377,435,o),
(355,336,o),
(335,246,c)
);
}
);
width = 1024;
},
{
layerId = "FB2915BF-3A78-4B7A-831F-149E9877B6A1";
shapes = (
{
closed = 1;
nodes = (
(317,1377,l),
(563,1377,l),
(420,747,l),
(424,747,l),
(501,845,o),
(590,921,o),
(739,921,cs),
(883,921,o),
(977,815,o),
(977,651,cs),
(977,210,o),
(685,-21,o),
(380,-21,cs),
(220,-21,o),
(89,11,o),
(21,52,c)
);
},
{
closed = 1;
nodes = (
(326,192,o),
(368,187,o),
(421,187,cs),
(564,187,o),
(726,334,o),
(726,594,cs),
(726,684,o),
(676,713,o),
(624,713,cs),
(519,713,o),
(418,608,o),
(375,531,c),
(350,423,o),
(324,315,o),
(299,207,c)
);
}
);
width = 1024;
},
{
layerId = "14E32880-54EF-4278-81AC-E5D4AB6F58D5";
shapes = (
{
closed = 1;
nodes = (
(377,1377,l),
(547,1377,l),
(383,740,l),
(383,740,l),
(458,821,o),
(575,902,o),
(725,902,cs),
(884,902,o),
(967,783,o),
(967,640,cs),
(967,256,o),
(709,-15,o),
(401,-15,cs),
(226,-15,o),
(110,19,o),
(55,58,c)
);
},
{
closed = 1;
nodes = (
(282,129,o),
(334,118,o),
(391,118,cs),
(606,118,o),
(790,327,o),
(790,594,cs),
(790,718,o),
(723,769,o),
(657,769,cs),
(551,769,o),
(406,641,o),
(341,541,c),
(309,405,o),
(277,284,o),
(245,148,c)
);
}
);
width = 1024;
},
{
layerId = "204F9CB2-94FB-4069-BE45-7F82EA7D2F19";
shapes = (
{
closed = 1;
nodes = (
(407,1377,l),
(539,1377,l),
(364,736,l),
(362,736,l),
(436,809,o),
(567,892,o),
(718,892,cs),
(885,892,o),
(962,767,o),
(962,634,cs),
(962,279,o),
(721,-12,o),
(412,-12,cs),
(229,-12,o),
(121,23,o),
(72,61,c)
);
},
{
closed = 1;
nodes = (
(260,97,o),
(317,83,o),
(376,83,cs),
(627,83,o),
(822,323,o),
(822,594,cs),
(822,735,o),
(747,797,o),
(674,797,cs),
(567,797,o),
(400,658,o),
(324,546,c),
(288,396,o),
(253,268,o),
(218,118,c)
);
}
);
width = 1024;
}
);
unicode = 98;
},
{
glyphname = c;
layers = (
{
layerId = "FD1F61E9-2C7C-476B-BA00-6F7EA0BDC6A6";
shapes = (
{
closed = 1;
nodes = (
(765,67,l),
(692,24,o),
(536,-26,o),
(390,-26,cs),
(143,-26,o),
(20,126,o),
(20,313,cs),
(20,728,o),
(284,940,o),
(540,940,cs),
(678,940,o),
(833,912,o),
(924,842,c),
(809,599,l),
(764,605,o),
(668,666,o),
(556,666,cs),
(448,666,o),
(336,559,o),
(336,392,cs),
(336,320,o),
(345,247,o),
(477,247,cs),
(588,247,o),
(676,293,o),
(712,294,c)
);
}
);
width = 909;
},
{
layerId = "FB2915BF-3A78-4B7A-831F-149E9877B6A1";
shapes = (
{
closed = 1;
nodes = (
(785,94,l),
(709,33,o),
(553,-24,o),
(411,-24,cs),
(156,-24,o),
(45,135,o),
(45,312,cs),
(45,701,o),
(323,925,o),
(591,925,cs),
(714,925,o),
(844,892,o),
(913,833,c),
(809,637,l),
(763,661,o),
(684,707,o),
(583,707,cs),
(442,707,o),
(305,554,o),
(305,374,cs),
(305,262,o),
(352,193,o),
(477,193,cs),
(577,193,o),
(679,241,o),
(731,267,c)
);
}
);
width = 909;
},
{
layerId = "14E32880-54EF-4278-81AC-E5D4AB6F58D5";
shapes = (
{
closed = 1;
nodes = (
(815,134,l),
(735,46,o),
(578,-21,o),
(442,-21,cs),
(176,-21,o),
(82,148,o),
(82,310,cs),
(82,661,o),
(381,902,o),
(667,902,cs),
(768,902,o),
(860,862,o),
(897,819,c),
(809,694,l),
(761,745,o),
(708,769,o),
(624,769,cs),
(433,769,o),
(259,547,o),
(259,347,cs),
(259,175,o),
(362,112,o),
(477,112,cs),
(561,112,o),
(683,163,o),
(760,226,c)
);
}
);
width = 909;
},
{
layerId = "204F9CB2-94FB-4069-BE45-7F82EA7D2F19";
shapes = (
{
closed = 1;
nodes = (
(830,154,l),
(748,53,o),
(591,-19,o),
(458,-19,cs),
(186,-19,o),
(101,155,o),
(101,309,cs),
(101,641,o),
(410,890,o),
(705,890,cs),
(795,890,o),
(868,847,o),
(889,812,c),
(809,723,l),
(760,787,o),
(720,800,o),
(645,800,cs),
(428,800,o),
(236,543,o),
(236,333,cs),
(236,131,o),
(367,71,o),
(477,71,cs),
(553,71,o),
(685,124,o),
(775,205,c)
);
}
);
width = 909;
}
);
unicode = 99;
},
{
glyphname = d;
layers = (
{
layerId = "FD1F61E9-2C7C-476B-BA00-6F7EA0BDC6A6";
shapes = (
{
closed = 1;
nodes = (
(649,662,l),
(624,673,o),
(582,680,o),
(526,680,cs),
(423,680,o),
(325,557,o),
(325,379,cs),
(325,267,o),
(378,232,o),
(424,232,cs),
(494,232,o),
(552,275,o),
(580,318,c)
);
},
{
closed = 1;
nodes = (
(960,231,o),
(985,233,o),
(1012,238,c),
(1033,-4,l),
(967,-16,o),
(864,-26,o),
(811,-27,c),
(717,-27,o),
(593,-24,o),
(558,92,c),
(489,32,o),
(393,-26,o),
(308,-26,cs),
(79,-26,o),
(23,187,o),
(23,330,cs),
(23,644,o),
(220,937,o),
(530,937,cs),
(596,937,o),
(656,931,o),
(699,910,c),
(804,1377,l),
(1104,1377,l),
(890,386,l),
(900,412,o),
(827,231,o),
(939,231,cs)
);
}
);
width = 1024;
},
{
layerId = "FB2915BF-3A78-4B7A-831F-149E9877B6A1";
shapes = (
{
closed = 1;
nodes = (
(691,691,l),
(660,706,o),
(615,713,o),
(547,713,cs),
(390,713,o),
(293,520,o),
(293,336,cs),
(293,235,o),
(339,184,o),
(403,184,cs),
(487,184,o),
(571,255,o),
(606,311,c)
);
},
{
closed = 1;
nodes = (
(928,187,o),
(952,196,o),
(977,205,c),
(1003,26,l),
(941,1,o),
(850,-21,o),
(787,-21,c),
(690,-21,o),
(610,13,o),
(592,117,c),
(524,43,o),
(416,-24,o),
(311,-24,cs),
(113,-24,o),
(41,140,o),
(41,311,cs),
(41,618,o),
(242,921,o),
(558,921,cs),
(633,921,o),
(686,913,o),
(734,894,c),
(846,1377,l),
(1093,1377,l),
(863,361,l),
(854,315,o),
(814,187,o),
(896,187,cs)
);
}
);
width = 1024;
},
{
layerId = "14E32880-54EF-4278-81AC-E5D4AB6F58D5";
shapes = (
{
closed = 1;
nodes = (
(754,735,l),
(714,756,o),
(665,763,o),
(578,763,cs),
(340,763,o),
(245,465,o),
(245,272,cs),
(245,187,o),
(280,112,o),
(371,112,cs),
(476,112,o),
(600,225,o),
(645,300,c)
);
},
{
closed = 1;
nodes = (
(879,121,o),
(902,141,o),
(925,156,c),
(959,70,l),
(902,26,o),
(828,-13,o),
(751,-12,c),
(649,-12,o),
(635,69,o),
(643,154,c),
(576,60,o),
(450,-21,o),
(315,-21,cs),
(164,-21,o),
(68,70,o),
(68,282,cs),
(68,579,o),
(275,897,o),
(600,897,cs),
(688,897,o),
(731,886,o),
(787,870,c),
(909,1377,l),
(1077,1377,l),
(822,324,ls),
(785,169,o),
(794,121,o),
(831,121,cs)
);
}
);
width = 1024;
},
{
layerId = "204F9CB2-94FB-4069-BE45-7F82EA7D2F19";
shapes = (
{
closed = 1;
nodes = (
(786,757,l),
(741,781,o),
(690,788,o),
(594,788,cs),
(315,788,o),
(221,437,o),
(221,240,cs),
(221,163,o),
(250,76,o),
(355,76,cs),
(470,76,o),
(615,210,o),
(665,294,c)
);
},
{
closed = 1;
nodes = (
(851,88,o),
(867,112,o),
(884,128,c),
(922,89,l),
(861,37,o),
(812,-9,o),
(733,-7,c),
(628,-7,o),
(648,97,o),
(669,173,c),
(602,69,o),
(467,-19,o),
(317,-19,cs),
(190,-19,o),
(82,35,o),
(82,267,cs),
(82,559,o),
(292,885,o),
(621,885,cs),
(716,885,o),
(754,872,o),
(814,858,c),
(941,1377,l),
(1069,1377,l),
(801,305,l),
(750,96,o),
(784,88,o),
(798,88,cs)
);
}
);
width = 1024;
}
);
unicode = 100;
},
{
glyphname = e;
layers = (
{
layerId = "FD1F61E9-2C7C-476B-BA00-6F7EA0BDC6A6";
shapes = (
{
closed = 1;
nodes = (
(754,66,l),
(669,22,o),
(575,-26,o),
(402,-26,cs),
(187,-26,o),
(19,107,o),
(19,332,cs),
(19,700,o),
(297,940,o),
(566,940,cs),
(802,940,o),
(891,833,o),
(891,692,cs),
(891,465,o),
(662,352,o),
(343,352,cs),
(332,352,o),
(322,354,o),
(308,353,c),
(301,354,o),
(305,346,o),
(305,337,cs),
(305,255,o),
(374,232,o),
(477,232,cs),
(601,232,o),
(677,273,o),
(699,270,c)
);
},
{
closed = 1;
nodes = (
(437,691,o),
(378,614,o),
(349,548,c),
(588,559,o),
(618,575,o),
(618,632,cs),
(618,652,o),
(615,691,o),
(528,691,cs)
);
}
);
width = 909;
},
{
layerId = "FB2915BF-3A78-4B7A-831F-149E9877B6A1";
shapes = (
{
closed = 1;
nodes = (
(773,99,l),
(687,37,o),
(568,-24,o),
(399,-24,cs),
(182,-24,o),
(38,102,o),
(38,315,cs),
(38,689,o),
(312,925,o),
(580,925,cs),
(801,925,o),
(885,823,o),
(885,693,cs),
(885,488,o),
(675,376,o),
(343,376,cs),
(324,376,o),
(306,377,o),
(283,378,c),
(276,363,o),
(276,343,o),
(276,328,cs),
(276,231,o),
(342,184,o),
(457,184,cs),
(576,184,o),
(671,233,o),
(716,262,c)
);
},
{
closed = 1;
nodes = (
(439,722,o),
(362,645,o),
(322,543,c),
(569,543,o),
(653,574,o),
(653,655,cs),
(653,683,o),
(643,722,o),
(548,722,cs)
);
}
);
width = 909;
},
{
layerId = "14E32880-54EF-4278-81AC-E5D4AB6F58D5";
shapes = (
{
closed = 1;
nodes = (
(802,148,l),
(714,60,o),
(557,-21,o),
(394,-21,cs),
(175,-21,o),
(66,95,o),
(66,290,cs),
(66,672,o),
(334,902,o),
(601,902,cs),
(799,902,o),
(876,808,o),
(876,695,cs),
(876,523,o),
(695,412,o),
(343,412,cs),
(312,412,o),
(282,412,o),
(246,415,c),
(238,376,o),
(233,339,o),
(233,314,cs),
(233,195,o),
(294,112,o),
(427,112,cs),
(539,112,o),
(662,173,o),
(742,250,c)
);
},
{
closed = 1;
nodes = (
(442,769,o),
(338,691,o),
(282,535,c),
(540,519,o),
(705,573,o),
(705,689,cs),
(705,730,o),
(685,769,o),
(578,769,cs)
);
}
);
width = 909;
},
{
layerId = "204F9CB2-94FB-4069-BE45-7F82EA7D2F19";
shapes = (
{
closed = 1;
nodes = (
(817,173,l),
(728,72,o),
(551,-19,o),
(391,-19,cs),
(171,-19,o),
(80,91,o),
(80,277,cs),
(80,663,o),
(345,890,o),
(612,890,cs),
(798,890,o),
(871,800,o),
(871,696,cs),
(871,541,o),
(705,430,o),
(343,430,cs),
(306,430,o),
(270,430,o),
(227,434,c),
(219,383,o),
(211,337,o),
(211,307,cs),
(211,177,o),
(270,76,o),
(412,76,cs),
(520,76,o),
(657,143,o),
(755,244,c)
);
},
{
closed = 1;
nodes = (
(444,793,o),
(326,714,o),
(262,531,c),
(525,507,o),
(731,572,o),
(731,706,cs),
(731,754,o),
(706,793,o),
(593,793,cs)
);
}
);
width = 909;
}
);
unicode = 101;
},
{
glyphname = f;
layers = (
{
layerId = "FD1F61E9-2C7C-476B-BA00-6F7EA0BDC6A6";
shapes = (
{
closed = 1;
nodes = (
(532,655,l),
(403,17,l),
(358,-243,o),
(252,-378,o),
(-18,-378,cs),
(-110,-378,o),
(-181,-366,o),
(-257,-315,c),
(-173,-75,l),
(-140,-94,o),
(-104,-105,o),
(-59,-105,cs),
(43,-105,o),
(100,-45,o),
(110,21,c),
(225,655,l),
(91,655,l),
(149,912,l),
(261,912,l),
(325,1192,l),
(351,1292,o),
(473,1385,o),
(636,1385,cs),
(794,1385,o),
(880,1356,o),
(968,1317,c),
(895,1085,l),
(847,1101,o),
(781,1126,o),
(730,1126,cs),
(645,1126,o),
(615,1151,o),
(584,992,cs),
(569,912,l),
(779,912,l),
(728,655,l)
);
}
);
width = 757;
},
{
layerId = "FB2915BF-3A78-4B7A-831F-149E9877B6A1";
shapes = (
{
closed = 1;
nodes = (
(497,692,l),
(355,-16,l),
(315,-239,o),
(221,-376,o),
(-20,-376,cs),
(-107,-376,o),
(-177,-365,o),
(-250,-322,c),
(-178,-132,l),
(-135,-151,o),
(-99,-159,o),
(-48,-159,cs),
(48,-159,o),
(102,-94,o),
(121,17,cs),
(246,692,l),
(104,692,l),
(152,900,l),
(276,900,l),
(325,1116,ls),
(366,1295,o),
(478,1384,o),
(650,1384,cs),
(769,1384,o),
(856,1360,o),
(939,1325,c),
(874,1137,l),
(817,1156,o),
(753,1175,o),
(705,1175,cs),
(606,1175,o),
(574,1136,o),
(547,996,cs),
(528,900,l),
(726,900,l),
(684,692,l)
);
}
);
width = 682;
},
{
layerId = "14E32880-54EF-4278-81AC-E5D4AB6F58D5";
shapes = (
{
closed = 1;
nodes = (
(445,748,l),
(283,-65,ls),
(251,-233,o),
(174,-373,o),
(-23,-373,cs),
(-103,-373,o),
(-171,-364,o),
(-239,-333,c),
(-186,-217,l),
(-127,-236,o),
(-91,-240,o),
(-31,-240,cs),
(56,-240,o),
(105,-168,o),
(137,11,cs),
(277,748,l),
(123,748,l),
(156,882,l),
(299,882,l),
(325,1002,ls),
(389,1299,o),
(486,1382,o),
(671,1382,cs),
(732,1382,o),
(820,1366,o),
(896,1337,c),
(843,1215,l),
(772,1238,o),
(711,1249,o),
(667,1249,cs),
(548,1249,o),
(512,1113,o),
(491,1002,cs),
(467,882,l),
(647,882,l),
(618,748,l)
);
}
);
width = 569;
},
{
layerId = "204F9CB2-94FB-4069-BE45-7F82EA7D2F19";
shapes = (
{
closed = 1;
nodes = (
(419,776,l),
(247,-90,ls),
(219,-230,o),
(150,-371,o),
(-25,-371,cs),
(-101,-371,o),
(-168,-363,o),
(-233,-339,c),
(-190,-260,l),
(-123,-279,o),
(-87,-281,o),
(-22,-281,cs),
(60,-281,o),
(107,-205,o),
(145,8,c),
(293,776,l),
(133,776,l),
(158,873,l),
(311,873,l),
(325,945,l),
(401,1301,o),
(490,1381,o),
(682,1381,cs),
(713,1381,o),
(802,1369,o),
(874,1343,c),
(827,1254,l),
(749,1279,o),
(690,1286,o),
(648,1286,cs),
(519,1286,o),
(481,1101,o),
(463,1005,c),
(436,873,l),
(607,873,l),
(585,776,l)
);
}
);
width = 512;
}
);
unicode = 102;
},
{
glyphname = g;
layers = (
{
layerId = "FD1F61E9-2C7C-476B-BA00-6F7EA0BDC6A6";
shapes = (
{
closed = 1;
nodes = (
(796,45,l),
(727,-273,o),
(542,-381,o),
(278,-381,cs),
(66,-381,o),
(-59,-316,o),
(-81,-316,c),
(38,-78,l),
(96,-112,o),
(158,-123,o),
(287,-123,cs),
(420,-123,o),
(496,-17,o),
(509,45,c),
(534,152,l),
(529,152,l),
(500,94,o),
(431,28,o),
(335,-2,c),
(305,-7,o),
(272,-11,o),
(239,-11,cs),
(107,-11,o),
(4,94,o),
(4,273,cs),
(4,679,o),
(243,937,o),
(570,937,cs),
(740,937,o),
(895,904,o),
(969,873,c)
);
},
{
closed = 1;
nodes = (
(637,667,l),
(612,675,o),
(568,680,o),
(535,680,cs),
(389,680,o),
(303,547,o),
(305,351,c),
(305,273,o),
(332,248,o),
(380,248,cs),
(459,248,o),
(552,334,o),
(575,396,c)
);
}
);
width = 1024;
},
{
layerId = "FB2915BF-3A78-4B7A-831F-149E9877B6A1";
shapes = (
{
closed = 1;
nodes = (
(791,11,ls),
(727,-272,o),
(557,-378,o),
(307,-378,cs),
(128,-378,o),
(8,-322,o),
(-44,-293,c),
(58,-105,l),
(115,-141,o),
(191,-170,o),
(316,-170,cs),
(446,-170,o),
(530,-82,o),
(559,30,cs),
(589,148,l),
(586,148,l),
(539,78,o),
(456,9,o),
(344,-9,cs),
(326,-12,o),
(306,-14,o),
(286,-14,cs),
(142,-14,o),
(42,97,o),
(42,273,cs),
(42,632,o),
(264,921,o),
(608,921,cs),
(769,921,o),
(904,891,o),
(980,860,c)
);
},
{
closed = 1;
nodes = (
(704,698,l),
(673,709,o),
(619,713,o),
(575,713,cs),
(406,713,o),
(294,538,o),
(294,330,cs),
(294,235,o),
(334,195,o),
(393,195,cs),
(492,195,o),
(591,299,o),
(628,374,c)
);
}
);
width = 1024;
},
{
layerId = "14E32880-54EF-4278-81AC-E5D4AB6F58D5";
shapes = (
{
closed = 1;
nodes = (
(783,-40,ls),
(727,-271,o),
(579,-373,o),
(350,-373,cs),
(221,-373,o),
(108,-331,o),
(11,-259,c),
(88,-145,l),
(144,-185,o),
(241,-241,o),
(360,-241,cs),
(485,-241,o),
(581,-180,o),
(634,7,cs),
(672,142,l),
(672,142,l),
(597,54,o),
(493,-19,o),
(357,-19,c),
(357,-19,o),
(357,-19,o),
(357,-19,c),
(194,-19,o),
(99,102,o),
(99,273,cs),
(99,561,o),
(295,897,o),
(665,897,cs),
(812,897,o),
(917,872,o),
(997,840,c)
);
},
{
closed = 1;
nodes = (
(804,744,l),
(765,760,o),
(695,763,o),
(635,763,cs),
(431,763,o),
(281,524,o),
(277,299,c),
(277,178,o),
(337,115,o),
(412,115,cs),
(542,115,o),
(650,247,o),
(707,341,c)
);
}
);
width = 1024;
},
{
layerId = "204F9CB2-94FB-4069-BE45-7F82EA7D2F19";
shapes = (
{
closed = 1;
nodes = (
(779,-66,ls),
(727,-270,o),
(590,-370,o),
(372,-370,cs),
(268,-370,o),
(158,-336,o),
(39,-242,c),
(103,-165,l),
(159,-207,o),
(266,-277,o),
(382,-277,cs),
(505,-277,o),
(607,-229,o),
(672,-5,cs),
(714,139,l),
(715,139,l),
(626,42,o),
(512,-33,o),
(364,-24,c),
(373,-23,o),
(383,-22,o),
(393,-22,c),
(220,-22,o),
(128,105,o),
(128,273,cs),
(128,525,o),
(311,885,o),
(694,885,cs),
(834,885,o),
(924,862,o),
(1006,830,c)
);
},
{
closed = 1;
nodes = (
(854,767,l),
(811,786,o),
(733,788,o),
(665,788,cs),
(444,788,o),
(274,517,o),
(268,283,c),
(268,149,o),
(339,75,o),
(422,75,cs),
(567,75,o),
(680,221,o),
(747,324,c)
);
}
);
width = 1024;
}
);
unicode = 103;
},
{
glyphname = h;
layers = (
{
layerId = "FD1F61E9-2C7C-476B-BA00-6F7EA0BDC6A6";
shapes = (
{
closed = 1;
nodes = (
(662,0,l),
(765,521,ls),
(772,558,o),
(771,567,o),
(771,586,cs),
(771,648,o),
(713,666,o),
(689,666,cs),
(575,666,o),
(459,554,o),
(430,497,c),
(430,504,l),
(328,0,l),
(31,0,l),
(322,1377,l),
(619,1377,l),
(480,747,l),
(485,747,l),
(485,739,l),
(560,817,o),
(681,940,o),
(839,940,cs),
(959,940,o),
(1087,889,o),
(1087,720,cs),
(1087,679,o),
(1084,629,o),
(1072,569,cs),
(958,0,l)
);
}
);
width = 1216;
},
{
layerId = "FB2915BF-3A78-4B7A-831F-149E9877B6A1";
shapes = (
{
closed = 1;
nodes = (
(645,0,l),
(760,514,ls),
(771,565,o),
(777,590,o),
(777,617,cs),
(777,685,o),
(730,707,o),
(685,707,cs),
(564,707,o),
(435,587,o),
(395,510,c),
(395,514,l),
(284,0,l),
(38,0,l),
(348,1377,l),
(594,1377,l),
(447,747,l),
(450,747,l),
(450,742,l),
(523,818,o),
(644,925,o),
(802,925,cs),
(930,925,o),
(1036,870,o),
(1036,713,cs),
(1036,668,o),
(1029,615,o),
(1015,552,cs),
(891,0,l)
);
}
);
width = 1139;
},
{
layerId = "14E32880-54EF-4278-81AC-E5D4AB6F58D5";
shapes = (
{
closed = 1;
nodes = (
(620,0,l),
(753,504,l),
(770,575,o),
(786,624,o),
(786,664,cs),
(786,740,o),
(755,769,o),
(679,769,cs),
(547,769,o),
(399,636,o),
(343,529,c),
(343,529,l),
(218,0,l),
(49,0,l),
(387,1377,l),
(557,1377,l),
(397,747,l),
(397,747,l),
(397,747,l),
(467,820,o),
(589,902,o),
(747,902,cs),
(887,902,o),
(960,842,o),
(960,703,cs),
(960,652,o),
(946,594,o),
(929,526,cs),
(791,0,l)
);
}
);
width = 1024;
},
{
layerId = "204F9CB2-94FB-4069-BE45-7F82EA7D2F19";
shapes = (
{
closed = 1;
nodes = (
(607,0,l),
(749,499,l),
(769,580,o),
(791,641,o),
(791,688,cs),
(791,768,o),
(768,800,o),
(676,800,cs),
(538,800,o),
(381,661,o),
(317,539,c),
(317,537,l),
(185,0,l),
(55,0,l),
(407,1377,l),
(538,1377,l),
(372,747,l),
(370,747,l),
(370,750,l),
(439,821,o),
(561,890,o),
(719,890,cs),
(865,890,o),
(922,828,o),
(922,698,cs),
(922,644,o),
(904,583,o),
(886,513,c),
(741,0,l)
);
}
);
width = 966;
}
);
unicode = 104;
},
{
glyphname = i;
layers = (
{
layerId = "FD1F61E9-2C7C-476B-BA00-6F7EA0BDC6A6";
shapes = (
{
closed = 1;
nodes = (
(257,910,l),
(554,910,l),
(451,460,l),
(427,342,o),
(426,326,o),
(426,275,cs),
(426,248,o),
(443,233,o),
(483,233,cs),
(496,233,o),
(517,238,o),
(531,238,c),
(512,-16,l),
(457,-25,o),
(393,-25,o),
(336,-25,cs),
(194,-25,o),
(113,45,o),
(113,195,cs),
(113,212,o),
(117,286,o),
(140,392,c)
);
},
{
closed = 1;
nodes = (
(279,1333,o),
(357,1383,o),
(452,1383,cs),
(541,1383,o),
(625,1333,o),
(625,1219,cs),
(625,1111,o),
(541,1053,o),
(452,1053,cs),
(357,1053,o),
(279,1111,o),
(279,1219,cs)
);
}
);
width = 569;
},
{
layerId = "FB2915BF-3A78-4B7A-831F-149E9877B6A1";
shapes = (
{
closed = 1;
nodes = (
(270,899,l),
(516,899,l),
(384,361,l),
(368,283,o),
(367,267,o),
(367,232,cs),
(367,202,o),
(383,187,o),
(416,187,cs),
(445,187,o),
(472,201,o),
(498,210,c),
(503,20,l),
(444,-7,o),
(362,-21,o),
(307,-21,cs),
(182,-21,o),
(108,34,o),
(108,167,cs),
(108,187,o),
(112,243,o),
(129,320,c)
);
},
{
closed = 1;
nodes = (
(302,1329,o),
(370,1378,o),
(453,1378,cs),
(532,1378,o),
(604,1329,o),
(604,1237,cs),
(604,1148,o),
(532,1096,o),
(453,1096,cs),
(370,1096,o),
(302,1148,o),
(302,1237,cs)
);
}
);
width = 569;
},
{
layerId = "14E32880-54EF-4278-81AC-E5D4AB6F58D5";
shapes = (
{
closed = 1;
nodes = (
(290,882,l),
(459,882,l),
(284,213,ls),
(279,194,o),
(278,179,o),
(278,168,cs),
(278,133,o),
(293,118,o),
(316,118,cs),
(369,118,o),
(405,145,o),
(448,168,c),
(490,74,l),
(425,20,o),
(315,-15,o),
(263,-15,cs),
(164,-15,o),
(101,18,o),
(101,125,cs),
(101,149,o),
(105,178,o),
(113,212,c)
);
},
{
closed = 1;
nodes = (
(337,1323,o),
(389,1371,o),
(454,1371,cs),
(518,1371,o),
(573,1323,o),
(573,1264,cs),
(573,1204,o),
(518,1160,o),
(454,1160,cs),
(389,1160,o),
(337,1204,o),
(337,1264,cs)
);
}
);
width = 569;
},
{
layerId = "204F9CB2-94FB-4069-BE45-7F82EA7D2F19";
shapes = (
{
closed = 1;
nodes = (
(300,873,l),
(430,873,l),
(234,139,l),
(234,149,o),
(233,135,o),
(233,136,c),
(233,98,o),
(248,83,o),
(266,83,cs),
(331,83,o),
(371,121,o),
(423,151,c),
(483,105,l),
(415,34,o),
(291,-12,o),
(241,-12,cs),
(155,-12,o),
(97,10,o),
(97,104,cs),
(97,130,o),
(101,145,o),
(105,158,cs)
);
},
{
closed = 1;
nodes = (
(355,1320,o),
(399,1367,o),
(455,1367,cs),
(511,1367,o),
(557,1320,o),
(557,1278,cs),
(557,1232,o),
(511,1192,o),
(455,1192,cs),
(399,1192,o),
(355,1232,o),
(355,1278,cs)
);
}
);
width = 569;
}
);
unicode = 105;
},
{
glyphname = j;
layers = (
{
layerId = "FD1F61E9-2C7C-476B-BA00-6F7EA0BDC6A6";
shapes = (
{
closed = 1;
nodes = (
(230,910,l),
(540,910,l),
(319,-25,l),
(268,-237,o),
(139,-367,o),
(-77,-367,cs),
(-129,-367,o),
(-189,-360,o),
(-240,-349,c),
(-182,-119,l),
(-51,-137,o),
(-2,-68,o),
(30,49,c)
);
},
{
closed = 1;
nodes = (
(242,1332,o),
(324,1383,o),
(417,1383,cs),
(503,1383,o),
(589,1333,o),
(589,1219,cs),
(589,1111,o),
(503,1053,o),
(417,1053,cs),
(324,1053,o),
(242,1111,o),
(242,1219,cs)
);
}
);
width = 569;
},
{
layerId = "FB2915BF-3A78-4B7A-831F-149E9877B6A1";
shapes = (
{
closed = 1;
nodes = (
(266,899,l),
(520,899,l),
(293,-38,ls),
(241,-253,o),
(120,-371,o),
(-88,-371,cs),
(-127,-371,o),
(-170,-367,o),
(-215,-358,c),
(-166,-167,l),
(-28,-178,o),
(23,-103,o),
(57,29,cs)
);
},
{
closed = 1;
nodes = (
(291,1329,o),
(359,1378,o),
(442,1378,cs),
(521,1378,o),
(593,1329,o),
(593,1237,cs),
(593,1148,o),
(521,1096,o),
(442,1096,cs),
(359,1096,o),
(291,1148,o),
(291,1237,cs)
);
}
);
width = 569;
},
{
layerId = "14E32880-54EF-4278-81AC-E5D4AB6F58D5";
shapes = (
{
closed = 1;
nodes = (
(320,882,l),
(490,882,l),
(254,-57,ls),
(201,-277,o),
(92,-377,o),
(-104,-377,cs),
(-124,-377,o),
(-142,-377,o),
(-177,-372,c),
(-142,-239,l),
(6,-239,o),
(61,-156,o),
(98,-1,cs)
);
},
{
closed = 1;
nodes = (
(364,1324,o),
(412,1371,o),
(480,1371,cs),
(548,1371,o),
(599,1323,o),
(599,1264,cs),
(599,1204,o),
(548,1160,o),
(480,1160,cs),
(412,1160,o),
(364,1204,o),
(364,1264,cs)
);
}
);
width = 569;
},
{
layerId = "204F9CB2-94FB-4069-BE45-7F82EA7D2F19";
shapes = (
{
closed = 1;
nodes = (
(347,873,l),
(475,873,l),
(234,-67,l),
(181,-289,o),
(78,-380,o),
(-112,-380,cs),
(-122,-380,o),
(-128,-382,o),
(-158,-379,c),
(-130,-275,l),
(23,-270,o),
(80,-183,o),
(119,-16,c)
);
},
{
closed = 1;
nodes = (
(401,1321,o),
(439,1367,o),
(499,1367,cs),
(562,1367,o),
(602,1320,o),
(602,1278,cs),
(602,1232,o),
(562,1192,o),
(499,1192,cs),
(439,1192,o),
(401,1232,o),
(401,1278,cs)
);
}
);
width = 569;
}
);
unicode = 106;
},
{
glyphname = k;
layers = (
{
layerId = "FD1F61E9-2C7C-476B-BA00-6F7EA0BDC6A6";
shapes = (
{
closed = 1;
nodes = (
(503,343,l),
(381,343,l),
(308,0,l),
(9,0,l),
(300,1377,l),
(597,1377,l),
(424,551,l),
(524,566,l),
(818,912,l),
(1174,912,l),
(827,513,l),
(769,456,l),
(794,417,l),
(1010,0,l),
(674,0,l)
);
}
);
width = 1101;
},
{
layerId = "FB2915BF-3A78-4B7A-831F-149E9877B6A1";
shapes = (
{
closed = 1;
nodes = (
(463,360,l),
(353,360,l),
(271,0,l),
(25,0,l),
(332,1377,l),
(578,1377,l),
(389,529,l),
(476,545,l),
(795,900,l),
(1093,900,l),
(736,513,l),
(676,460,l),
(709,412,l),
(932,0,l),
(655,0,l)
);
}
);
width = 1024;
},
{
layerId = "14E32880-54EF-4278-81AC-E5D4AB6F58D5";
shapes = (
{
closed = 1;
nodes = (
(403,386,l),
(311,386,l),
(216,0,l),
(49,0,l),
(380,1377,l),
(549,1377,l),
(336,496,l),
(404,513,l),
(760,882,l),
(972,882,l),
(599,513,l),
(537,466,l),
(582,405,l),
(815,0,l),
(627,0,l)
);
}
);
width = 909;
},
{
layerId = "204F9CB2-94FB-4069-BE45-7F82EA7D2F19";
shapes = (
{
closed = 1;
nodes = (
(373,399,l),
(290,399,l),
(188,0,l),
(61,0,l),
(404,1377,l),
(534,1377,l),
(309,479,l),
(368,497,l),
(742,873,l),
(911,873,l),
(530,513,l),
(467,469,l),
(518,401,l),
(756,0,l),
(613,0,l)
);
}
);
width = 851;
}
);
unicode = 107;
},
{
glyphname = l;
layers = (
{
layerId = "FD1F61E9-2C7C-476B-BA00-6F7EA0BDC6A6";
shapes = (
{
closed = 1;
nodes = (
(385,460,l),
(361,342,o),
(360,326,o),
(360,275,cs),
(360,248,o),
(377,233,o),
(417,233,cs),
(446,233,o),
(482,235,o),
(512,241,c),
(529,4,l),
(489,-5,o),
(357,-25,o),
(270,-25,cs),
(128,-25,o),
(47,45,o),
(47,195,cs),
(47,212,o),
(51,286,o),
(74,392,c),
(317,1377,l),
(614,1377,l)
);
}
);
width = 569;
},
{
layerId = "FB2915BF-3A78-4B7A-831F-149E9877B6A1";
shapes = (
{
closed = 1;
nodes = (
(346,361,l),
(330,283,o),
(329,267,o),
(329,232,cs),
(329,202,o),
(345,187,o),
(378,187,cs),
(417,187,o),
(453,199,o),
(488,212,c),
(515,32,l),
(465,5,o),
(342,-21,o),
(269,-21,cs),
(144,-21,o),
(70,34,o),
(70,167,cs),
(70,187,o),
(74,243,o),
(91,320,c),
(350,1377,l),
(596,1377,l)
);
}
);
width = 569;
},
{
layerId = "14E32880-54EF-4278-81AC-E5D4AB6F58D5";
shapes = (
{
closed = 1;
nodes = (
(288,213,ls),
(283,194,o),
(282,179,o),
(282,168,cs),
(282,133,o),
(297,118,o),
(320,118,cs),
(373,118,o),
(409,145,o),
(452,168,c),
(494,74,l),
(429,20,o),
(319,-15,o),
(267,-15,cs),
(168,-15,o),
(105,18,o),
(105,125,cs),
(105,149,o),
(109,178,o),
(117,212,cs),
(400,1377,l),
(569,1377,l)
);
}
);
width = 569;
},
{
layerId = "204F9CB2-94FB-4069-BE45-7F82EA7D2F19";
shapes = (
{
closed = 1;
nodes = (
(259,139,l),
(259,149,o),
(258,135,o),
(258,136,c),
(258,98,o),
(273,83,o),
(291,83,cs),
(351,83,o),
(387,118,o),
(434,146,c),
(483,95,l),
(411,28,o),
(307,-12,o),
(266,-12,cs),
(180,-12,o),
(123,10,o),
(123,104,cs),
(123,130,o),
(127,145,o),
(130,158,cs),
(425,1377,l),
(555,1377,l)
);
}
);
width = 569;
}
);
unicode = 108;
},
{
glyphname = m;
layers = (
{
layerId = "FD1F61E9-2C7C-476B-BA00-6F7EA0BDC6A6";
shapes = (
{
closed = 1;
nodes = (
(577,0,l),
(674,484,l),
(687,542,o),
(729,666,o),
(633,666,cs),
(556,666,o),
(451,599,o),
(421,553,c),
(311,0,l),
(11,0,l),
(205,912,l),
(438,912,l),
(435,754,l),
(543,890,o),
(702,940,o),
(840,940,cs),
(944,940,o),
(998,860,o),
(995,737,c),
(1068,859,o),
(1230,940,o),
(1372,940,cs),
(1493,940,o),
(1571,893,o),
(1571,747,cs),
(1571,680,o),
(1563,615,o),
(1548,540,cs),
(1433,0,l),
(1138,0,l),
(1244,511,ls),
(1258,583,o),
(1282,666,o),
(1177,666,cs),
(1105,666,o),
(1006,596,o),
(985,551,c),
(871,0,l)
);
}
);
width = 1669;
},
{
layerId = "FB2915BF-3A78-4B7A-831F-149E9877B6A1";
shapes = (
{
closed = 1;
nodes = (
(574,0,l),
(681,491,ls),
(696,557,o),
(748,707,o),
(634,707,cs),
(538,707,o),
(433,615,o),
(392,555,c),
(273,0,l),
(26,0,l),
(228,900,l),
(417,900,l),
(408,747,l),
(507,858,o),
(639,925,o),
(789,925,cs),
(893,925,o),
(950,852,o),
(950,736,c),
(1027,842,o),
(1170,925,o),
(1307,925,cs),
(1430,925,o),
(1509,879,o),
(1509,735,cs),
(1509,675,o),
(1500,610,o),
(1483,533,cs),
(1364,0,l),
(1119,0,l),
(1234,519,l),
(1251,596,o),
(1285,707,o),
(1166,707,cs),
(1080,707,o),
(973,611,o),
(938,550,c),
(818,0,l)
);
}
);
width = 1593;
},
{
layerId = "14E32880-54EF-4278-81AC-E5D4AB6F58D5";
shapes = (
{
closed = 1;
nodes = (
(569,0,l),
(692,501,ls),
(710,580,o),
(777,769,o),
(636,769,cs),
(511,769,o),
(406,639,o),
(349,558,c),
(216,0,l),
(48,0,l),
(263,882,l),
(386,882,l),
(368,736,l),
(453,810,o),
(544,902,o),
(713,902,cs),
(817,902,o),
(878,840,o),
(883,734,c),
(965,816,o),
(1080,902,o),
(1209,902,cs),
(1336,902,o),
(1416,858,o),
(1416,717,cs),
(1416,668,o),
(1405,602,o),
(1386,523,cs),
(1260,0,l),
(1090,0,l),
(1219,531,ls),
(1240,615,o),
(1289,769,o),
(1150,769,cs),
(1042,769,o),
(924,633,o),
(868,548,c),
(738,0,l)
);
}
);
width = 1479;
},
{
layerId = "204F9CB2-94FB-4069-BE45-7F82EA7D2F19";
shapes = (
{
closed = 1;
nodes = (
(566,0,l),
(698,506,l),
(717,592,o),
(792,800,o),
(637,800,cs),
(497,800,o),
(392,651,o),
(327,560,c),
(187,0,l),
(59,0,l),
(281,873,l),
(370,873,l),
(348,730,l),
(426,786,o),
(496,890,o),
(675,890,cs),
(779,890,o),
(842,834,o),
(849,733,c),
(934,803,o),
(1035,890,o),
(1160,890,cs),
(1289,890,o),
(1369,847,o),
(1369,708,cs),
(1369,664,o),
(1357,598,o),
(1337,518,cs),
(1208,0,l),
(1075,0,l),
(1211,537,l),
(1234,625,o),
(1291,800,o),
(1142,800,cs),
(1023,800,o),
(899,644,o),
(833,547,c),
(698,0,l)
);
}
);
width = 1422;
}
);
unicode = 109;
},
{
glyphname = n;
layers = (
{
layerId = "FD1F61E9-2C7C-476B-BA00-6F7EA0BDC6A6";
shapes = (
{
closed = 1;
nodes = (
(689,0,l),
(809,559,l),
(814,586,o),
(814,602,o),
(814,616,cs),
(814,649,o),
(747,666,o),
(700,666,cs),
(618,666,o),
(485,595,o),
(442,527,c),
(331,0,l),
(31,0,l),
(225,912,l),
(450,912,l),
(441,752,l),
(495,804,o),
(679,940,o),
(893,940,cs),
(1002,940,o),
(1127,878,o),
(1127,728,cs),
(1127,693,o),
(1126,651,o),
(1119,616,c),
(987,0,l)
);
}
);
width = 1216;
},
{
layerId = "FB2915BF-3A78-4B7A-831F-149E9877B6A1";
shapes = (
{
closed = 1;
nodes = (
(666,0,l),
(792,558,ls),
(799,591,o),
(803,617,o),
(803,637,cs),
(803,681,o),
(752,707,o),
(688,707,cs),
(588,707,o),
(455,617,o),
(405,538,c),
(285,0,l),
(38,0,l),
(240,900,l),
(423,900,l),
(415,747,l),
(484,819,o),
(648,925,o),
(831,925,cs),
(951,925,o),
(1060,867,o),
(1060,719,cs),
(1060,684,o),
(1057,642,o),
(1048,601,cs),
(912,0,l)
);
}
);
width = 1139;
},
{
layerId = "14E32880-54EF-4278-81AC-E5D4AB6F58D5";
shapes = (
{
closed = 1;
nodes = (
(631,0,l),
(766,556,ls),
(777,599,o),
(786,639,o),
(786,668,cs),
(786,729,o),
(759,769,o),
(670,769,cs),
(543,769,o),
(410,650,o),
(349,555,c),
(216,0,l),
(49,0,l),
(263,882,l),
(383,882,l),
(376,740,l),
(468,841,o),
(601,902,o),
(738,902,cs),
(875,902,o),
(960,851,o),
(960,705,cs),
(960,670,o),
(954,628,o),
(942,579,cs),
(800,0,l)
);
}
);
width = 1024;
},
{
layerId = "204F9CB2-94FB-4069-BE45-7F82EA7D2F19";
shapes = (
{
closed = 1;
nodes = (
(613,0,l),
(753,555,l),
(766,603,o),
(777,650,o),
(777,684,cs),
(777,753,o),
(763,800,o),
(661,800,cs),
(520,800,o),
(387,667,o),
(321,564,c),
(181,0,l),
(55,0,l),
(275,873,l),
(363,873,l),
(356,736,l),
(460,852,o),
(577,890,o),
(691,890,cs),
(837,890,o),
(910,843,o),
(910,698,cs),
(910,663,o),
(902,621,o),
(889,568,cs),
(744,0,l)
);
}
);
width = 966;
}
);
unicode = 110;
},
{
glyphname = o;
layers = (
{
layerId = "FD1F61E9-2C7C-476B-BA00-6F7EA0BDC6A6";
shapes = (
{
closed = 1;
nodes = (
(41,730,o),
(279,940,o),
(580,940,cs),
(841,940,o),
(971,734,o),
(971,518,cs),
(971,215,o),
(764,-26,o),
(454,-26,cs),
(146,-26,o),
(41,200,o),
(41,386,cs)
);
},
{
closed = 1;
nodes = (
(343,296,o),
(397,232,o),
(457,232,cs),
(578,232,o),
(667,355,o),
(667,537,cs),
(667,608,o),
(660,681,o),
(558,681,cs),
(438,681,o),
(343,538,o),
(343,380,cs)
);
}
);
width = 1024;
},
{
layerId = "FB2915BF-3A78-4B7A-831F-149E9877B6A1";
shapes = (
{
closed = 1;
nodes = (
(56,697,o),
(298,925,o),
(602,925,cs),
(843,925,o),
(967,744,o),
(967,541,cs),
(967,230,o),
(749,-24,o),
(445,-24,cs),
(167,-24,o),
(56,165,o),
(56,353,cs)
);
},
{
closed = 1;
nodes = (
(308,251,o),
(366,184,o),
(449,184,cs),
(595,184,o),
(714,355,o),
(714,559,cs),
(714,651,o),
(679,716,o),
(579,716,cs),
(431,716,o),
(308,544,o),
(308,352,cs)
);
}
);
width = 1024;
},
{
layerId = "14E32880-54EF-4278-81AC-E5D4AB6F58D5";
shapes = (
{
closed = 1;
nodes = (
(79,648,o),
(327,902,o),
(635,902,cs),
(846,902,o),
(961,759,o),
(961,575,cs),
(961,253,o),
(726,-21,o),
(431,-21,cs),
(198,-21,o),
(79,112,o),
(79,304,cs)
);
},
{
closed = 1;
nodes = (
(256,183,o),
(320,112,o),
(437,112,cs),
(620,112,o),
(784,355,o),
(784,592,cs),
(784,715,o),
(707,769,o),
(610,769,cs),
(420,769,o),
(256,553,o),
(256,310,cs)
);
}
);
width = 1024;
},
{
layerId = "204F9CB2-94FB-4069-BE45-7F82EA7D2F19";
shapes = (
{
closed = 1;
nodes = (
(91,623,o),
(342,890,o),
(652,890,cs),
(848,890,o),
(958,767,o),
(958,592,cs),
(958,265,o),
(714,-19,o),
(424,-19,cs),
(214,-19,o),
(91,85,o),
(91,279,cs)
);
},
{
closed = 1;
nodes = (
(230,149,o),
(297,76,o),
(431,76,cs),
(633,76,o),
(819,355,o),
(819,609,cs),
(819,747,o),
(721,796,o),
(626,796,cs),
(414,796,o),
(230,558,o),
(230,289,cs)
);
}
);
width = 1024;
}
);
unicode = 111;
},
{
glyphname = p;
layers = (
{
layerId = "FD1F61E9-2C7C-476B-BA00-6F7EA0BDC6A6";
shapes = (
{
closed = 1;
nodes = (
(198,912,l),
(413,912,l),
(410,754,l),
(406,744,o),
(400,736,o),
(396,726,c),
(470,824,o),
(585,940,o),
(747,940,cs),
(892,940,o),
(996,843,o),
(996,652,cs),
(996,231,o),
(746,-26,o),
(455,-26,cs),
(402,-26,o),
(336,-12,o),
(306,9,c),
(218,-367,l),
(-77,-367,l)
);
},
{
closed = 1;
nodes = (
(349,253,l),
(370,240,o),
(400,232,o),
(441,232,cs),
(611,232,o),
(695,428,o),
(695,598,cs),
(695,649,o),
(680,681,o),
(604,681,cs),
(502,681,o),
(460,628,o),
(423,566,c),
(423,573,l)
);
}
);
width = 1024;
},
{
layerId = "FB2915BF-3A78-4B7A-831F-149E9877B6A1";
shapes = (
{
closed = 1;
nodes = (
(225,900,l),
(403,900,l),
(395,747,l),
(398,747,o),
(400,747,o),
(403,747,c),
(477,832,o),
(585,925,o),
(733,925,cs),
(871,925,o),
(982,840,o),
(982,644,cs),
(982,249,o),
(740,-24,o),
(436,-24,cs),
(369,-24,o),
(303,-10,o),
(272,9,c),
(183,-367,l),
(-62,-367,l)
);
},
{
closed = 1;
nodes = (
(312,210,l),
(341,193,o),
(377,184,o),
(421,184,cs),
(602,184,o),
(731,383,o),
(731,608,cs),
(731,672,o),
(701,716,o),
(625,716,cs),
(510,716,o),
(437,629,o),
(394,557,c),
(394,561,l)
);
}
);
width = 1024;
},
{
layerId = "14E32880-54EF-4278-81AC-E5D4AB6F58D5";
shapes = (
{
closed = 1;
nodes = (
(266,882,l),
(388,882,l),
(373,737,l),
(386,751,o),
(400,764,o),
(414,778,c),
(488,844,o),
(585,902,o),
(712,902,cs),
(840,902,o),
(961,836,o),
(961,632,cs),
(961,276,o),
(731,-21,o),
(407,-21,cs),
(320,-21,o),
(253,-7,o),
(221,9,c),
(131,-367,l),
(-39,-367,l)
);
},
{
closed = 1;
nodes = (
(257,146,l),
(297,123,o),
(342,112,o),
(391,112,cs),
(589,112,o),
(785,315,o),
(785,623,cs),
(785,707,o),
(732,769,o),
(656,769,cs),
(522,769,o),
(403,630,o),
(350,543,c),
(350,543,l)
);
}
);
width = 1024;
},
{
layerId = "204F9CB2-94FB-4069-BE45-7F82EA7D2F19";
shapes = (
{
closed = 1;
nodes = (
(287,873,l),
(380,873,l),
(362,732,l),
(380,753,o),
(400,773,o),
(420,794,c),
(494,850,o),
(585,890,o),
(701,890,cs),
(824,890,o),
(950,834,o),
(950,626,cs),
(950,290,o),
(726,-19,o),
(392,-19,cs),
(295,-19,o),
(228,-5,o),
(195,9,c),
(105,-367,l),
(-27,-367,l)
);
},
{
closed = 1;
nodes = (
(229,114,l),
(275,88,o),
(324,76,o),
(376,76,cs),
(582,76,o),
(812,281,o),
(812,631,cs),
(812,725,o),
(748,796,o),
(672,796,cs),
(528,796,o),
(386,631,o),
(328,536,c),
(328,534,l)
);
}
);
width = 1024;
}
);
unicode = 112;
},
{
glyphname = q;
layers = (
{
layerId = "FD1F61E9-2C7C-476B-BA00-6F7EA0BDC6A6";
shapes = (
{
closed = 1;
nodes = (
(725,-367,l),
(436,-367,l),
(543,141,l),
(538,141,l),
(490,67,o),
(391,-26,o),
(263,-26,cs),
(89,-26,o),
(8,125,o),
(8,276,cs),
(8,649,o),
(234,940,o),
(626,937,c),
(764,937,o),
(913,904,o),
(992,870,c)
);
},
{
closed = 1;
nodes = (
(649,666,l),
(621,676,o),
(601,680,o),
(548,680,cs),
(392,680,o),
(310,495,o),
(310,334,cs),
(310,283,o),
(321,232,o),
(399,232,cs),
(482,232,o),
(540,273,o),
(598,388,c)
);
}
);
width = 1024;
},
{
layerId = "FB2915BF-3A78-4B7A-831F-149E9877B6A1";
shapes = (
{
closed = 1;
nodes = (
(708,-367,l),
(468,-367,l),
(580,136,l),
(577,136,l),
(523,63,o),
(423,-24,o),
(292,-24,cs),
(116,-24,o),
(41,113,o),
(41,267,cs),
(41,623,o),
(282,921,o),
(649,921,cs),
(777,921,o),
(916,889,o),
(986,857,c)
);
},
{
closed = 1;
nodes = (
(704,697,l),
(671,709,o),
(635,713,o),
(587,713,cs),
(414,713,o),
(293,506,o),
(293,307,cs),
(293,235,o),
(315,184,o),
(390,184,cs),
(492,184,o),
(579,270,o),
(635,377,c)
);
}
);
width = 1024;
},
{
layerId = "14E32880-54EF-4278-81AC-E5D4AB6F58D5";
shapes = (
{
closed = 1;
nodes = (
(683,-367,l),
(516,-367,l),
(636,129,l),
(636,129,l),
(572,57,o),
(471,-21,o),
(335,-21,cs),
(156,-21,o),
(90,95,o),
(90,254,cs),
(90,584,o),
(354,893,o),
(683,897,c),
(796,897,o),
(920,867,o),
(977,837,c)
);
},
{
closed = 1;
nodes = (
(787,744,l),
(746,759,o),
(686,763,o),
(645,763,cs),
(447,763,o),
(267,522,o),
(267,266,cs),
(267,163,o),
(306,112,o),
(377,112,cs),
(507,112,o),
(637,266,o),
(691,360,c)
);
}
);
width = 1024;
},
{
layerId = "204F9CB2-94FB-4069-BE45-7F82EA7D2F19";
shapes = (
{
closed = 1;
nodes = (
(670,-367,l),
(540,-367,l),
(664,125,l),
(666,125,l),
(597,54,o),
(495,-19,o),
(357,-19,cs),
(176,-19,o),
(115,86,o),
(115,247,cs),
(115,564,o),
(390,879,o),
(700,885,c),
(806,885,o),
(922,856,o),
(972,827,c)
);
},
{
closed = 1;
nodes = (
(829,768,l),
(784,784,o),
(712,788,o),
(674,788,cs),
(464,788,o),
(254,530,o),
(254,245,cs),
(254,127,o),
(301,76,o),
(370,76,cs),
(515,76,o),
(666,264,o),
(719,351,c)
);
}
);
width = 1024;
}
);
unicode = 113;
},
{
glyphname = r;
layers = (
{
layerId = "FD1F61E9-2C7C-476B-BA00-6F7EA0BDC6A6";
shapes = (
{
closed = 1;
nodes = (
(406,912,l),
(415,752,l),
(414,744,o),
(413,736,o),
(411,728,c),
(467,832,o),
(529,927,o),
(665,927,cs),
(723,927,o),
(786,923,o),
(822,889,c),
(718,637,l),
(685,660,o),
(668,661,o),
(622,661,cs),
(521,661,o),
(437,599,o),
(405,537,c),
(295,0,l),
(-3,0,l),
(191,912,l)
);
}
);
width = 797;
},
{
layerId = "FB2915BF-3A78-4B7A-831F-149E9877B6A1";
shapes = (
{
closed = 1;
nodes = (
(405,900,l),
(410,747,l),
(413,747,o),
(416,747,o),
(419,747,c),
(476,836,o),
(545,914,o),
(669,914,cs),
(730,914,o),
(797,900,o),
(833,865,c),
(746,661,l),
(715,686,o),
(688,697,o),
(635,697,cs),
(524,697,o),
(436,628,o),
(393,550,c),
(272,0,l),
(26,0,l),
(228,900,l)
);
}
);
width = 797;
},
{
layerId = "14E32880-54EF-4278-81AC-E5D4AB6F58D5";
shapes = (
{
closed = 1;
nodes = (
(403,882,l),
(403,740,l),
(412,752,o),
(421,763,o),
(431,775,cs),
(490,842,o),
(569,894,o),
(675,894,cs),
(740,894,o),
(813,865,o),
(849,829,c),
(788,697,l),
(760,725,o),
(718,751,o),
(655,751,cs),
(528,751,o),
(434,671,o),
(375,570,c),
(237,0,l),
(69,0,l),
(284,882,l)
);
}
);
width = 797;
},
{
layerId = "204F9CB2-94FB-4069-BE45-7F82EA7D2F19";
shapes = (
{
closed = 1;
nodes = (
(402,873,l),
(399,736,l),
(411,755,o),
(424,771,o),
(437,789,c),
(497,845,o),
(581,884,o),
(678,884,cs),
(745,884,o),
(821,847,o),
(857,811,c),
(809,715,l),
(783,745,o),
(733,778,o),
(665,778,cs),
(530,778,o),
(433,693,o),
(366,580,c),
(219,0,l),
(91,0,l),
(312,873,l)
);
}
);
width = 797;
}
);
unicode = 114;
},
{
glyphname = s;
layers = (
{
layerId = "FD1F61E9-2C7C-476B-BA00-6F7EA0BDC6A6";
shapes = (
{
closed = 1;
nodes = (
(111,274,o),
(181,232,o),
(275,232,cs),
(359,232,o),
(394,244,o),
(394,288,cs),
(394,401,o),
(53,365,o),
(53,644,cs),
(53,803,o),
(184,940,o),
(431,940,cs),
(594,940,o),
(700,903,o),
(765,871,c),
(750,828,o),
(705,685,o),
(690,638,c),
(645,651,o),
(552,681,o),
(482,681,cs),
(393,681,o),
(355,664,o),
(355,647,cs),
(355,565,o),
(695,550,o),
(695,274,cs),
(695,93,o),
(570,-26,o),
(276,-26,cs),
(114,-26,o),
(32,30,o),
(-39,66,c),
(-18,120,o),
(43,276,o),
(53,305,c)
);
}
);
width = 797;
},
{
layerId = "FB2915BF-3A78-4B7A-831F-149E9877B6A1";
shapes = (
{
closed = 1;
nodes = (
(112,233,o),
(198,184,o),
(292,184,cs),
(384,184,o),
(437,209,o),
(437,264,cs),
(437,398,o),
(104,377,o),
(104,650,cs),
(104,813,o),
(244,925,o),
(462,925,cs),
(614,925,o),
(717,880,o),
(782,848,c),
(769,815,o),
(724,701,o),
(709,663,c),
(659,681,o),
(573,716,o),
(493,716,cs),
(409,716,o),
(356,697,o),
(356,652,cs),
(356,547,o),
(689,525,o),
(689,270,cs),
(689,73,o),
(536,-24,o),
(301,-24,cs),
(135,-24,o),
(39,35,o),
(-28,73,c),
(-10,114,o),
(44,237,o),
(56,265,c)
);
}
);
width = 797;
},
{
layerId = "14E32880-54EF-4278-81AC-E5D4AB6F58D5";
shapes = (
{
closed = 1;
nodes = (
(113,156,o),
(224,112,o),
(317,112,cs),
(422,112,o),
(502,156,o),
(502,228,cs),
(502,394,o),
(180,395,o),
(180,659,cs),
(180,828,o),
(334,902,o),
(509,902,cs),
(644,902,o),
(743,875,o),
(808,814,c),
(797,796,o),
(752,725,o),
(737,700,c),
(680,743,o),
(604,769,o),
(509,769,cs),
(433,769,o),
(358,747,o),
(358,659,cs),
(358,520,o),
(680,488,o),
(680,264,cs),
(680,43,o),
(485,-21,o),
(338,-21,cs),
(166,-21,o),
(50,27,o),
(-11,83,c),
(2,105,o),
(46,179,o),
(61,205,c)
);
}
);
width = 797;
},
{
layerId = "204F9CB2-94FB-4069-BE45-7F82EA7D2F19";
shapes = (
{
closed = 1;
nodes = (
(114,117,o),
(237,76,o),
(330,76,cs),
(441,76,o),
(535,129,o),
(535,210,cs),
(535,392,o),
(218,404,o),
(218,664,cs),
(218,836,o),
(379,890,o),
(533,890,cs),
(659,890,o),
(756,872,o),
(821,797,c),
(811,786,o),
(766,737,o),
(751,719,c),
(691,774,o),
(620,796,o),
(517,796,cs),
(445,796,o),
(359,772,o),
(359,663,cs),
(359,506,o),
(675,469,o),
(675,261,cs),
(675,28,o),
(459,-19,o),
(357,-19,cs),
(182,-19,o),
(56,23,o),
(-2,88,c),
(8,100,o),
(47,150,o),
(64,175,c)
);
}
);
width = 797;
}
);
unicode = 115;
},
{
glyphname = t;
layers = (
{
layerId = "FD1F61E9-2C7C-476B-BA00-6F7EA0BDC6A6";
shapes = (
{
closed = 1;
nodes = (
(97,910,l),
(170,910,l),
(242,1203,l),
(556,1278,l),
(472,910,l),
(574,910,l),
(515,651,l),
(420,651,l),
(360,354,ls),
(354,326,o),
(347,298,o),
(347,280,cs),
(347,243,o),
(359,232,o),
(415,232,cs),
(432,232,o),
(481,238,o),
(504,247,c),
(477,-9,l),
(423,-22,o),
(353,-26,o),
(285,-26,cs),
(125,-26,o),
(35,38,o),
(35,176,cs),
(35,200,o),
(36,227,o),
(43,252,c),
(119,651,l),
(36,651,l)
);
}
);
width = 569;
},
{
layerId = "FB2915BF-3A78-4B7A-831F-149E9877B6A1";
shapes = (
{
closed = 1;
nodes = (
(120,899,l),
(206,899,l),
(266,1142,l),
(527,1205,l),
(455,899,l),
(588,899,l),
(538,690,l),
(411,690,l),
(322,308,ls),
(315,277,o),
(310,254,o),
(310,237,cs),
(310,196,o),
(327,184,o),
(370,184,cs),
(407,184,o),
(437,186,o),
(458,197,c),
(458,7,l),
(402,-13,o),
(350,-24,o),
(266,-24,cs),
(130,-24,o),
(52,35,o),
(52,159,cs),
(52,182,o),
(53,208,o),
(60,235,c),
(162,690,l),
(69,690,l)
);
}
);
width = 569;
},
{
layerId = "14E32880-54EF-4278-81AC-E5D4AB6F58D5";
shapes = (
{
closed = 1;
nodes = (
(154,882,l),
(260,882,l),
(302,1050,l),
(483,1095,l),
(430,882,l),
(609,882,l),
(573,748,l),
(397,748,l),
(265,239,l),
(257,204,o),
(255,188,o),
(255,173,cs),
(255,126,o),
(279,112,o),
(302,112,cs),
(369,112,o),
(412,145,o),
(449,182,c),
(489,91,l),
(430,16,o),
(346,-21,o),
(238,-21,cs),
(138,-21,o),
(77,30,o),
(77,134,cs),
(77,155,o),
(79,180,o),
(86,209,cs),
(227,748,l),
(119,748,l)
);
}
);
width = 569;
},
{
layerId = "204F9CB2-94FB-4069-BE45-7F82EA7D2F19";
shapes = (
{
closed = 1;
nodes = (
(171,873,l),
(287,873,l),
(320,1004,l),
(461,1040,l),
(417,873,l),
(620,873,l),
(591,777,l),
(390,777,l),
(236,204,l),
(228,167,o),
(227,155,o),
(227,141,cs),
(227,91,o),
(255,76,o),
(268,76,cs),
(350,76,o),
(399,124,o),
(444,174,c),
(505,133,l),
(444,31,o),
(344,-19,o),
(224,-19,cs),
(142,-19,o),
(90,27,o),
(90,121,cs),
(90,141,o),
(92,166,o),
(99,196,c),
(260,777,l),
(144,777,l)
);
}
);
width = 569;
}
);
unicode = 116;
},
{
glyphname = u;
layers = (
{
layerId = "FD1F61E9-2C7C-476B-BA00-6F7EA0BDC6A6";
shapes = (
{
closed = 1;
nodes = (
(252,-26,o),
(79,44,o),
(79,238,cs),
(79,298,o),
(96,367,o),
(107,413,c),
(208,912,l),
(507,912,l),
(416,455,ls),
(409,422,o),
(397,392,o),
(397,347,cs),
(397,286,o),
(426,262,o),
(525,262,cs),
(619,262,o),
(732,324,o),
(764,369,c),
(863,912,l),
(1160,912,l),
(1053,357,l),
(1067,407,o),
(995,231,o),
(1106,231,cs),
(1113,231,o),
(1120,231,o),
(1128,232,c),
(1147,-13,l),
(1087,-21,o),
(1018,-27,o),
(978,-27,c),
(845,-27,o),
(743,22,o),
(720,126,c),
(640,53,o),
(512,-26,o),
(381,-26,cs)
);
}
);
width = 1216;
},
{
layerId = "FB2915BF-3A78-4B7A-831F-149E9877B6A1";
shapes = (
{
closed = 1;
nodes = (
(221,-24,o),
(80,36,o),
(80,213,cs),
(80,265,o),
(93,327,o),
(104,374,cs),
(228,900,l),
(474,900,l),
(355,391,ls),
(348,359,o),
(339,330,o),
(339,293,cs),
(339,234,o),
(365,202,o),
(452,202,cs),
(557,202,o),
(675,286,o),
(720,352,c),
(841,900,l),
(1087,900,l),
(966,360,l),
(956,312,o),
(916,187,o),
(998,187,cs),
(1021,187,o),
(1035,195,o),
(1049,202,c),
(1074,20,l),
(1015,-2,o),
(944,-21,o),
(889,-21,c),
(782,-21,o),
(700,25,o),
(691,138,c),
(611,58,o),
(485,-24,o),
(346,-24,cs)
);
}
);
width = 1139;
},
{
layerId = "14E32880-54EF-4278-81AC-E5D4AB6F58D5";
shapes = (
{
closed = 1;
nodes = (
(174,-21,o),
(81,24,o),
(81,176,cs),
(81,216,o),
(88,267,o),
(100,315,c),
(258,882,l),
(425,882,l),
(264,295,l),
(257,264,o),
(252,237,o),
(252,212,cs),
(252,156,o),
(274,112,o),
(343,112,cs),
(464,112,o),
(590,229,o),
(654,327,c),
(808,882,l),
(978,882,l),
(835,364,l),
(790,169,o),
(798,121,o),
(836,121,cs),
(884,121,o),
(907,141,o),
(930,156,c),
(964,70,l),
(907,26,o),
(833,-13,o),
(756,-12,cs),
(687,-12,o),
(635,29,o),
(648,156,c),
(568,65,o),
(445,-21,o),
(294,-21,cs)
);
}
);
width = 1024;
},
{
layerId = "204F9CB2-94FB-4069-BE45-7F82EA7D2F19";
shapes = (
{
closed = 1;
nodes = (
(150,-19,o),
(82,18,o),
(82,157,cs),
(82,191,o),
(85,237,o),
(98,285,c),
(273,873,l),
(400,873,l),
(218,247,l),
(211,216,o),
(208,190,o),
(208,171,cs),
(208,117,o),
(228,67,o),
(288,67,cs),
(417,67,o),
(547,200,o),
(621,314,c),
(791,873,l),
(923,873,l),
(769,366,l),
(706,97,o),
(739,88,o),
(754,88,cs),
(807,88,o),
(823,112,o),
(840,128,c),
(878,89,l),
(817,37,o),
(768,-9,o),
(689,-7,c),
(639,-7,o),
(602,31,o),
(626,165,c),
(546,69,o),
(425,-19,o),
(268,-19,cs)
);
}
);
width = 966;
}
);
unicode = 117;
},
{
glyphname = v;
layers = (
{
layerId = "FD1F61E9-2C7C-476B-BA00-6F7EA0BDC6A6";
shapes = (
{
closed = 1;
nodes = (
(410,507,l),
(416,342,l),
(482,505,l),
(697,912,l),
(1053,912,l),
(425,-2,l),
(236,-2,l),
(21,912,l),
(358,912,l)
);
}
);
width = 909;
},
{
layerId = "FB2915BF-3A78-4B7A-831F-149E9877B6A1";
shapes = (
{
closed = 1;
nodes = (
(407,454,l),
(413,333,l),
(485,454,l),
(728,900,l),
(1017,900,l),
(415,-9,l),
(272,-9,l),
(64,900,l),
(335,900,l)
);
}
);
width = 909;
},
{
layerId = "14E32880-54EF-4278-81AC-E5D4AB6F58D5";
shapes = (
{
closed = 1;
nodes = (
(402,375,l),
(412,231,l),
(490,378,l),
(775,882,l),
(963,882,l),
(400,-19,l),
(326,-19,l),
(129,882,l),
(300,882,l)
);
}
);
width = 909;
},
{
layerId = "204F9CB2-94FB-4069-BE45-7F82EA7D2F19";
shapes = (
{
closed = 1;
nodes = (
(399,335,l),
(417,180,l),
(497,335,l),
(799,873,l),
(936,873,l),
(392,-24,l),
(353,-24,l),
(162,873,l),
(282,873,l)
);
}
);
width = 909;
}
);
unicode = 118;
},
{
glyphname = w;
layers = (
{
layerId = "FD1F61E9-2C7C-476B-BA00-6F7EA0BDC6A6";
shapes = (
{
closed = 1;
nodes = (
(116,0,l),
(14,912,l),
(318,912,l),
(336,508,l),
(323,343,l),
(422,530,l),
(645,912,l),
(857,912,l),
(943,497,l),
(957,342,l),
(1017,505,l),
(1191,912,l),
(1482,912,l),
(1005,0,l),
(773,0,l),
(686,451,l),
(669,554,l),
(616,447,l),
(364,0,l)
);
}
);
width = 1366;
},
{
layerId = "FB2915BF-3A78-4B7A-831F-149E9877B6A1";
shapes = (
{
closed = 1;
nodes = (
(171,-9,l),
(71,900,l),
(322,900,l),
(353,449,l),
(346,308,l),
(422,463,l),
(677,900,l),
(853,900,l),
(927,442,l),
(938,307,l),
(994,452,l),
(1210,900,l),
(1457,900,l),
(960,-9,l),
(786,-9,l),
(708,481,l),
(695,589,l),
(643,480,l),
(354,-9,l)
);
}
);
width = 1366;
},
{
layerId = "14E32880-54EF-4278-81AC-E5D4AB6F58D5";
shapes = (
{
closed = 1;
nodes = (
(254,-19,l),
(157,882,l),
(328,882,l),
(379,361,l),
(380,255,l),
(422,363,l),
(725,882,l),
(847,882,l),
(903,360,l),
(910,254,l),
(960,372,l),
(1239,882,l),
(1420,882,l),
(893,-19,l),
(805,-19,l),
(741,526,l),
(734,641,l),
(684,529,l),
(339,-19,l)
);
}
);
width = 1366;
},
{
layerId = "204F9CB2-94FB-4069-BE45-7F82EA7D2F19";
shapes = (
{
closed = 1;
nodes = (
(296,-24,l),
(200,873,l),
(331,873,l),
(392,317,l),
(392,228,l),
(422,313,l),
(749,873,l),
(844,873,l),
(891,319,l),
(896,227,l),
(943,332,l),
(1254,873,l),
(1401,873,l),
(859,-24,l),
(815,-24,l),
(758,549,l),
(754,667,l),
(705,554,l),
(331,-24,l)
);
}
);
width = 1366;
}
);
unicode = 119;
},
{
glyphname = x;
layers = (
{
layerId = "FD1F61E9-2C7C-476B-BA00-6F7EA0BDC6A6";
shapes = (
{
closed = 1;
nodes = (
(330,468,l),
(165,912,l),
(508,912,l),
(559,747,l),
(580,607,l),
(701,774,l),
(809,912,l),
(1177,912,l),
(808,478,l),
(998,0,l),
(662,0,l),
(588,192,l),
(559,348,l),
(440,171,l),
(316,0,l),
(-54,0,l)
);
}
);
width = 1101;
},
{
layerId = "FB2915BF-3A78-4B7A-831F-149E9877B6A1";
shapes = (
{
closed = 1;
nodes = (
(346,465,l),
(166,900,l),
(446,900,l),
(518,708,l),
(547,586,l),
(635,712,l),
(786,900,l),
(1087,900,l),
(711,462,l),
(910,0,l),
(636,0,l),
(544,215,l),
(511,345,l),
(419,209,l),
(247,0,l),
(-55,0,l)
);
}
);
width = 1024;
},
{
layerId = "14E32880-54EF-4278-81AC-E5D4AB6F58D5";
shapes = (
{
closed = 1;
nodes = (
(370,461,l),
(168,882,l),
(353,882,l),
(457,650,l),
(498,555,l),
(536,619,l),
(752,882,l),
(952,882,l),
(566,438,l),
(778,0,l),
(597,0,l),
(478,250,l),
(439,341,l),
(388,266,l),
(144,0,l),
(-56,0,l)
);
}
);
width = 909;
},
{
layerId = "204F9CB2-94FB-4069-BE45-7F82EA7D2F19";
shapes = (
{
closed = 1;
nodes = (
(382,459,l),
(169,873,l),
(306,873,l),
(426,621,l),
(473,539,l),
(486,572,l),
(735,873,l),
(884,873,l),
(493,426,l),
(712,0,l),
(577,0,l),
(445,268,l),
(403,339,l),
(372,295,l),
(92,0,l),
(-57,0,l)
);
}
);
width = 851;
}
);
unicode = 120;
},
{
glyphname = y;
layers = (
{
layerId = "FD1F61E9-2C7C-476B-BA00-6F7EA0BDC6A6";
shapes = (
{
closed = 1;
nodes = (
(423,343,l),
(707,912,l),
(1033,912,l),
(550,104,l),
(394,-160,o),
(266,-375,o),
(101,-375,cs),
(36,-375,o),
(-11,-365,o),
(-48,-337,c),
(32,-107,l),
(36,-116,o),
(52,-112,o),
(75,-112,cs),
(138,-112,o),
(156,-109,o),
(246,25,c),
(55,912,l),
(397,912,l)
);
}
);
width = 909;
},
{
layerId = "FB2915BF-3A78-4B7A-831F-149E9877B6A1";
shapes = (
{
closed = 1;
nodes = (
(429,278,l),
(732,900,l),
(1001,900,l),
(545,95,ls),
(404,-155,o),
(257,-376,o),
(91,-376,cs),
(34,-376,o),
(-8,-368,o),
(-45,-345,c),
(25,-152,l),
(36,-159,o),
(53,-158,o),
(72,-158,cs),
(139,-158,o),
(183,-125,o),
(273,18,c),
(79,900,l),
(356,900,l)
);
}
);
width = 909;
},
{
layerId = "14E32880-54EF-4278-81AC-E5D4AB6F58D5";
shapes = (
{
closed = 1;
nodes = (
(438,181,l),
(770,882,l),
(953,882,l),
(538,82,ls),
(419,-148,o),
(243,-378,o),
(76,-378,cs),
(31,-378,o),
(-4,-373,o),
(-40,-357,c),
(15,-219,l),
(36,-224,o),
(54,-227,o),
(67,-227,cs),
(140,-227,o),
(223,-149,o),
(314,8,c),
(115,882,l),
(294,882,l)
);
}
);
width = 909;
},
{
layerId = "204F9CB2-94FB-4069-BE45-7F82EA7D2F19";
shapes = (
{
closed = 1;
nodes = (
(443,132,l),
(789,873,l),
(929,873,l),
(534,75,ls),
(427,-144,o),
(236,-379,o),
(68,-379,cs),
(29,-379,o),
(-2,-376,o),
(-37,-363,c),
(10,-253,l),
(36,-257,o),
(55,-262,o),
(64,-262,cs),
(141,-262,o),
(243,-161,o),
(335,3,c),
(133,873,l),
(263,873,l)
);
}
);
width = 909;
}
);
unicode = 121;
},
{
glyphname = z;
layers = (
{
layerId = "FD1F61E9-2C7C-476B-BA00-6F7EA0BDC6A6";
shapes = (
{
closed = 1;
nodes = (
(-9,268,l),
(361,600,l),
(449,645,l),
(67,645,l),
(128,912,l),
(842,912,l),
(787,646,l),
(398,304,l),
(338,268,l),
(710,268,l),
(651,0,l),
(-64,0,l)
);
}
);
width = 797;
},
{
layerId = "FB2915BF-3A78-4B7A-831F-149E9877B6A1";
shapes = (
{
closed = 1;
nodes = (
(0,215,l),
(433,635,l),
(509,683,l),
(105,683,l),
(156,900,l),
(835,900,l),
(788,685,l),
(346,259,l),
(288,217,l),
(683,217,l),
(634,0,l),
(-45,0,l)
);
}
);
width = 797;
},
{
layerId = "14E32880-54EF-4278-81AC-E5D4AB6F58D5";
shapes = (
{
closed = 1;
nodes = (
(13,136,l),
(541,688,l),
(599,740,l),
(162,740,l),
(198,882,l),
(825,882,l),
(790,744,l),
(268,191,l),
(213,141,l),
(642,141,l),
(609,0,l),
(-17,0,l)
);
}
);
width = 797;
},
{
layerId = "204F9CB2-94FB-4069-BE45-7F82EA7D2F19";
shapes = (
{
closed = 1;
nodes = (
(20,96,l),
(595,715,l),
(644,769,l),
(191,769,l),
(219,873,l),
(820,873,l),
(791,774,l),
(229,157,l),
(175,103,l),
(621,103,l),
(596,0,l),
(-3,0,l)
);
}
);
width = 797;
}
);
unicode = 122;
},
{
glyphname = braceleft;
layers = (
{
layerId = "FD1F61E9-2C7C-476B-BA00-6F7EA0BDC6A6";
shapes = (
{
closed = 1;
nodes = (
(38,161,l),
(52,227,o),
(46,273,o),
(22,297,c),
(-5,321,o),
(-44,334,o),
(-97,334,c),
(-52,577,l),
(56,577,o),
(124,628,o),
(146,741,c),
(218,1140,l),
(223,1164,o),
(232,1186,o),
(242,1206,c),
(263,1244,o),
(290,1277,o),
(322,1306,cs),
(370,1350,o),
(435,1365,o),
(519,1359,c),
(531,1359,o),
(543,1358,o),
(555,1358,cs),
(784,1358,l),
(732,1083,l),
(628,1083,ls),
(553,1083,o),
(516,1051,o),
(501,966,cs),
(441,630,ls),
(439,619,o),
(436,608,o),
(433,597,c),
(416,552,o),
(389,518,o),
(351,495,c),
(328,483,o),
(306,472,o),
(285,465,c),
(278,469,o),
(272,471,o),
(265,470,c),
(261,448,l),
(298,443,o),
(329,424,o),
(353,390,cs),
(377,356,o),
(385,312,o),
(374,258,c),
(309,-97,l),
(319,-53,l),
(303,-134,o),
(330,-170,o),
(405,-170,cs),
(507,-170,l),
(456,-445,l),
(145,-445,l),
(167,-445,l),
(36,-445,o),
(-33,-377,o),
(-32,-258,cs),
(-32,-242,o),
(-31,-225,o),
(-27,-208,c)
);
}
);
width = 642;
},
{
layerId = "FB2915BF-3A78-4B7A-831F-149E9877B6A1";
shapes = (
{
closed = 1;
nodes = (
(149,180,l),
(163,246,o),
(157,291,o),
(133,316,cs),
(108,341,o),
(69,353,o),
(15,353,c),
(55,558,l),
(163,558,o),
(232,609,o),
(255,722,cs),
(331,1116,l),
(336,1139,o),
(343,1161,o),
(351,1181,cs),
(367,1222,o),
(390,1258,o),
(419,1289,cs),
(463,1335,o),
(524,1358,o),
(602,1358,cs),
(614,1358,o),
(626,1358,o),
(638,1358,cs),
(853,1358,l),
(809,1131,l),
(703,1131,ls),
(628,1131,o),
(588,1096,o),
(572,1013,cs),
(502,651,ls),
(500,640,o),
(497,629,o),
(494,618,cs),
(481,577,o),
(460,545,o),
(431,522,cs),
(413,508,o),
(395,496,o),
(376,487,cs),
(358,478,o),
(339,472,o),
(319,469,c),
(315,449,l),
(352,444,o),
(382,425,o),
(406,391,cs),
(430,357,o),
(437,313,o),
(426,259,cs),
(356,-100,l),
(356,-100,l),
(340,-181,o),
(366,-218,o),
(443,-218,cs),
(547,-218,l),
(503,-445,l),
(252,-445,l),
(252,-445,l),
(122,-445,o),
(57,-375,o),
(69,-249,cs),
(70,-235,o),
(72,-220,o),
(75,-205,cs)
);
}
);
width = 713;
},
{
layerId = "14E32880-54EF-4278-81AC-E5D4AB6F58D5";
shapes = (
{
closed = 1;
nodes = (
(315,209,ls),
(329,275,o),
(323,318,o),
(300,345,cs),
(277,371,o),
(238,381,o),
(183,381,c),
(215,529,l),
(323,529,o),
(394,580,o),
(418,693,cs),
(500,1080,l),
(505,1101,o),
(509,1123,o),
(514,1144,c),
(523,1189,o),
(540,1230,o),
(565,1263,cs),
(603,1313,o),
(658,1347,o),
(727,1356,cs),
(739,1357,o),
(751,1358,o),
(763,1358,cs),
(957,1358,l),
(924,1203,l),
(815,1203,ls),
(741,1203,o),
(696,1163,o),
(679,1083,cs),
(593,682,ls),
(591,671,o),
(588,660,o),
(586,649,cs),
(579,615,o),
(567,586,o),
(551,562,c),
(541,545,o),
(528,532,o),
(513,520,cs),
(478,491,o),
(440,474,o),
(400,467,c),
(396,451,l),
(433,446,o),
(462,426,o),
(485,392,c),
(509,359,o),
(515,315,o),
(504,261,cs),
(426,-104,l),
(412,-170,ls),
(395,-251,o),
(420,-290,o),
(500,-290,cs),
(607,-290,l),
(574,-445,l),
(412,-445,l),
(380,-445,ls),
(251,-445,o),
(192,-372,o),
(221,-235,cs),
(223,-224,o),
(226,-212,o),
(228,-201,cs)
);
}
);
width = 819;
},
{
layerId = "204F9CB2-94FB-4069-BE45-7F82EA7D2F19";
shapes = (
{
closed = 1;
nodes = (
(399,224,ls),
(413,290,o),
(407,332,o),
(384,360,cs),
(362,386,o),
(323,395,o),
(268,395,c),
(296,514,l),
(404,514,o),
(476,565,o),
(500,678,cs),
(585,1062,l),
(590,1082,o),
(593,1104,o),
(596,1125,c),
(602,1172,o),
(616,1216,o),
(638,1250,cs),
(673,1302,o),
(725,1341,o),
(790,1355,c),
(802,1356,o),
(814,1358,o),
(826,1358,cs),
(1009,1358,l),
(982,1239,l),
(871,1239,ls),
(798,1239,o),
(750,1197,o),
(733,1118,cs),
(639,698,ls),
(637,687,o),
(634,676,o),
(632,665,cs),
(628,634,o),
(621,607,o),
(611,582,c),
(605,564,o),
(595,550,o),
(582,537,c),
(538,498,o),
(491,475,o),
(441,466,c),
(437,452,l),
(474,447,o),
(502,427,o),
(525,393,c),
(549,360,o),
(554,316,o),
(543,262,c),
(461,-106,l),
(440,-205,ls),
(423,-286,o),
(447,-326,o),
(529,-326,cs),
(637,-326,l),
(610,-445,l),
(493,-445,l),
(444,-445,ls),
(316,-445,o),
(260,-370,o),
(298,-228,c),
(300,-218,o),
(304,-208,o),
(305,-199,c)
);
}
);
width = 872;
}
);
unicode = 123;
},
{
glyphname = bar;
layers = (
{
layerId = "FD1F61E9-2C7C-476B-BA00-6F7EA0BDC6A6";
shapes = (
{
closed = 1;
nodes = (
(112,1356,l),
(384,1356,l),
(384,-125,l),
(112,-125,l)
);
}
);
width = 376;
},
{
layerId = "FB2915BF-3A78-4B7A-831F-149E9877B6A1";
shapes = (
{
closed = 1;
nodes = (
(149,1356,l),
(374,1356,l),
(374,-252,l),
(149,-252,l)
);
}
);
width = 451;
},
{
layerId = "14E32880-54EF-4278-81AC-E5D4AB6F58D5";
shapes = (
{
closed = 1;
nodes = (
(204,1356,l),
(359,1356,l),
(359,-442,l),
(204,-442,l)
);
}
);
width = 563;
},
{
layerId = "204F9CB2-94FB-4069-BE45-7F82EA7D2F19";
shapes = (
{
closed = 1;
nodes = (
(232,1356,l),
(351,1356,l),
(351,-538,l),
(232,-538,l)
);
}
);
width = 619;
}
);
unicode = 124;
},
{
glyphname = braceright;
layers = (
{
layerId = "FD1F61E9-2C7C-476B-BA00-6F7EA0BDC6A6";
shapes = (
{
closed = 1;
nodes = (
(550,751,l),
(538,687,o),
(544,641,o),
(568,617,cs),
(592,593,o),
(630,580,o),
(684,580,c),
(640,336,l),
(532,336,o),
(464,282,o),
(442,171,c),
(370,-222,l),
(367,-248,o),
(358,-270,o),
(348,-291,cs),
(327,-332,o),
(295,-368,o),
(258,-399,c),
(239,-413,o),
(219,-425,o),
(197,-433,c),
(156,-446,o),
(111,-450,o),
(62,-446,c),
(49,-446,o),
(38,-445,o),
(26,-445,cs),
(-197,-445,l),
(-146,-170,l),
(-42,-170,ls),
(34,-170,o),
(74,-140,o),
(89,-53,cs),
(149,281,ls),
(151,294,o),
(154,305,o),
(157,314,cs),
(174,361,o),
(202,395,o),
(238,418,cs),
(261,432,o),
(283,442,o),
(304,449,c),
(311,443,o),
(318,441,o),
(326,442,c),
(329,463,l),
(293,469,o),
(263,489,o),
(238,522,cs),
(213,555,o),
(206,599,o),
(216,653,c),
(281,1010,l),
(271,966,l),
(287,1046,o),
(265,1083,o),
(182,1083,cs),
(79,1083,l),
(131,1358,l),
(442,1358,l),
(421,1358,l),
(555,1358,o),
(618,1285,o),
(621,1168,c),
(620,1153,o),
(619,1136,o),
(615,1119,c)
);
}
);
width = 642;
},
{
layerId = "FB2915BF-3A78-4B7A-831F-149E9877B6A1";
shapes = (
{
closed = 1;
nodes = (
(566,732,ls),
(553,667,o),
(559,622,o),
(583,597,cs),
(607,572,o),
(646,560,o),
(700,560,c),
(661,355,l),
(553,355,o),
(483,303,o),
(460,190,cs),
(384,-201,l),
(380,-225,o),
(373,-247,o),
(365,-268,cs),
(349,-309,o),
(324,-345,o),
(293,-376,cs),
(277,-391,o),
(260,-404,o),
(241,-414,cs),
(202,-435,o),
(157,-445,o),
(106,-445,cs),
(94,-445,o),
(83,-445,o),
(71,-445,cs),
(-138,-445,l),
(-94,-218,l),
(11,-218,ls),
(86,-218,o),
(128,-184,o),
(144,-100,cs),
(214,261,ls),
(216,273,o),
(219,284,o),
(222,294,cs),
(235,336,o),
(256,368,o),
(284,391,cs),
(302,406,o),
(320,417,o),
(339,426,cs),
(358,434,o),
(377,440,o),
(397,443,c),
(400,462,l),
(364,468,o),
(334,488,o),
(310,521,cs),
(286,554,o),
(279,598,o),
(290,652,cs),
(360,1013,l),
(360,1013,l),
(376,1093,o),
(351,1131,o),
(271,1131,cs),
(168,1131,l),
(212,1358,l),
(462,1358,l),
(462,1358,l),
(594,1358,o),
(656,1284,o),
(646,1159,cs),
(645,1146,o),
(643,1131,o),
(640,1116,cs)
);
}
);
width = 713;
},
{
layerId = "14E32880-54EF-4278-81AC-E5D4AB6F58D5";
shapes = (
{
closed = 1;
nodes = (
(590,703,ls),
(576,637,o),
(582,594,o),
(605,567,cs),
(629,540,o),
(670,530,o),
(724,530,c),
(693,384,l),
(584,384,o),
(512,335,o),
(487,218,cs),
(405,-169,l),
(400,-190,o),
(396,-212,o),
(391,-233,cs),
(382,-275,o),
(367,-311,o),
(345,-342,cs),
(334,-358,o),
(321,-372,o),
(307,-385,cs),
(271,-418,o),
(226,-438,o),
(172,-443,cs),
(161,-444,o),
(150,-445,o),
(138,-445,cs),
(-49,-445,l),
(-16,-290,l),
(90,-290,ls),
(164,-290,o),
(209,-250,o),
(226,-170,cs),
(312,231,ls),
(314,242,o),
(317,253,o),
(319,264,cs),
(326,298,o),
(337,327,o),
(353,351,cs),
(363,367,o),
(376,380,o),
(391,392,cs),
(428,421,o),
(466,439,o),
(504,445,c),
(507,461,l),
(471,466,o),
(441,486,o),
(418,519,cs),
(395,552,o),
(389,596,o),
(401,651,cs),
(479,1017,l),
(493,1083,ls),
(510,1163,o),
(480,1203,o),
(405,1203,cs),
(301,1203,l),
(334,1358,l),
(492,1358,l),
(524,1358,ls),
(653,1358,o),
(713,1283,o),
(684,1146,cs),
(682,1135,o),
(679,1123,o),
(677,1112,cs)
);
}
);
width = 819;
},
{
layerId = "204F9CB2-94FB-4069-BE45-7F82EA7D2F19";
shapes = (
{
closed = 1;
nodes = (
(602,688,ls),
(588,622,o),
(594,580,o),
(616,552,c),
(640,524,o),
(682,515,o),
(736,515,c),
(709,399,l),
(600,399,o),
(527,351,o),
(501,232,cs),
(416,-153,l),
(410,-172,o),
(408,-194,o),
(404,-215,c),
(399,-258,o),
(389,-294,o),
(371,-325,c),
(363,-341,o),
(352,-356,o),
(340,-370,c),
(306,-409,o),
(261,-434,o),
(205,-442,cs),
(195,-443,o),
(184,-445,o),
(172,-445,cs),
(-4,-445,l),
(23,-326,l),
(130,-326,ls),
(203,-326,o),
(250,-283,o),
(267,-205,cs),
(361,216,ls),
(363,226,o),
(366,237,o),
(368,249,cs),
(372,279,o),
(378,306,o),
(388,331,cs),
(394,347,o),
(404,361,o),
(417,375,c),
(463,414,o),
(511,438,o),
(558,446,c),
(561,460,l),
(525,465,o),
(495,485,o),
(472,518,cs),
(450,551,o),
(444,595,o),
(457,650,cs),
(539,1019,l),
(560,1118,ls),
(577,1198,o),
(545,1239,o),
(472,1239,cs),
(368,1239,l),
(395,1358,l),
(507,1358,l),
(555,1358,ls),
(683,1358,o),
(742,1282,o),
(703,1139,c),
(701,1129,o),
(697,1119,o),
(696,1110,c)
);
}
);
width = 872;
}
);
unicode = 125;
},
{
glyphname = asciitilde;
layers = (
{
layerId = "FD1F61E9-2C7C-476B-BA00-6F7EA0BDC6A6";
shapes = (
{
closed = 1;
nodes = (
(160,755,l),
(297,858,o),
(404,898,o),
(497,898,cs),
(577,898,o),
(649,872,o),
(715,846,cs),
(780,820,o),
(841,792,o),
(910,792,cs),
(960,792,o),
(1011,807,o),
(1065,844,c),
(1182,587,l),
(1085,512,o),
(1003,490,o),
(929,490,cs),
(851,490,o),
(782,518,o),
(715,550,cs),
(647,582,o),
(581,609,o),
(508,609,cs),
(437,609,o),
(355,587,o),
(265,506,c)
);
}
);
width = 1206;
},
{
layerId = "FB2915BF-3A78-4B7A-831F-149E9877B6A1";
shapes = (
{
closed = 1;
nodes = (
(149,736,l),
(281,833,o),
(383,868,o),
(472,868,cs),
(552,868,o),
(621,842,o),
(686,816,cs),
(750,790,o),
(810,763,o),
(877,763,cs),
(928,763,o),
(980,778,o),
(1040,821,c),
(1139,612,l),
(1038,540,o),
(957,517,o),
(885,517,cs),
(808,517,o),
(742,545,o),
(678,575,cs),
(613,605,o),
(550,632,o),
(479,632,cs),
(410,632,o),
(332,608,o),
(240,532,c)
);
}
);
width = 1167;
},
{
layerId = "14E32880-54EF-4278-81AC-E5D4AB6F58D5";
shapes = (
{
closed = 1;
nodes = (
(133,707,l),
(257,795,o),
(352,823,o),
(435,823,cs),
(514,823,o),
(579,797,o),
(642,771,cs),
(705,745,o),
(764,719,o),
(828,719,cs),
(880,719,o),
(934,735,o),
(1002,786,c),
(1074,649,l),
(967,582,o),
(888,558,o),
(819,558,cs),
(743,558,o),
(682,585,o),
(622,613,cs),
(562,640,o),
(503,667,o),
(435,667,cs),
(370,667,o),
(298,640,o),
(202,571,c)
);
}
);
width = 1108;
},
{
layerId = "204F9CB2-94FB-4069-BE45-7F82EA7D2F19";
shapes = (
{
closed = 1;
nodes = (
(125,692,l),
(245,776,o),
(336,800,o),
(416,800,cs),
(495,800,o),
(558,774,o),
(620,748,cs),
(682,722,o),
(741,697,o),
(803,697,cs),
(856,697,o),
(911,713,o),
(983,768,c),
(1041,668,l),
(931,603,o),
(853,579,o),
(786,579,cs),
(710,579,o),
(652,605,o),
(594,632,cs),
(536,658,o),
(479,685,o),
(413,685,cs),
(350,685,o),
(281,656,o),
(183,591,c)
);
}
);
width = 1078;
}
);
unicode = 126;
},
{
glyphname = cent;
layers = (
{
layerId = "FD1F61E9-2C7C-476B-BA00-6F7EA0BDC6A6";
shapes = (
{
closed = 1;
nodes = (
(730,262,l),
(771,271,o),
(825,288,o),
(856,312,c),
(880,72,l),
(840,40,o),
(751,0,o),
(686,-5,c),
(654,-173,l),
(359,-173,l),
(388,-19,l),
(221,4,o),
(106,146,o),
(106,327,cs),
(106,639,o),
(292,844,o),
(554,891,c),
(582,1050,l),
(877,1050,l),
(849,889,l),
(910,879,o),
(969,863,o),
(1004,843,c),
(888,590,l),
(861,599,o),
(823,608,o),
(790,613,c)
);
},
{
closed = 1;
nodes = (
(560,609,l),
(474,594,o),
(426,508,o),
(426,409,cs),
(426,350,o),
(436,284,o),
(499,263,c)
);
}
);
width = 1024;
},
{
layerId = "FB2915BF-3A78-4B7A-831F-149E9877B6A1";
shapes = (
{
closed = 1;
nodes = (
(661,201,l),
(718,208,o),
(781,230,o),
(824,257,c),
(847,67,l),
(794,33,o),
(705,-2,o),
(629,-10,c),
(596,-178,l),
(364,-178,l),
(395,-20,l),
(223,-1,o),
(109,140,o),
(109,325,cs),
(109,648,o),
(292,865,o),
(576,908,c),
(607,1069,l),
(839,1069,l),
(808,908,l),
(880,900,o),
(941,883,o),
(984,860,c),
(885,656,l),
(848,672,o),
(800,683,o),
(756,688,c)
);
},
{
closed = 1;
nodes = (
(575,684,l),
(435,663,o),
(367,540,o),
(367,394,cs),
(367,311,o),
(385,223,o),
(481,204,c)
);
}
);
width = 1024;
},
{
layerId = "14E32880-54EF-4278-81AC-E5D4AB6F58D5";
shapes = (
{
closed = 1;
nodes = (
(558,110,l),
(638,114,o),
(715,143,o),
(776,175,c),
(797,59,l),
(725,22,o),
(636,-5,o),
(544,-17,c),
(509,-186,l),
(371,-186,l),
(405,-22,l),
(226,-9,o),
(113,131,o),
(113,322,cs),
(113,662,o),
(292,897,o),
(609,934,c),
(644,1098,l),
(782,1098,l),
(747,936,l),
(835,931,o),
(899,913,o),
(954,886,c),
(880,755,l),
(829,782,o),
(765,795,o),
(705,800,c)
);
},
{
closed = 1;
nodes = (
(598,796,l),
(377,767,o),
(278,588,o),
(278,371,cs),
(278,253,o),
(309,131,o),
(454,115,c)
);
}
);
width = 1024;
},
{
layerId = "204F9CB2-94FB-4069-BE45-7F82EA7D2F19";
shapes = (
{
closed = 1;
nodes = (
(506,64,l),
(598,67,o),
(682,99,o),
(752,134,c),
(772,55,l),
(690,16,o),
(601,-7,o),
(501,-21,c),
(465,-190,l),
(375,-190,l),
(410,-23,l),
(228,-13,o),
(115,126,o),
(115,320,cs),
(115,669,o),
(292,913,o),
(626,947,c),
(663,1113,l),
(753,1113,l),
(716,950,l),
(812,947,o),
(878,928,o),
(939,899,c),
(877,805,l),
(819,837,o),
(747,851,o),
(679,856,c)
);
},
{
closed = 1;
nodes = (
(610,852,l),
(348,819,o),
(233,612,o),
(233,359,cs),
(233,224,o),
(271,85,o),
(440,70,c)
);
}
);
width = 1024;
}
);
unicode = 162;
},
{
glyphname = sterling;
layers = (
{
layerId = "FD1F61E9-2C7C-476B-BA00-6F7EA0BDC6A6";
shapes = (
{
closed = 1;
nodes = (
(154,782,l),
(324,782,l),
(315,796,o),
(309,827,o),
(302,866,c),
(301,891,o),
(299,918,o),
(299,946,cs),
(299,1194,o),
(521,1383,o),
(812,1383,cs),
(989,1383,o),
(1071,1338,o),
(1140,1291,c),
(974,991,l),
(928,1028,o),
(865,1069,o),
(796,1069,cs),
(664,1069,o),
(621,986,o),
(621,927,cs),
(621,867,o),
(652,805,o),
(673,782,c),
(921,782,l),
(870,518,l),
(717,518,l),
(713,485,o),
(701,460,o),
(686,429,c),
(648,369,o),
(591,306,o),
(525,272,c),
(503,268,o),
(483,264,o),
(465,255,c),
(475,266,l),
(475,258,l),
(540,275,l),
(581,291,l),
(927,291,l),
(872,0,l),
(88,0,l),
(143,291,l),
(167,296,o),
(189,301,o),
(213,307,c),
(278,326,o),
(370,401,o),
(370,544,c),
(370,529,o),
(372,528,o),
(374,518,c),
(104,518,l)
);
}
);
width = 1024;
},
{
layerId = "FB2915BF-3A78-4B7A-831F-149E9877B6A1";
shapes = (
{
closed = 1;
nodes = (
(162,767,l),
(322,767,l),
(312,793,o),
(303,833,o),
(299,880,cs),
(298,895,o),
(297,911,o),
(297,928,cs),
(297,1197,o),
(513,1382,o),
(814,1382,cs),
(982,1382,o),
(1065,1339,o),
(1128,1299,c),
(991,1053,l),
(942,1088,o),
(881,1127,o),
(791,1127,cs),
(643,1127,o),
(570,1039,o),
(570,927,cs),
(570,864,o),
(594,802,o),
(613,767,c),
(894,767,l),
(851,547,l),
(656,547,l),
(654,520,o),
(648,491,o),
(639,462,cs),
(616,390,o),
(572,319,o),
(515,273,c),
(495,261,o),
(475,249,o),
(455,236,c),
(425,218,l),
(424,209,l),
(515,230,l),
(560,240,l),
(934,240,l),
(887,0,l),
(63,0,l),
(110,240,l),
(125,243,o),
(139,246,o),
(154,250,cs),
(270,284,o),
(370,368,o),
(370,519,cs),
(370,526,o),
(370,542,o),
(369,547,c),
(119,547,l)
);
}
);
width = 1024;
},
{
layerId = "14E32880-54EF-4278-81AC-E5D4AB6F58D5";
shapes = (
{
closed = 1;
nodes = (
(174,745,l),
(319,745,l),
(308,788,o),
(294,842,o),
(294,901,c),
(294,901,o),
(294,901,o),
(294,901,c),
(294,1201,o),
(501,1381,o),
(817,1381,cs),
(972,1381,o),
(1056,1341,o),
(1110,1311,c),
(1016,1146,l),
(963,1178,o),
(905,1214,o),
(783,1214,cs),
(612,1214,o),
(493,1119,o),
(493,927,cs),
(493,860,o),
(507,798,o),
(523,745,c),
(854,745,l),
(822,591,l),
(565,591,l),
(566,572,o),
(568,537,o),
(568,512,cs),
(568,421,o),
(544,339,o),
(500,275,cs),
(483,250,o),
(463,227,o),
(440,207,c),
(350,146,l),
(348,135,l),
(477,163,l),
(529,163,l),
(945,163,l),
(910,0,l),
(26,0,l),
(61,163,l),
(62,163,o),
(64,164,o),
(65,164,c),
(258,221,o),
(370,318,o),
(370,482,cs),
(370,521,o),
(367,563,o),
(362,591,c),
(142,591,l)
);
}
);
width = 1024;
},
{
layerId = "204F9CB2-94FB-4069-BE45-7F82EA7D2F19";
shapes = (
{
closed = 1;
nodes = (
(180,734,l),
(317,734,l),
(306,785,o),
(289,847,o),
(291,912,c),
(292,904,o),
(292,896,o),
(292,887,c),
(292,1203,o),
(495,1380,o),
(819,1380,cs),
(967,1380,o),
(1051,1342,o),
(1101,1317,c),
(1029,1193,l),
(974,1223,o),
(917,1258,o),
(779,1258,cs),
(596,1258,o),
(454,1159,o),
(454,927,cs),
(454,858,o),
(463,796,o),
(478,734,c),
(834,734,l),
(807,613,l),
(519,613,l),
(522,598,o),
(528,560,o),
(532,537,c),
(544,437,o),
(530,349,o),
(492,276,c),
(477,244,o),
(457,216,o),
(432,192,c),
(312,110,l),
(310,98,l),
(458,129,l),
(513,124,l),
(951,124,l),
(922,0,l),
(7,0,l),
(36,124,l),
(30,123,o),
(26,123,o),
(20,121,c),
(252,189,o),
(370,293,o),
(370,463,cs),
(370,518,o),
(365,574,o),
(358,613,c),
(154,613,l)
);
}
);
width = 1024;
}
);
unicode = 163;
},
{
glyphname = currency;
layers = (
{
layerId = "FD1F61E9-2C7C-476B-BA00-6F7EA0BDC6A6";
shapes = (
{
closed = 1;
nodes = (
(177,1193,l),
(298,1090,l),
(339,1017,l),
(397,1060,o),
(470,1079,o),
(561,1074,c),
(583,1072,o),
(604,1067,o),
(623,1062,c),
(655,1049,o),
(689,1034,o),
(718,1017,c),
(742,1090,l),
(858,1216,l),
(1061,1019,l),
(948,889,l),
(879,870,l),
(910,827,o),
(929,782,o),
(939,730,c),
(944,709,o),
(947,689,o),
(949,668,cs),
(957,582,o),
(953,513,o),
(935,474,c),
(1015,449,l),
(1123,363,l),
(950,170,l),
(827,270,l),
(840,254,l),
(803,326,l),
(750,282,o),
(661,262,o),
(571,268,c),
(550,271,o),
(530,275,o),
(511,280,c),
(483,292,o),
(451,309,o),
(418,326,c),
(396,254,l),
(304,142,l),
(99,335,l),
(190,449,l),
(258,481,l),
(237,514,o),
(217,544,o),
(204,590,cs),
(197,613,o),
(193,638,o),
(190,669,c),
(180,742,o),
(190,805,o),
(208,863,c),
(123,893,l),
(2,999,l)
);
},
{
closed = 1;
nodes = (
(457,664,o),
(467,633,o),
(483,606,c),
(498,574,o),
(526,548,o),
(556,536,cs),
(562,534,o),
(568,532,o),
(576,531,cs),
(609,527,o),
(635,534,o),
(651,546,cs),
(674,564,o),
(687,609,o),
(682,664,cs),
(681,673,o),
(679,682,o),
(677,690,cs),
(672,709,o),
(666,724,o),
(657,740,c),
(642,771,o),
(615,797,o),
(583,808,cs),
(577,810,o),
(571,812,o),
(564,813,cs),
(532,817,o),
(507,808,o),
(491,795,cs),
(470,777,o),
(457,736,o),
(457,699,cs)
);
}
);
width = 1024;
},
{
layerId = "FB2915BF-3A78-4B7A-831F-149E9877B6A1";
shapes = (
{
closed = 1;
nodes = (
(217,1182,l),
(337,1061,l),
(372,990,l),
(425,1027,o),
(489,1046,o),
(565,1046,cs),
(587,1046,o),
(608,1044,o),
(628,1041,cs),
(678,1033,o),
(724,1016,o),
(760,990,c),
(797,1061,l),
(925,1184,l),
(1080,1022,l),
(954,896,l),
(882,868,l),
(908,828,o),
(923,781,o),
(929,731,cs),
(932,710,o),
(933,690,o),
(933,669,cs),
(933,589,o),
(917,520,o),
(882,473,c),
(954,442,l),
(1066,330,l),
(911,171,l),
(797,281,l),
(797,281,l),
(764,351,l),
(715,314,o),
(641,294,o),
(565,294,cs),
(544,294,o),
(523,296,o),
(503,299,cs),
(454,306,o),
(410,324,o),
(372,351,c),
(337,281,l),
(225,167,l),
(69,326,l),
(180,442,l),
(250,477,l),
(231,511,o),
(216,549,o),
(208,595,cs),
(204,618,o),
(202,642,o),
(202,669,cs),
(202,742,o),
(223,805,o),
(254,865,c),
(180,898,l),
(61,1022,l)
);
},
{
closed = 1;
nodes = (
(422,634,o),
(431,600,o),
(448,574,c),
(468,540,o),
(501,517,o),
(542,510,cs),
(550,509,o),
(558,508,o),
(567,508,cs),
(604,508,o),
(635,519,o),
(658,538,cs),
(693,567,o),
(712,614,o),
(712,670,cs),
(712,679,o),
(711,688,o),
(710,697,cs),
(707,723,o),
(699,747,o),
(686,767,c),
(666,801,o),
(633,824,o),
(592,831,cs),
(584,832,o),
(576,833,o),
(567,833,cs),
(531,833,o),
(500,820,o),
(477,800,cs),
(441,769,o),
(422,720,o),
(422,670,cs)
);
}
);
width = 1024;
},
{
layerId = "14E32880-54EF-4278-81AC-E5D4AB6F58D5";
shapes = (
{
closed = 1;
nodes = (
(277,1166,l),
(395,1017,l),
(422,949,l),
(467,978,o),
(518,996,o),
(571,1004,cs),
(593,1007,o),
(614,1009,o),
(636,1009,cs),
(713,1009,o),
(776,989,o),
(823,949,c),
(879,1017,l),
(1026,1136,l),
(1108,1027,l),
(963,906,l),
(886,865,l),
(905,830,o),
(914,779,o),
(914,732,cs),
(914,712,o),
(912,691,o),
(909,671,cs),
(897,600,o),
(863,531,o),
(802,471,c),
(862,432,l),
(980,281,l),
(852,172,l),
(752,297,l),
(732,322,l),
(706,388,l),
(663,362,o),
(611,342,o),
(556,333,cs),
(535,329,o),
(513,327,o),
(491,327,cs),
(411,327,o),
(348,347,o),
(303,388,c),
(248,322,l),
(106,204,l),
(24,313,l),
(165,432,l),
(238,471,l),
(222,507,o),
(214,556,o),
(214,603,cs),
(214,626,o),
(216,648,o),
(220,669,cs),
(235,742,o),
(272,805,o),
(323,868,c),
(266,906,l),
(149,1057,l)
);
},
{
closed = 1;
nodes = (
(369,589,o),
(377,551,o),
(396,526,cs),
(423,489,o),
(464,471,o),
(521,471,cs),
(532,471,o),
(543,472,o),
(554,473,cs),
(596,479,o),
(635,496,o),
(669,526,cs),
(721,571,o),
(750,622,o),
(757,679,cs),
(758,688,o),
(759,697,o),
(759,707,cs),
(759,744,o),
(749,781,o),
(729,808,cs),
(702,846,o),
(660,865,o),
(605,865,cs),
(594,865,o),
(583,864,o),
(572,863,cs),
(529,857,o),
(490,838,o),
(456,808,cs),
(398,757,o),
(369,696,o),
(369,626,cs)
);
}
);
width = 1024;
},
{
layerId = "204F9CB2-94FB-4069-BE45-7F82EA7D2F19";
shapes = (
{
closed = 1;
nodes = (
(307,1158,l),
(424,995,l),
(447,928,l),
(488,953,o),
(533,971,o),
(574,983,c),
(596,987,o),
(617,991,o),
(640,993,c),
(731,997,o),
(802,975,o),
(855,928,c),
(920,995,l),
(1077,1112,l),
(1122,1030,l),
(968,911,l),
(888,863,l),
(903,831,o),
(909,778,o),
(906,733,cs),
(905,713,o),
(901,692,o),
(897,672,c),
(879,606,o),
(836,537,o),
(762,470,c),
(816,427,l),
(937,256,l),
(822,173,l),
(729,305,l),
(699,343,l),
(677,407,l),
(637,386,o),
(596,366,o),
(551,353,cs),
(530,347,o),
(508,343,o),
(485,341,c),
(389,338,o),
(317,359,o),
(268,407,c),
(203,343,l),
(46,223,l),
(1,306,l),
(157,427,l),
(232,468,l),
(217,505,o),
(213,560,o),
(217,607,cs),
(219,630,o),
(223,651,o),
(229,669,cs),
(252,742,o),
(297,805,o),
(358,870,c),
(309,910,l),
(193,1075,l)
);
},
{
closed = 1;
nodes = (
(342,566,o),
(350,526,o),
(370,502,c),
(400,463,o),
(445,448,o),
(510,451,cs),
(523,452,o),
(535,454,o),
(547,455,c),
(592,464,o),
(635,484,o),
(675,520,cs),
(735,573,o),
(769,626,o),
(780,684,c),
(781,693,o),
(783,702,o),
(784,712,c),
(785,755,o),
(774,798,o),
(751,829,cs),
(720,869,o),
(674,886,o),
(612,882,c),
(599,882,o),
(587,880,o),
(575,878,c),
(528,869,o),
(485,847,o),
(445,812,cs),
(376,751,o),
(342,684,o),
(342,604,cs)
);
}
);
width = 1024;
}
);
unicode = 164;
},
{
glyphname = yen;
layers = (
{
layerId = "FD1F61E9-2C7C-476B-BA00-6F7EA0BDC6A6";
shapes = (
{
closed = 1;
nodes = (
(99,663,l),
(324,663,l),
(223,1356,l),
(575,1356,l),
(597,967,l),
(609,894,l),
(623,894,l),
(651,942,l),
(828,1356,l),
(1197,1356,l),
(816,663,l),
(1014,663,l),
(972,446,l),
(689,446,l),
(672,352,l),
(955,352,l),
(915,134,l),
(632,134,l),
(608,0,l),
(259,0,l),
(283,134,l),
(0,134,l),
(40,352,l),
(323,352,l),
(340,446,l),
(57,446,l)
);
}
);
width = 1024;
},
{
layerId = "FB2915BF-3A78-4B7A-831F-149E9877B6A1";
shapes = (
{
closed = 1;
nodes = (
(140,654,l),
(354,654,l),
(208,1356,l),
(510,1356,l),
(582,892,l),
(596,799,l),
(606,799,l),
(649,879,l),
(908,1356,l),
(1212,1356,l),
(779,654,l),
(977,654,l),
(941,473,l),
(666,473,l),
(644,360,l),
(919,360,l),
(884,178,l),
(609,178,l),
(574,0,l),
(287,0,l),
(322,178,l),
(47,178,l),
(82,360,l),
(357,360,l),
(379,473,l),
(104,473,l)
);
}
);
width = 1024;
},
{
layerId = "14E32880-54EF-4278-81AC-E5D4AB6F58D5";
shapes = (
{
closed = 1;
nodes = (
(202,641,l),
(399,641,l),
(186,1356,l),
(412,1356,l),
(559,780,l),
(576,656,l),
(580,656,l),
(646,784,l),
(1028,1356,l),
(1234,1356,l),
(723,641,l),
(922,641,l),
(895,513,l),
(632,513,l),
(602,372,l),
(865,372,l),
(838,244,l),
(575,244,l),
(523,0,l),
(329,0,l),
(381,244,l),
(118,244,l),
(145,372,l),
(408,372,l),
(438,513,l),
(175,513,l)
);
}
);
width = 1024;
},
{
layerId = "204F9CB2-94FB-4069-BE45-7F82EA7D2F19";
shapes = (
{
closed = 1;
nodes = (
(233,634,l),
(422,634,l),
(175,1356,l),
(363,1356,l),
(547,724,l),
(566,584,l),
(567,584,l),
(644,736,l),
(1088,1356,l),
(1245,1356,l),
(695,634,l),
(894,634,l),
(872,533,l),
(615,533,l),
(581,378,l),
(838,378,l),
(815,277,l),
(558,277,l),
(497,0,l),
(350,0,l),
(411,277,l),
(154,277,l),
(177,378,l),
(434,378,l),
(468,533,l),
(211,533,l)
);
}
);
width = 1024;
}
);
unicode = 165;
},
{
glyphname = brokenbar;
layers = (
{
layerId = "FD1F61E9-2C7C-476B-BA00-6F7EA0BDC6A6";
shapes = (
{
closed = 1;
nodes = (
(113,418,l),
(385,418,l),
(385,-252,l),
(113,-252,l)
);
},
{
closed = 1;
nodes = (
(385,684,l),
(113,684,l),
(113,1356,l),
(385,1356,l)
);
}
);
width = 376;
},
{
layerId = "FB2915BF-3A78-4B7A-831F-149E9877B6A1";
shapes = (
{
closed = 1;
nodes = (
(149,412,l),
(374,412,l),
(374,-252,l),
(149,-252,l)
);
},
{
closed = 1;
nodes = (
(374,691,l),
(149,691,l),
(149,1356,l),
(374,1356,l)
);
}
);
width = 451;
},
{
layerId = "14E32880-54EF-4278-81AC-E5D4AB6F58D5";
shapes = (
{
closed = 1;
nodes = (
(203,403,l),
(358,403,l),
(358,-252,l),
(203,-252,l)
);
},
{
closed = 1;
nodes = (
(358,701,l),
(203,701,l),
(203,1356,l),
(358,1356,l)
);
}
);
width = 563;
},
{
layerId = "204F9CB2-94FB-4069-BE45-7F82EA7D2F19";
shapes = (
{
closed = 1;
nodes = (
(230,398,l),
(350,398,l),
(350,-252,l),
(230,-252,l)
);
},
{
closed = 1;
nodes = (
(350,706,l),
(230,706,l),
(230,1356,l),
(350,1356,l)
);
}
);
width = 619;
}
);
unicode = 166;
},
